<?xml version="1.0" standalone="no"?>
<!DOCTYPE svg PUBLIC "-//W3C//DTD SVG 1.1//EN" "http://www.w3.org/Graphics/SVG/1.1/DTD/svg11.dtd" >
<svg xmlns="http://www.w3.org/2000/svg">
<metadata>
Created by FontForge 20120731 at Tue Apr 15 10:25:41 2014
 By Than,,,
Created by Than,,, with FontForge 2.0 (http://fontforge.sf.net)
</metadata>
<defs>
<font id="quilt-icons" horiz-adv-x="512" >
  <font-face 
    font-family="quilt-icons"
    font-weight="500"
    font-stretch="normal"
    units-per-em="512"
    panose-1="2 0 6 3 0 0 0 0 0 0"
    ascent="448"
    descent="-64"
    bbox="-1 -66 512.38 449"
    underline-thickness="25"
    underline-position="-52"
    unicode-range="U+E001-E058"
  />
<missing-glyph horiz-adv-x="187" 
d="M17 0v341h136v-341h-136zM34 17h102v307h-102v-307z" />
    <glyph glyph-name=".notdef" horiz-adv-x="187" 
d="M17 0v341h136v-341h-136zM34 17h102v307h-102v-307z" />
    <glyph glyph-name=".null" horiz-adv-x="0" 
 />
    <glyph glyph-name="nonmarkingreturn" horiz-adv-x="170" 
 />
    <glyph glyph-name="uniE001" unicode="&#xe001;" 
d="M64 448v-512h1q-25 0 -45 20.5t-20 46.5v381q0 28 19 46t45 18zM512 224h-64v96h32q14 0 22 -9t9 -17l1 -9v-61zM512 64v-65q0 -3 -1 -8.5t-9 -14t-22 -8.5h-32v96h64zM448 192h64v-96h-64v96zM351 448q25 0 45 -20.5t20 -46.5v-381q0 -28 -19 -46t-45 -18h-256v512h255z
M352 128q1 20 -4 28q-4 6 -44 23l-24 11v18q7 6 9 23q3 -1 6.5 3.5t3.5 7.5q0 15 -6 14q1 9 1 21q-1 12 -11.5 21t-26.5 9t-26.5 -9t-11.5 -21q0 -12 1 -21q-6 1 -6 -14q0 -4 3 -8t6 -3q1 -8 3.5 -13.5t4.5 -7.5l2 -2v-18q-5 -3 -24 -11q-40 -17 -44 -23q-2 -4 -3 -11
t-1 -12v-5h96h96z" />
    <glyph glyph-name="uniE002" unicode="&#xe002;" 
d="M444 380h-376v-376h376v376zM512 448v-512h-512v512h512zM137 311h34v-238h-34v238zM239 311h34v-238h-34v238zM341 311h34v-238h-34v238zM205 260q0 -7 -5 -12t-12 -5h-69q-7 0 -12 5t-5 12t5 12t12 5h69q7 0 12 -5t5 -12zM307 158q0 -7 -5 -12t-12 -5h-68q-7 0 -12 5
t-5 12t5 12t12 5h68q7 0 12 -5t5 -12zM410 226q0 -7 -5 -12t-12 -5h-69q-7 0 -12 5t-5 12t5 12t12 5h69q7 0 12 -5t5 -12z" />
    <glyph glyph-name="uniE003" unicode="&#xe003;" horiz-adv-x="465" 
d="M458 27q13 -23 2.5 -41t-36.5 -18h-128h-128h-128q-26 0 -36 18t3 41l67 126q8 15 30 56t31 57l67 126q13 23 30.5 23t30.5 -23l67 -125q9 -15 31 -56.5t30 -56.5zM264 32v64h-64v-64h64zM264 128v128h-64v-128h64z" />
    <glyph glyph-name="uniE004" unicode="&#xe004;" 
d="M0 0h512v-32h-512v32zM0 320h128v-288h-128v288zM192 192h128v-160h-128v160zM384 416h128v-384h-128v384z" />
    <glyph glyph-name="uniE005" unicode="&#xe005;" horiz-adv-x="450" 
d="M318 448q0 -1 -0.5 -5t-1.5 -6q-7 -11 -23 -33q67 -35 75 -97h-286q8 63 75 97q-21 29 -23 32q-1 2 -1.5 6.5t-0.5 5.5h6q20 -31 24 -35q5 -5 10 -3q53 16 106 0q5 -2 10 3q4 4 24 35h6zM302 361q0 14 -16 14q-14 0 -14 -15q0 -6 5 -10t11 -4q14 0 14 15zM165 346
q6 0 10.5 4.5t4.5 10.5q0 14 -15 14t-15 -15q0 -14 15 -14zM0 266q16 26 39 22q25 -5 25 -33q0 -20 0.5 -60.5t0.5 -60.5q0 -25 -25 -32q-23 -6 -37 18q-1 0 -2 2l-1 2v142zM250 36h-49v-60q0 -11 -1 -16q-6 -23 -33 -23q-24 2 -29 25q-2 16 -2 25v50h-23q-30 0 -30 29v211
q0 1 0.5 4.5t0.5 5.5h285v-11v-207q0 -17 -7.5 -24.5t-24.5 -7.5h-22v-68q0 -16 -11 -25t-27 -7q-11 2 -19 11t-8 22v55v11zM450 194v-60q0 -13 -8 -22.5t-20 -10.5q-13 -1 -23.5 6.5t-12.5 21.5v5v121q0 16 10 25.5t25 7.5q12 -1 20.5 -9.5t8.5 -21.5v-63z" />
    <glyph glyph-name="uniE006" unicode="&#xe006;" horiz-adv-x="444" 
d="M429 273q-41 -22 -54 -64t6.5 -82t62.5 -57q-40 -84 -82 -119q-35 -29 -78 -8q-45 22 -90 7q-2 -1 -6.5 -3t-7.5 -3q-55 -24 -94 19q-89 98 -86 220q1 49 31 88t75 50q33 8 72 -5q4 -2 13.5 -5t14.5 -5q27 -8 57 3q46 17 74 15q52 -4 92 -51zM215 321q-8 39 24.5 78.5
t79.5 42.5q10 -37 -22.5 -79.5t-81.5 -41.5z" />
    <glyph glyph-name="uniE007" unicode="&#xe007;" horiz-adv-x="284" 
d="M284 87h-127v-60q-1 0 -157 156q26 27 67 70.5t65 68.5l24 25v-67h128v-193z" />
    <glyph glyph-name="uniE008" unicode="&#xe008;" horiz-adv-x="507" 
d="M0 -23v439h507v-439h-507zM439 44v304h-371v-304h371zM338 79h-33v202h33v-202zM170 79v134h33v-134h-33zM135 79h-33v100h33v-100zM270 79h-33v100h33v-100zM373 179h33v-100h-33v100z" />
    <glyph glyph-name="uniE009" unicode="&#xe009;" 
d="M512 243v-130h-32v-63h-14h-453q-2 0 -6.5 -0.5t-6.5 -0.5v290q2 0 6.5 -0.5t6.5 -0.5h454h13v-95h32zM415 114v159h-350v-159h350zM100 149q82 62 125 94q4 -4 12.5 -13t12.5 -14q5 -7 14 -4q55 15 116 27q-82 -62 -125 -94l-24 27q-6 7 -15 4q-19 -5 -57.5 -14.5
t-57.5 -14.5q0 1 -0.5 1t-0.5 1z" />
    <glyph glyph-name="uniE00A" unicode="&#xe00a;" horiz-adv-x="415" 
d="M362 300l-30 -30t-34.5 -34t-28.5 -29q-8 8 -22.5 23t-21.5 22l92 92q-9 9 -26.5 26t-27.5 27h152v-150zM145 173l45 -45q-15 -15 -46 -45.5t-47 -46.5q35 -35 54 -53h-151v150l51 -54z" />
    <glyph glyph-name="uniE00B" unicode="&#xe00b;" 
d="M68 65v383q17 -1 51 -5q66 -9 108 -31q12 -7 12 -24v-351v-16q-59 36 -171 44zM444 448v-383q-110 -8 -170 -44q0 3 -0.5 7.5t-0.5 6.5v355q0 16 11 21q43 23 108 32q9 1 26 2.5t26 2.5zM0 -21v425h33v-388q9 -2 29.5 -5.5t31.5 -5.5q19 -4 62.5 -11.5t65.5 -11.5
q30 -6 89 4q27 5 81 14.5t81 14.5q3 0 5 1v388h34v-425q-16 -3 -47 -8.5t-46 -8.5q-23 -4 -68.5 -12t-68.5 -12q-25 -4 -84 6q-32 6 -97 17.5t-97 16.5q-2 0 -4 1z" />
    <glyph glyph-name="uniE00C" unicode="&#xe00c;" horiz-adv-x="492" 
d="M0 -41q1 0 3 0.5t3 1.5q33 11 45 41q15 38 26 70q3 7 7.5 21.5t7.5 21.5q16 42 66 60q4 1 9 -3q8 -8 35 -34t41 -41q3 -3 3 -12q-14 -103 -119 -127q-59 -13 -127 1zM272 120q-27 28 -81 82q30 15 45 22q36 16 63 45l42.5 42.5l50 50l42.5 42.5q6 6 20 14q15 7 29 -5
q13 -13 6 -30q-5 -12 -12 -19q-109 -109 -123 -122q-47 -44 -77 -111q-1 -1 -1.5 -3t-1.5 -4z" />
    <glyph glyph-name="uniE00D" unicode="&#xe00d;" horiz-adv-x="496" 
d="M448 398q48 -69 48.5 -174t-47.5 -176q-22 19 -44 35q-66 48 -123 58q-5 0 -7 6q-25 76 0 152q2 6 7 6q67 12 148 78zM224 302v-159h-23q-1 -31 6 -60q6 -24 21 -40q12 -14 9.5 -28t-17.5 -24q-31 -20 -55 6q-31 34 -37 82q-2 11 -16 59q-2 5 -8 5q-16 1 -33 0
q-41 -1 -61 38q-13 26 -8.5 56.5t24.5 49.5q16 16 37 16h154q1 0 3 -0.5t4 -0.5zM64 254q-14 -1 -23 -12.5t-8 -28.5q1 -16 9.5 -27t21.5 -10v78z" />
    <glyph glyph-name="uniE00E" unicode="&#xe00e;" horiz-adv-x="479" 
d="M64 446h96v-64h160v64h96v-65h63v-446h-479v446h64v65zM447 284h-415v-318h415v318zM96 412v-62h31v62h-31zM383 349v63h-30v-63h30zM420 236v-43q0 -2 -1.5 -4.5t-1.5 -3.5l-93 -165q-5 -7 -7 -7h-65q57 100 98 171h-102v52h172zM133 14v166q-7 -1 -19 -4t-19 -4l-12 48
q2 1 11.5 4t12.5 3.5t11.5 3t13 3.5t12 2.5t12.5 2t12 0.5t13.5 -0.5t12.5 -1.5v-223h-61z" />
    <glyph glyph-name="uniE00F" unicode="&#xe00f;" horiz-adv-x="511" 
d="M301 261q38 0 65 -26.5t27 -64.5t-27 -65t-65 -27t-65 27t-27 65t27 64.5t65 26.5zM277 120q4 30 25.5 51t51.5 24q-17 20 -41 20q-23 0 -39 -16.5t-16 -38.5q0 -23 19 -40zM474 355q15 0 26 -10.5t11 -25.5v-292q0 -15 -11 -26t-26 -11h-438q-15 0 -25.5 11t-10.5 26
v292q0 15 10.5 25.5t25.5 10.5h37q0 14 10.5 25.5t25.5 11.5h73q15 0 26 -11.5t11 -25.5h182v37h37v-37h36zM87 232q11 0 19 8t8 19t-8 18.5t-19 7.5t-18.5 -7.5t-7.5 -18.5t7.5 -19t18.5 -8zM301 30q58 0 98.5 41t40.5 99t-40.5 98.5t-98.5 40.5t-98.5 -40.5t-40.5 -98.5
t40.5 -99t98.5 -41z" />
    <glyph glyph-name="uniE010" unicode="&#xe010;" horiz-adv-x="488" 
d="M146 -48v116q-2 0 -5.5 0.5t-5.5 0.5h-77q-26 0 -42 16.5t-16 41.5v246q0 25 16 41.5t42 16.5h372q25 0 41.5 -16.5t16.5 -42.5v-245q0 -25 -16 -41.5t-42 -16.5h-106q-7 0 -17 -6q-25 -18 -76.5 -53t-76.5 -53q-4 -2 -8 -5zM206 73l10 6q12 8 35.5 22t35.5 22q8 5 16 5
h102q13 0 18 5t5 18v195q0 14 -5 19t-18 5h-321q-14 0 -19 -5t-5 -19v-194q0 -14 5 -19t19 -5h111h11v-55z" />
    <glyph glyph-name="uniE011" unicode="&#xe011;" horiz-adv-x="471" 
d="M167 -41q-19 21 -53 61t-50 58q-9 10 -27.5 31.5t-27.5 31.5q-19 22 3 41q6 4 16 13t16 14q23 18 41 -3q12 -14 36.5 -42t36.5 -42q1 -2 4 -5q1 2 3.5 5t3.5 4q36 46 107 136.5t106 135.5q12 15 22 16.5t25 -10.5q6 -4 16.5 -12.5t15.5 -13.5q20 -17 4 -36
q-49 -63 -147.5 -189t-147.5 -189l-1 -2q-1 -2 -2 -3z" />
    <glyph glyph-name="uniE012" unicode="&#xe012;" horiz-adv-x="488" 
d="M0 192q-1 101 72.5 173.5t176.5 70.5q100 -2 170.5 -75t68.5 -175q-2 -100 -74.5 -170t-175.5 -69q-97 2 -167.5 74t-70.5 171zM185 134q-2 2 -4 4.5t-3 3.5q-8 9 -22.5 25.5t-21.5 24.5q-12 15 -28 2l-21 -18q-12 -11 -1 -24q18 -21 52.5 -60.5t51.5 -59.5q4 5 11.5 15
t11.5 15q29 36 85.5 109t84.5 109q13 17 -3 30q-3 3 -9.5 8t-9.5 7q-16 12 -28 -4q-7 -9 -21.5 -27.5t-22.5 -28.5q-34 -43 -102 -131z" />
    <glyph glyph-name="uniE013" unicode="&#xe013;" horiz-adv-x="441" 
d="M221 411q92 0 156 -64.5t64 -156.5q0 -91 -65 -155t-157 -64q-90 0 -154.5 64.5t-64.5 155.5t64.5 155.5t156.5 64.5zM65 192q-1 -60 43 -107t104 -50q68 -3 115 42t49 107q2 65 -41.5 113t-105.5 49q-68 2 -115 -42t-49 -112zM208 243v30q0 18 16 18t16 -18v-46
q0 -9 6 -14q10 -9 31.5 -25t31.5 -25q7 -5 10 -11q5 -11 -6 -18q-10 -7 -20 1q-36 30 -55 43q-40 27 -30 65z" />
    <glyph glyph-name="uniE014" unicode="&#xe014;" 
d="M2 190q11 35 24 52q39 50 101 51h7q12 59 65 88q33 18 72 15q51 -5 86 -44q34 -38 29 -92q46 6 82 -20t43 -70q7 -48 -21.5 -83t-70.5 -41q-9 -1 -28 -1h-263q-44 0 -78 26t-45 68q-1 2 -2 5.5t-1 5.5q-3 16 0 40zM328 200q0 3 0.5 7t0.5 6q1 7 2.5 19t2.5 22t1 19
q0 28 -19 48t-48 24q-28 3 -51 -12.5t-30 -42.5q-4 -14 -8 -42q-2 -8 -8 -7t-18 1t-18 1q-33 3 -57.5 -18t-25.5 -54q-2 -31 20 -53.5t53 -22.5q0 -1 139 -1l139 1q25 0 42.5 18t15.5 42q-1 27 -20.5 42.5t-46.5 12.5q-11 -2 -33 -5t-33 -5z" />
    <glyph glyph-name="uniE015" unicode="&#xe015;" horiz-adv-x="509" 
d="M82 185q5 -4 44.5 -37.5t59.5 -51.5q26 -23 6 -47t-47 -2q-20 17 -42.5 36.5t-49 42.5t-41.5 36q-13 11 -12.5 25t13.5 25l135 105q26 19 45 -5q19 -25 -6 -45l-96 -75q-6 -4 -9 -7zM427 185q-33 25 -97 75q-1 1 -4 3.5t-4 3.5q-25 20 -6 45q19 24 45 5q30 -23 88 -69
q8 -6 23.5 -17.5t22.5 -17.5q13 -10 13.5 -25t-12.5 -26q-68 -60 -134 -116q-15 -13 -32.5 -6.5t-20.5 25.5q-3 17 13 30q12 10 33 28l38.5 33t33.5 29z" />
    <glyph glyph-name="uniE016" unicode="&#xe016;" horiz-adv-x="170" 
d="M170 190q-29 -16 -85 -48t-85 -48v191q29 -16 85.5 -47.5t84.5 -47.5z" />
    <glyph glyph-name="uniE017" unicode="&#xe017;" horiz-adv-x="438" 
d="M285 312l-22 -96l-1 -3l-9 -41l-29 -29l-2 -2l-68 -69l22 96l1 3l9 41l29 29l2 2zM194 201l-9 -40l-13 -56l40 40l28 29zM246 410q75 -9 128 -62t63 -129q-38 -24 -38 -27q0 -5 39 -28q-9 -75 -62.5 -127.5t-129.5 -62.5q-23 37 -27 37t-28 -38q-74 9 -128 63.5
t-63 128.5q38 22 38 27t-38 27q9 75 63 128.5t129 62.5q8 -12 11 -17l10 -15q1 -2 3 -4l3 -1q1 0 2 1q2 2 3 4q9 12 11 15q3 5 11 17zM219 348q-65 -2 -109.5 -45t-46.5 -109q-1 -60 43 -107t104 -50q68 -3 115 41.5t49 106.5q2 65 -41.5 113.5t-105.5 49.5h-8z" />
    <glyph glyph-name="uniE018" unicode="&#xe018;" horiz-adv-x="510" 
d="M333 448q26 -12 39 -30q11 -17 11 -35v-122q0 -28 -19.5 -47.5t-47.5 -19.5h-147q-9 0 -16 -7q-14 -14 -43 -43.5t-45 -45.5v95l-15 3q-32 10 -46 42q0 2 -2 5t-2 4v149q13 37 50 52h283zM446 33v-93q-4 3 -8 7q-53 53 -79 80q-8 8 -19 8h-142q-33 0 -53.5 22.5
t-16.5 55.5q0 4 4 8l14 15q14 14 22 21q5 5 14 5h132q42 0 71 29t29 71v26q76 13 95 -51q1 -5 1 -15v-117q0 -28 -15.5 -46.5t-42.5 -23.5q-2 0 -6 -2z" />
    <glyph glyph-name="uniE019" unicode="&#xe019;" horiz-adv-x="497" 
d="M306 31v64h64v63h64v-63h63v-64h-63v-63h-64v63h-64zM262 446l21 -6q34 -10 51.5 -36.5t13.5 -62.5l-3 -24q17 -9 15 -40q-2 -21 -21 -28q-3 -2 -5 -7q-5 -32 -20 -49q-3 -3 -3 -6q0 -27 1 -40q0 -3 6 -7q2 -1 9 -5t10 -7h-63v-129h64v-63h-337q0 1 -0.5 3t-0.5 3
q2 60 4 94q2 25 23 36q31 15 56 26q45 20 95 40q9 5 8 13v13q2 24 -9 40q-1 2 -13 37q-2 8 -8 9q-5 1 -11 9q-14 19 -2 49q1 2 10 9q-1 10 -3 32q-3 68 60 90q8 3 26 7h26z" />
    <glyph glyph-name="uniE01A" unicode="&#xe01a;" 
d="M0 -66v512h512v-512h-512zM65 318v-319h383v319h-383zM95 350v31h-30v-31h30zM160 382h-31v-31h31v31zM224 381h-31v-30h31v30zM193 31v158h222v-158h-222zM97 286h63v-255h-63v255zM193 223v62h222v-62h-222z" />
    <glyph glyph-name="uniE01B" unicode="&#xe01b;" horiz-adv-x="449" 
d="M233 444q101 -2 166 -24q19 -6 36 -18q29 -20 0 -43q-27 -19 -69 -28q-156 -31 -300 5q-23 5 -49 21q-36 22 0 47q23 16 76 28q59 12 140 12zM448 328v-75q0 -11 -16 -23q-23 -16 -63 -25q-156 -32 -302 4q-15 4 -50 21q-19 9 -17 31v67q83 -42 224 -42t224 42zM0 72
q7 -2 33.5 -12t40.5 -13q102 -23 224 -12q74 7 124 27q18 8 26 12v-33q0 -22 1 -33q1 -20 -18 -33q-26 -17 -70 -26q-152 -30 -292 5q-17 4 -51 21q-20 9 -18 33q1 21 1 64q0 1 -1 0zM448 200v-74q0 -13 -15 -22q-27 -19 -67 -27q-156 -31 -300 5q-13 3 -49 21q-19 9 -17 31
v65q55 -20 66 -23q99 -25 220 -15q72 6 116 21q20 7 46 18z" />
    <glyph glyph-name="uniE01C" unicode="&#xe01c;" horiz-adv-x="473" 
d="M236 -47q-98 0 -167 69.5t-69 166.5q0 99 69.5 167.5t170.5 68.5q96 0 164.5 -70t68.5 -168q0 -97 -69.5 -165.5t-167.5 -68.5zM379 284l-237 -237q26 -20 62 -27t76 3t72 39q49 45 55.5 111t-28.5 111zM93 96q39 40 118 118t119 118q-46 35 -110.5 27.5t-107.5 -52.5
q-44 -47 -47 -110.5t28 -100.5z" />
    <glyph glyph-name="uniE01D" unicode="&#xe01d;" 
d="M0 30v386q2 0 7 -0.5t7 -0.5h485h13v-384h-159v-32h63v-31h-319v31h62v31q-2 0 -3.5 0.5t-2.5 0.5h-146q-1 0 -3.5 -0.5t-3.5 -0.5zM448 350h-383v-254h383v254z" />
    <glyph glyph-name="uniE01E" unicode="&#xe01e;" horiz-adv-x="412" 
d="M0 443h10h247q9 0 16 -7q67 -66 133 -133q5 -5 5 -12q0 -58 0.5 -174.5t0.5 -174.5q0 -1 -0.5 -3.5t-0.5 -3.5h-411v508zM64 379v-380h284v12v246q0 16 -6 21.5t-21 5.5h-68v72q0 24 -23 24h-156q-1 0 -4.5 -0.5t-5.5 -0.5zM316 220v-30h-221v30h221zM316 94v-32h-221v32
h221zM95 126v31h221v-31h-221zM221 316h-126v32h126v-32zM95 253v31h126v-31h-126z" />
    <glyph glyph-name="uniE01F" unicode="&#xe01f;" horiz-adv-x="315" 
d="M61 339h192v-128h61q0 -1 0.5 -1t0.5 -1q-50 -55 -150 -163l-165 165h61v128z" />
    <glyph glyph-name="uniE020" unicode="&#xe020;" horiz-adv-x="225" 
d="M1 384q38 -32 112.5 -96t111.5 -96q-37 -32 -111.5 -96t-112.5 -96q0 2 -0.5 5t-0.5 4v77q0 9 7 14q19 18 56 49.5t49 42.5q-2 2 -20 17.5t-27 23.5q-40 34 -59 51q-6 6 -6 11v84q0 3 1 5z" />
    <glyph glyph-name="uniE021" unicode="&#xe021;" horiz-adv-x="383" 
d="M383 276q-32 -38 -95.5 -112t-95.5 -112q-32 38 -96 112.5t-96 111.5q2 0 5 0.5t4 0.5h77q9 0 14 -7q18 -19 49 -55t42 -49q29 33 41 46q15 18 52 59q6 6 11 6h83q3 0 5 -1z" />
    <glyph glyph-name="uniE022" unicode="&#xe022;" horiz-adv-x="511" 
d="M447 198l64 42v-270l-126 111l-37 32l-12 11l79 53v121l-6 6h-90v89l-6 7h-217v-223l79 -53l-12 -11l-37 -32l-126 -111v270l64 -42v234h262l121 -121v-113zM300 113l36 -32l146 -128h-453l146 128l36 32h89zM0 240l64 32v-32h-64zM511 240h-64v32z" />
    <glyph glyph-name="uniE023" unicode="&#xe023;" horiz-adv-x="491" 
d="M0 191q0 102 72 173.5t174 71.5q104 0 175.5 -74t69.5 -176q-2 -100 -74.5 -170.5t-174.5 -70.5q-100 0 -171 72.5t-71 173.5zM254 350h-23h-2q-11 -1 -14.5 -4.5t-2.5 -13.5q1 -22 3.5 -65t3.5 -64q1 -10 2 -30.5t1 -30.5q1 -18 20 -18h25q17 0 18 17q1 8 2 23.5t1 23.5
q1 24 3.5 72.5t4.5 72.5q1 16 -16 17h-26zM301 40q0 20 -13.5 34.5t-32.5 14.5q-20 0 -34.5 -14t-14.5 -34t14 -34t33 -14q20 0 34 14t14 33z" />
    <glyph glyph-name="uniE024" unicode="&#xe024;" horiz-adv-x="491" 
d="M491 189q0 -103 -72 -173.5t-176 -70.5q-100 0 -171.5 72.5t-71.5 173.5q0 103 72 174t176 71q100 0 171.5 -72.5t71.5 -174.5zM160 331q-9 -9 -27.5 -28t-28.5 -29l86 -86q-15 -15 -43.5 -43t-41.5 -41q9 -9 28 -28.5t29 -29.5l85 85l84 -84l58 58l-26 26l-31.5 31.5
l-27.5 27.5l84 84l-58 58q-14 -14 -42 -42.5t-43 -43.5z" />
    <glyph glyph-name="uniE025" unicode="&#xe025;" horiz-adv-x="452" 
d="M92 -35l-91 91l134 134l-135 135q16 16 46 45.5t45 44.5l133 -133l135 135q16 -16 46 -46.5t45 -45.5q-22 -22 -66 -65.5t-67 -66.5l135 -135l-91 -91q-22 22 -66.5 66t-67.5 67z" />
    <glyph glyph-name="uniE026" unicode="&#xe026;" horiz-adv-x="191" 
d="M96 105l-48 84t-48 85h191q-16 -29 -47.5 -85t-47.5 -84z" />
    <glyph glyph-name="uniE027" unicode="&#xe027;" horiz-adv-x="470" 
d="M391 175q-3 1 -6 1h-5q-57 12 -98 -29l-111 -111q-6 -6 -18 -16q-33 -24 -61 3q-10 9 -55 54l-13 13q-24 22 -24 43q0 47 21 70l21 21t23 24q6 8 20 33q3 6 7 20q8 30 30 49l34 34q15 13 28 0q33 -33 99.5 -100t99.5 -100q4 -4 8 -9zM82 133q8 4 9 5l112 112q11 11 0 23
l-21 21q-12 12 -24 0l-111 -111q-5 -5 -5 -12q-1 -8 15 -23t25 -15zM394 -19v12v201q0 9 -5 16q-28 38 -84 112l-2 4q-2 3 -4 5q33 8 60 5q47 -3 75 -30q24 -23 31 -65q25 -140 -59 -249q-2 -3 -8 -9z" />
    <glyph glyph-name="uniE028" unicode="&#xe028;" horiz-adv-x="377" 
d="M223 434q-22 -50 3 -108q11 6 32.5 18.5t33.5 19.5q-21 -67 -20 -121q61 30 105 32q-30 -55 -30 -139q0 -9 2 -30.5t1 -32.5q-5 -81 -70 -106q-99 -38 -196 4q-68 30 -81 117q-13 83 35 159q62 98 185 187zM215 64q-23 57 -26 113q-28 -28 -40 -44q-28 -37 -10 -67
q-26 10 -39.5 32t-11.5 51l-6 -9t-5 -9q-18 -37 4 -85q17 -36 56 -38q31 -1 92 1q28 1 40 28q2 5 6.5 13t6.5 13q10 22 9.5 51t-10.5 51q-28 -71 -66 -101z" />
    <glyph glyph-name="uniE029" unicode="&#xe029;" horiz-adv-x="480" 
d="M16 5q-5 3 -11 12l-5 9v166v166l5 9q7 12 18 14.5t66 1.5l66 -1l12 -6q12 -7 23 -18q21 -22 34 -29q14 -7 32 -8.5t101 -1.5q86 0 98.5 -1.5t19.5 -14.5l5 -9v-134v-134l-5 -9q-6 -9 -11 -12q-7 -4 -224 -4t-224 4z" />
    <glyph glyph-name="uniE02A" unicode="&#xe02a;" horiz-adv-x="283" 
d="M0 279h127v64q56 -56 156 -154q-27 -28 -77.5 -81t-75.5 -79l-1 1l-1 1v56h-128v192z" />
    <glyph glyph-name="uniE02B" unicode="&#xe02b;" 
d="M0 -34v418q2 0 7 -0.5t7 -0.5h485h13v-416h-13h-485q-2 0 -7 -0.5t-7 -0.5zM447 31v287h-382v-287h382z" />
    <glyph glyph-name="uniE02C" unicode="&#xe02c;" horiz-adv-x="513" 
d="M0 0v156q2 2 2 4q13 93 77.5 155t158.5 69q90 7 165 -45t99 -138q8 -32 10 -71v-129h-13h-485q-2 0 -7 -0.5t-7 -0.5zM303 108l2 2l1 2q8 24 23.5 73t23.5 74q3 11 3 22q0 9 -4.5 11.5t-11.5 -3.5q-11 -10 -17 -21q-24 -43 -70 -131q0 -1 -1 -2t-2 -2.5t-1 -3.5
q32 1 54 -21zM255 18q20 0 34.5 13.5t14.5 32.5q0 20 -14 34t-33 14q-20 0 -34.5 -13.5t-14.5 -32.5q0 -20 14 -34t33 -14zM128 205q0 13 -8.5 22t-21.5 9q-14 0 -23 -8.5t-9 -21.5q0 -14 9 -23.5t22 -9.5t22 9.5t9 22.5zM34 120q-1 -13 7.5 -22t22.5 -10q13 -1 22.5 7.5
t10.5 22.5q0 13 -8.5 22t-21.5 10t-22.5 -8t-10.5 -22zM165 298q-13 0 -22 -9t-9 -22t9 -23t22 -10t22.5 9.5t9.5 22.5t-9.5 22.5t-22.5 9.5zM254 258q13 0 22.5 9t9.5 22t-9 22t-22 9q-14 0 -23.5 -9.5t-9.5 -22.5t9.5 -21.5t22.5 -8.5zM444 209q0 13 -9 21.5t-22 8.5
t-22.5 -9t-9.5 -22t9.5 -22.5t22.5 -9.5t22 9.5t9 23.5zM476 112q0 13 -9.5 22t-22.5 9t-22 -9t-9 -22t9.5 -22.5t22.5 -9.5t22 9.5t9 22.5z" />
    <glyph glyph-name="uniE02D" unicode="&#xe02d;" horiz-adv-x="480" 
d="M206 32q-30 9 -36 12q-8 3 -13 -2q-6 -6 -17 -17.5t-16 -16.5q-20 -20 -42 1l-15 15q-19 21 -1 41q5 5 10.5 11t12.5 12.5t11 10.5q-12 28 -19 41q-2 4 -8 4h-43q-30 0 -30 30v23q0 27 26 27h42q8 0 11 8q2 6 14 40l-34 34q-22 22 0 44l14 14q20 20 42 0l34 -34l1 -1
q8 3 22 9t16 7q5 2 5 8v47q0 31 31 31h21q29 0 29 -29v-49q0 -6 7 -9q15 -5 25 -10q7 -4 13 2q18 19 37 37q21 21 42 0l15 -15q20 -20 1 -41q-12 -13 -38 -37q-6 -6 -2 -13q3 -5 7.5 -15.5t6.5 -13.5h62q30 0 30 -30v-21q0 -29 -30 -29h-59q-4 -12 -12 -34q-2 -3 3 -8
l40 -40q22 -22 -1 -44l-15 -15q-20 -19 -40 1q-28 26 -41 40q-4 -2 -16.5 -8t-18.5 -9q-3 -1 -3 -9v-51q0 -30 -31 -30h-22q-28 0 -28 28v53zM300 191q0 27 -19.5 47t-46.5 20t-47 -20t-20 -47t19.5 -47t46.5 -20t47 20t20 47z" />
    <glyph glyph-name="uniE02E" unicode="&#xe02e;" 
d="M0 124q10 14 29 12h26q1 2 5.5 12.5t6.5 16.5q2 4 -2 8q-3 4 -11.5 11.5t-11.5 11.5q-14 15 0 30q17 19 26 19t27 -18l15 -15q4 2 8.5 4t10 4.5t8.5 3.5q5 2 5 7v35q0 21 20 21h20q18 -2 18 -19v-36q0 -9 7 -10q4 0 6 -1q16 -12 31 7q3 3 9.5 9t8.5 8q15 13 28 1
q20 -19 20 -25q2 -11 -18 -29q-4 -3 -10 -9.5t-10 -9.5q1 -3 2.5 -6l2.5 -5q4 -19 26 -17q9 1 28 1q21 0 21 -22v-17q0 -21 -20 -21h-45q-7 -18 -8 -23t3 -9q5 -4 14 -13.5t13 -14.5q15 -15 1 -31q-17 -19 -26 -18.5t-27 18.5q-3 3 -9 9.5t-9 9.5l-14 -7q-18 -4 -15 -24
v-8.5v-10.5v-9q0 -20 -19 -20h-21q-18 2 -18 19v34q0 7 -7 8q-4 0 -12 4q-14 9 -25 -6q-3 -3 -9.5 -8.5t-7.5 -7.5q-4 -4 -6 -5q-16 -9 -38 17q-12 14 1 27q5 5 14.5 14t11.5 11q-12 26 -14 30t-8 4h-8.5h-10h-8.5q-17 -2 -25 14v34zM220 111q0 20 -14.5 34.5t-33.5 14.5
q-20 0 -35 -14.5t-15 -34.5q0 -19 15 -34t34 -15q20 0 34.5 14.5t14.5 34.5zM406 446q12 -6 10 -27q-2 -17 12 -18q8 0 10 2l15 15q10 10 21 -1q1 -1 3.5 -3t3.5 -3q9 -10 -1 -20q-6 -8 -10 -11q-12 -9 -4 -19q4 -6 10 -6h7h8.5h6.5q14 0 14 -14v-9q0 -15 -14 -15h-6.5h-8.5
h-7q-4 0 -7 -5q-2 -12 -1 -15q2 -4 8.5 -9.5t8.5 -7.5q9 -11 -5 -25q-12 -12 -22 -2q-1 1 -3 2.5t-3 3t-2 2.5q-10 15 -22 4q-6 -4 -6 -9q-1 0 0 -10v-11q0 -14 -14 -14h-9q-15 0 -15 14v24q-8 2 -12 4q-8 5 -15 -4l-11 -11q-9 -9 -19 0q-11 11 -11.5 17t10.5 17q8 8 6 12
q-1 2 -2.5 6.5t-2.5 6.5t-4.5 3.5t-8.5 0.5h-4q-29 0 -21 28q2 5 8 9q3 1 10 1q13 0 16.5 2.5t6.5 15.5q0 2 -2 6q-4 6 -7 8q-9 8 -10 14.5t2 10t12 10.5q5 3 14 -1q6 -1 10 -8q8 -11 21 -5q9 4 8 13v12q-1 12 10 19h18zM397 364q-12 0 -21.5 -9.5t-9.5 -21.5q0 -13 9 -22
t22 -9t22 9.5t9 22.5q0 12 -9.5 21t-21.5 9z" />
    <glyph glyph-name="uniE02F" unicode="&#xe02f;" horiz-adv-x="510" 
d="M202 -58q-76 16 -130 71q-53 54 -68 127q-10 52 0 105q25 113 124 170q57 32 127 32q108 0 183 -76q53 -55 68 -126q10 -53 0 -105q-15 -73 -68 -127q-56 -56 -131 -71q-53 -11 -105 0zM275 12l5 6q4 7 6 9q7 9 6 13q-1 6 4 10q16 14 19.5 18.5t3.5 12.5q0 13 -3 22
q-3 13 2 22q4 8 20 28q24 33 24 53q0 10 -14 1q-20 -13 -29 -1q-9 14 -11 15q-11 5 -21 27q-4 11 -10 18q-4 5 -6 10t-2 7.5t1 3.5q4 0 13 -9t13 -17q5 -12 13 -18q7 -6 11 -18q2 -6 7 -10t8 0q5 0 9 1.5t6.5 4.5t3.5 4.5t3 5.5l2 4q1 3 7 6q4 2 7 12q4 12 1 17t-9 7
q-1 1 -2.5 -0.5t-1.5 0.5q-4 -3 -6.5 -3.5t-4 0.5t-4 3t-5.5 3q-1 0 -2 1.5t-2 1.5q-2 0 -10 7.5t-8 9.5q0 4 13 -4q8 -5 17 -3q6 1 15 -3q9 -5 17 -3q4 1 5.5 1t2 -0.5t2 -2.5t3.5 -3q8 -6 12 -10q5 -5 7 -2q2 4 8 -8q3 -5 8 -15q17 -33 0 12q-15 41 -50 72.5t-79 42.5
q-26 7 -57 5t-43 -10q-6 -4 -12 -6q-7 -2 -12 -14q-3 -6 -10 -7q-2 0 -6.5 1t-6.5 -2q-4 -3 -5 -5t-1 -3.5t-1 -3.5q-4 -7 -1 -14q1 -4 2 -5.5t-2.5 -5t-6.5 -6l-9 -7.5t-11 -10q-20 -20 -26.5 -30t-10.5 -26q-8 -35 9 -59q6 -9 14 -9t18 4q17 7 24 0q6 -6 11 -5
q4 1 5.5 -0.5t2.5 -7.5q3 -13 2 -14q-3 -7 14 -27q10 -12 13 -20q4 -7 1 -17q-3 -8 0.5 -14.5t20.5 -27.5l18 -22h18q18 0 23 6zM203 300q-4 3 -7 3q-2 1 -3.5 3.5t-3.5 3.5t-9 1q-6 -2 -11 -5t-7 -4.5t-5 0t-8 7.5q20 4 21 13q1 13 15 20q15 8 20 -2q3 -5 -2 -12q2 0 4 -1
q3 -1 3 3q0 1 2 3.5t3 2.5q3 0 -4 7q-6 6 -4 9q3 6 12 -10q2 -4 4 -9q4 -9 5 -9q2 0 2 10q0 6 4 6t5 -6q2 -12 18 -9q10 2 11 -2v-13q-1 -6 -1.5 -7t-4.5 0t-9 -1q-4 -3 -16 1q-17 6 -21 -4q-3 -7 -13 1zM197 342l-1 -2l-2 -2q-3 -4 -3 -7q0 -1 3 3t3 8zM306 334q-4 2 -4 7
q0 3 -9 10q-8 7 -6 11q5 6 7 -1q0 -3 11 -12q9 -8 12 -13q3 -4 -3 -4q-4 0 -8 2zM244 344q-3 6 4 15q1 1 10.5 -2.5t13.5 -5.5q11 -6 -6 -6q-13 0 -16 -1q-4 -2 -6 0zM309 360q-2 3 0 3.5t4 -2.5q3 -3 0 -3q-2 0 -4 2zM334 37q4 4 10 18q4 10 9 17q4 4 4 10l-1 6l-5 -8
q-7 -9 -13 -13q-8 -5 -8 -10q0 -3 -2 0q-2 -1 -3 -3q0 -11 -1 -15q-1 -5 0 -7t3.5 -0.5t6.5 5.5zM326 69q1 4 0.5 4t-2.5 -1q-4 -3 -3 -7q2 -8 5 4z" />
    <glyph glyph-name="uniE030" unicode="&#xe030;" horiz-adv-x="509" 
d="M64 64h31q30 0 32 -30q2 -33 0 -67q-2 -28 -30 -30q-33 -1 -66 0q-14 1 -22.5 10t-8.5 22v63q0 14 9.5 23t23.5 9h31zM509 1q0 -5 -0.5 -15.5t-0.5 -15.5q0 -14 -8.5 -23t-21.5 -10q-33 -1 -66 0q-28 2 -30 30q-2 33 0 66q1 14 10 22.5t22 8.5h62q14 0 23 -9t9 -23
q0 -5 0.5 -15.5t0.5 -15.5zM255 64h30q14 0 23.5 -9t9.5 -23q2 -32 0 -64q0 -14 -9 -22.5t-22 -8.5q-33 -1 -65 0q-14 1 -22.5 10t-8.5 22v62q0 14 9.5 23.5t23.5 9.5h31zM254 128h-30q-14 0 -23.5 8.5t-9.5 22.5q-2 32 0 64q1 14 10 22.5t22 8.5h62q14 0 23.5 -9t9.5 -23
v-61q0 -15 -9 -24t-24 -9h-31zM63 128h-32q-13 1 -21.5 9t-8.5 21v65q0 13 8.5 22t22.5 9h65q12 0 20.5 -7.5t9.5 -20.5q2 -35 0 -70q-1 -12 -9.5 -20t-21.5 -8h-33zM446 254h31q13 0 22 -9t9 -22v-63q0 -14 -9 -23t-23 -9h-63q-13 0 -21.5 8t-9.5 21q-2 33 0 67q2 30 32 30
h32zM98 446q18 -7 23.5 -15t5.5 -28v-49q0 -36 -35 -36h-57q-16 0 -25.5 9t-9.5 25v50q-3 34 28 44h70zM481 448q30 -9 28 -44q-1 -17 -1 -51q0 -15 -9 -24t-24 -9h-61q-13 0 -22 8.5t-10 22.5v65q0 23 28 32h71zM288 446q19 -7 24.5 -15t5.5 -29v-50q0 -34 -34 -34h-59
q-34 0 -34 34v50q0 21 5 29t24 15h68z" />
    <glyph glyph-name="uniE031" unicode="&#xe031;" horiz-adv-x="509" 
d="M254 444q106 1 181.5 -76t73.5 -183q-2 -104 -78.5 -177.5t-182.5 -71.5q-104 2 -177.5 78.5t-70.5 182.5q3 102 77.5 175t176.5 72zM381 190q0 52 -36.5 89t-88.5 37q-53 0 -90.5 -36.5t-37.5 -88.5q0 -53 36.5 -90t89.5 -37t90 36.5t37 89.5zM51 276q-19 -37 -18.5 -88
t18.5 -84q9 4 28 12t28 12q-24 62 0 124q-20 8 -56 24zM401 252q24 -63 0 -124q20 -8 58 -24q18 42 17.5 90.5t-18.5 81.5zM340 -15q-8 20 -24 58q-62 -24 -123 0q-4 -9 -12.5 -28.5t-12.5 -29.5q86 -34 172 0zM168 395q9 -20 25 -58q61 24 123 0q4 10 12 29t12 29
q-86 34 -172 0z" />
    <glyph glyph-name="uniE032" unicode="&#xe032;" horiz-adv-x="496" 
d="M496 226q-7 -9 -20.5 -26t-19.5 -25q-16 12 -26 19v-232h-363v233q-23 -16 -28 -20q-4 6 -12 16t-14.5 18.5t-12.5 16.5q20 16 60 46q105 80 178 137q10 8 20 -1q25 -20 75 -58q2 -2 8 -5v62h65v-18q0 -14 -0.5 -41.5t-0.5 -41.5q0 -12 9 -18q15 -11 43 -32t39 -30z
M248 329q-26 -20 -74 -56t-68 -52q-4 -4 -4 -11v-204q0 -2 0.5 -4t0.5 -4h81v134h129v-134h80q0 1 1 2v2v211q0 5 -6 9q-26 21 -44 34q-18 14 -51 39t-45 34z" />
    <glyph glyph-name="uniE033" unicode="&#xe033;" 
d="M0 352q2 0 7 -0.5t7 -0.5h485h13v-352h-13h-485q-2 0 -7 -0.5t-7 -0.5v354zM480 318h-447v-286h447v286zM436 98v-30h-369v30h369zM211 151h-146q-2 13 0.5 18.5t14.5 10.5q10 5 32 13q11 4 7 15q-1 5 -5 13t-5 9q-3 6 -3 12q0 7 2 21q2 11 11.5 18t21.5 6t19.5 -9
t6.5 -20q0 -2 1 -6.5t1 -6.5q0 -7 -3 -15l-9 -24q-3 -9 7 -12q5 -2 15 -6.5t15 -6.5q12 -5 15 -10.5t2 -19.5zM257 222h191v-30h-191v30zM257 158h159v-30h-159v30zM384 286v-30h-127v30h127z" />
    <glyph glyph-name="uniE034" unicode="&#xe034;" horiz-adv-x="491" 
d="M491 190q0 -103 -72 -174t-176 -71q-101 0 -172 72t-71 174q0 103 72 174t176 71q100 0 171.5 -72.5t71.5 -173.5zM281 93q-1 2 -1 3v92v78q0 17 -15 17h-85q-14 0 -14 -15v-29q0 -15 15 -15h22v-131h-22q-14 0 -14 -14v-32q0 -14 13 -14h18h100q11 0 15 4t4 15v24
q0 17 -17 17h-19zM241 392q-19 0 -33 -14t-14 -33t14 -32.5t34 -13.5q19 0 32.5 14t13.5 33t-13.5 32.5t-33.5 13.5z" />
    <glyph glyph-name="uniE035" unicode="&#xe035;" 
d="M0 343v68h512h-512h512v-68h-444v-307h444v-69h-512v376zM166 83v12q16 0 22 3q4 2 5 6t1 39v91v42h-22q-21 0 -29 -1l-6 -1q-1 -1 -1 -6q-3 -21 -3 -23h-12q0 9 -0.5 17t-0.5 12.5v5.5q0 4 -2 14l2 2q2 0 7 -0.5t8 -0.5t19 -0.5t31 -0.5h62q15 0 32 0.5t19 0.5t7 0.5
t7 0.5l2 -2q-2 -12 -2 -16v-2v-4t-0.5 -6.5t-0.5 -9v-11.5h-12q0 8 -2 22l-2 7h-1q-2 1 -4 1q-8 1 -30 1h-22v-42v-91q0 -35 1 -39t5 -6q6 -3 22 -3v-12q-20 1 -50 1q-31 0 -50 -1zM338 296h4v-213h-4v213z" />
    <glyph glyph-name="uniE036" unicode="&#xe036;" horiz-adv-x="510" 
d="M394 195q0 40 28 69t69 29q7 0 19 -2v-192q-12 -2 -19 -2q-41 0 -69 29t-28 69zM361 195q0 -53 38 -90.5t90 -37.5q7 0 21 2v-79q0 -21 -15 -36t-36 -15h-408q-21 0 -36 15t-15 36v408q0 21 15 36t36 15h408q21 0 36 -15t15 -36v-77q-6 1 -19 1q-54 0 -92 -37t-38 -90z
M287 58v243q0 17 -16 17q-7 0 -12.5 -5t-5.5 -12v-245q0 -34 -11.5 -49.5t-41.5 -15.5h-16q-14 0 -14 -15q0 -13 14 -13h18q85 0 85 95zM271 372q8 0 14 6t6 14t-6 14.5t-14 6.5t-14.5 -6.5t-6.5 -14.5t6.5 -14t14.5 -6z" />
    <glyph glyph-name="uniE037" unicode="&#xe037;" horiz-adv-x="448" 
d="M0 -7l24 72q1 3 8 10q19 19 53 53.5t62.5 62.5t53.5 53q7 7 5 16q-14 53 14.5 98.5t82.5 55.5q52 10 95 -23t49 -86q7 -65 -43 -107.5t-113 -24.5q-9 3 -15 -4q-5 -5 -14.5 -14t-13.5 -13q5 -4 14 -11.5t13 -10.5l-52 -52q-8 8 -26 24q-16 -14 -24 -22q-3 -3 -3 -9v-36
q0 -7 -7 -10q-38 -14 -43 -15q-24 -6 -39 -26q-5 -7 -15 -4q-3 1 -66 23zM349 338q-9 0 -15 -6t-6 -15t6.5 -15.5t15.5 -6.5q8 0 14.5 7t6.5 15q0 9 -6.5 15t-15.5 6z" />
    <glyph glyph-name="uniE038" unicode="&#xe038;" horiz-adv-x="510" 
d="M0 368h351v-32h-351v32zM0 304h510v-32h-510v32zM0 240h383v-32h-383v32zM0 177h479v-32h-479v32zM0 113h351v-32h-351v32zM0 49h447v-32h-447v32z" />
    <glyph glyph-name="uniE039" unicode="&#xe039;" horiz-adv-x="479" 
d="M479 -33h-479v415h479v-415zM415 318h-351v-286h351v286zM324 99q-44 46 -65 68q-9 -9 -20 -19.5t-24.5 -23t-20.5 -19.5q-38 40 -59 61q-13 -24 -23 -43q-10 -18 -24 -10t-5 25q28 52 43 79q12 -12 33.5 -34.5t32.5 -33.5q23 23 65 63q10 -9 30 -27.5t30 -27.5q1 1 3 7
q8 15 23.5 45.5t22.5 45.5q0 1 1 3.5t2 3.5q9 14 22 7t7 -21l-36 -72q-6 -12 -19 -37.5t-19 -39.5z" />
    <glyph glyph-name="uniE03A" unicode="&#xe03a;" 
d="M0 210q11 32 29 47q22 18 50 18h93q61 0 81 -58q2 -5 3 -8l4 12q8 25 28.5 39.5t46.5 14.5h97q34 0 57 -23t23 -57q0 -38 -2 -49q-5 -28 -27 -45.5t-51 -17.5h-94q-60 0 -79 57q-1 1 -2 7q-1 -4 -3 -10q-7 -26 -28 -42.5t-49 -16.5h-94q-62 0 -81 60q0 2 -2 4v68z
M206 147h-28q-15 0 -24.5 9t-9.5 23t9.5 23t25.5 9h24q-11 15 -24 15h-51q-50 1 -50 0q-28 0 -30 -29q-1 -13 1 -41q1 -13 9 -21.5t21 -8.5h98q19 0 29 21zM309 147q11 -15 24 -15h51q50 -1 50 0q28 0 30 29q1 17 0 35q-1 12 -9 21t-19 9q-52 1 -104 0q-14 0 -23 -15h24
q16 0 25.5 -9t9.5 -23t-9.5 -23t-25.5 -9h-24z" />
    <glyph glyph-name="uniE03B" unicode="&#xe03b;" horiz-adv-x="509" 
d="M481 446q31 -10 28 -44q0 -2 -0.5 -7t-0.5 -7q-1 -12 -9 -20.5t-20 -9.5h-9h-431q-39 0 -39 39v5q-3 34 28 44h453zM254 77h-216q-38 0 -38 38v16q0 15 9.5 24t24.5 9h109h328q38 0 38 -37v-16q0 -16 -9.5 -25t-25.5 -9h-62h-158zM254 -63h-216q-38 0 -38 38v19
q1 12 10 20.5t21 9.5h8h432q38 0 38 -38v-15q0 -16 -9.5 -25t-26.5 -9h-219zM254 304h217q38 0 38 -37v-15q0 -16 -9.5 -25t-25.5 -9h-150h-286q-38 0 -38 37v14q0 35 36 35h218z" />
    <glyph glyph-name="uniE03C" unicode="&#xe03c;" horiz-adv-x="351" 
d="M319 231h32v-287h-351v287h31v42q0 63 45 105.5t108 39.5q58 -3 96.5 -44t38.5 -99v-44zM255 231v14.5v17v14.5q-1 24 -16 44t-38 28t-46 1.5t-40 -24.5q-7 -8 -11.5 -16.5t-6 -20t-2 -18t0 -21t0.5 -19.5h159zM145 8h52q-2 9 -5.5 29t-5.5 31t5 18q7 8 6.5 18t-8.5 18
q-7 7 -18 6.5t-18 -7.5q-8 -8 -8 -18t7 -17q6 -6 4 -17t-5.5 -31.5t-5.5 -29.5z" />
    <glyph glyph-name="uniE03D" unicode="&#xe03d;" 
d="M29 352h456q-77 -68 -229 -202q-150 134 -227 202zM324 168q43 -38 154 -134h-447q114 97 157 134q48 -42 68 -60q48 42 68 60zM509 331q4 -11 3 -142t-5 -139q-59 51 -158 139q12 10 160 142zM0 328q2 5 9 0q20 -17 58.5 -52t57.5 -52q26 -22 39 -34q-116 -99 -160 -137
q0 1 -2 2.5t-2 2.5v270z" />
    <glyph glyph-name="uniE03E" unicode="&#xe03e;" horiz-adv-x="462" 
d="M170 191q15 -8 57.5 -30.5t65.5 -34.5q1 0 3.5 -1.5t3.5 -2.5q26 -16 50 -4q25 11 51 3t43 -30q37 -47 4 -99q-15 -23 -41 -32t-52 -2q-27 8 -44 29.5t-18 49.5q0 8 -7 12l-138 72q-8 4 -15 -1q-22 -16 -48 -16.5t-48 14.5q-48 32 -35 89q5 25 24.5 42.5t45.5 21.5
q31 5 55 -11q8 -5 17 -1q94 50 141 74q9 5 9 13q2 34 25 55.5t57 23.5q32 1 57.5 -21.5t28.5 -55.5q3 -32 -17 -58t-51 -32q-32 -6 -61 11q-7 5 -12 1q-49 -25 -145 -75z" />
    <glyph glyph-name="uniE03F" unicode="&#xe03f;" horiz-adv-x="416" 
d="M0 447h136h135l73 -73l72 -72v-183v-182h-208h-208v255v255zM64 385v-193v-193h144h144v137v138l-7 7l-8 8h-40h-41v40v41l-7 7l-8 8h-88h-89z" />
    <glyph glyph-name="uniE040" unicode="&#xe040;" horiz-adv-x="444" 
d="M96 445h114h114l60 -65l60 -64v-142v-141h-48h-48v-47v-47h-174h-174v206v206h48h48v47v47zM159 382l-1 -142v-143h111h111v95v95h-47h-47v47l-1 48h-63h-63zM64 287v-143v-143h111h111v16v16h-95h-95v127v127h-16h-16z" />
    <glyph glyph-name="uniE041" unicode="&#xe041;" horiz-adv-x="474" 
d="M425 269q20 0 34.5 -14.5t14.5 -34.5v-205h-128v156q-41 -35 -99 -41h-2q-9 0 -16 6t-8 15q-1 10 5 17.5t16 8.5q26 3 46.5 13t28 17.5t20.5 23.5q14 18 26 26h1q15 12 31 12h30zM207 149q1 -6 7 -16q-51 9 -86 38v-156h-128v205q0 20 14.5 34.5t34.5 14.5h30
q16 0 31 -12h1q12 -8 26 -26q34 -43 81 -52q-12 -12 -11 -30zM356 336q0 22 16 38t38 16t38 -16t16 -38t-16 -38t-38 -16t-38 16t-16 38zM118 336q0 -22 -16 -38t-38 -16t-38 16t-16 38t16 38t38 16t38 -16t16 -38z" />
    <glyph glyph-name="uniE042" unicode="&#xe042;" horiz-adv-x="385" 
d="M227 322q16 -17 48 -49.5t48 -48.5l-24 -24q-29 -29 -86.5 -86t-85.5 -85q-12 -12 -29 -15q-9 -1 -80 -15q-12 -2 -15.5 1.5t-1.5 15.5q3 15 8.5 45t8.5 45q2 11 8 17q65 66 197 196l1 1q2 1 3 2zM80 59q-6 6 -17.5 18t-17.5 19q-1 -6 -4.5 -22.5t-4.5 -24.5
q-1 -7 5.5 -13.5t13.5 -5.5q1 0 15.5 2t21.5 4q9 2 14 7q29 28 86.5 85t85.5 86q1 1 3 4l2 2l-21 24q-31 -31 -91.5 -92.5t-90.5 -92.5zM347 247q-17 17 -49 49.5t-47 47.5q20 22 33 34q12 11 27 -2q11 -11 33 -32.5t33 -32.5q17 -17 -1 -34q-9 -10 -29 -30z" />
    <glyph glyph-name="uniE043" unicode="&#xe043;" horiz-adv-x="511" 
d="M0 72q0 3 1 10t2 10q2 17 17 25q5 2 47 21q10 4 29.5 12.5t28.5 12.5q7 3 7 10q0 30 -8 39q-3 3 -5 12q-7 18 -13 22q-9 6 -9 19.5t8 21.5q3 3 3 7q0 1 -0.5 3.5t-0.5 3.5q-8 42 21.5 64t63.5 14q29 -6 43.5 -26t10.5 -49q-2 -14 4 -20q8 -8 4.5 -22t-13.5 -20
q-3 -2 -5 -7q-12 -26 -13 -32q-2 -8 -2 -36q0 -2 9 -5q10 -4 37.5 -16t42.5 -18q42 -16 41 -56v-73h-11h-329q-2 0 -5.5 0.5t-5.5 0.5v72zM510 -1h-115v26q-1 16 -2.5 47t-2.5 46q0 5 -4 15q-5 15 -20 17q-6 1 -17 2.5t-17 2.5l-12 3q16 15 24 20q-2 5 -4 10.5t-4.5 12
t-3.5 10.5q-3 6 -5 7q-9 6 -11 18.5t5 20.5q3 3 3 9q0 3 -1 12t0 14q3 23 23.5 37.5t46.5 11.5q33 -3 50 -30q7 -11 5 -44q0 -4 4 -10q6 -7 4 -20.5t-10 -18.5l-6 -9q-9 -19 -11 -26q-2 -11 -2 -33q0 -1 6 -4q6 -2 17.5 -8t17.5 -8q41 -17 42 -59v-72z" />
    <glyph glyph-name="uniE044" unicode="&#xe044;" horiz-adv-x="497" 
d="M235 446h28q4 -2 6 -2q36 -7 60 -34t18 -66l-3 -27q15 -8 15 -39q-2 -24 -24 -30q-8 -40 -22 -56q-2 -4 -2 -7v-35q0 -8 7 -11q13 -6 38.5 -17t38.5 -16q50 -22 75 -34q17 -8 22 -28q5 -26 5 -108h-497q0 48 1 71q1 40 10 52.5t46 28.5t111 46q22 8 18 28v6.5v8v7.5
q0 6 -3 9q-16 20 -21 50q0 4 -4 6q-14 4 -20 24q-4 13 0.5 25.5t13.5 17.5q-1 4 -1.5 13t-0.5 13q-8 65 49 92q5 2 11 4l13.5 4.5t11.5 3.5z" />
    <glyph glyph-name="uniE045" unicode="&#xe045;" horiz-adv-x="256" 
d="M0 190v140q0 19 12.5 32t31.5 13q84 1 168 0q19 0 31.5 -13t12.5 -32v-281q0 -19 -12.5 -32.5t-30.5 -13.5q-85 -1 -170 0q-18 0 -30.5 13.5t-12.5 32.5v141zM48 308v-238h160v238h-160zM128 331h33q13 0 13 11t-13 11h-66q-13 0 -13 -11t13 -11h33zM146 36q0 16 -17 16
t-19 -15q-1 -7 4.5 -12.5t13.5 -5.5q7 0 12.5 5t5.5 12z" />
    <glyph glyph-name="uniE046" unicode="&#xe046;" horiz-adv-x="491" 
d="M491 189q0 -104 -74.5 -175.5t-177.5 -69.5q-100 2 -170 74.5t-69 174.5q2 102 76 173t176 68q98 -2 168.5 -73t70.5 -172zM90 144h112v-110h88v111h110v89h-110v110h-89v-110h-111v-90z" />
    <glyph glyph-name="uniE047" unicode="&#xe047;" horiz-adv-x="453" 
d="M319 381q64 -26 104 -93t27 -147q-14 -86 -79 -140t-151 -52q-83 2 -145.5 59t-72.5 140q-10 84 32 147.5t100 85.5q0 -28 1 -42q3 -35 -23 -62q-64 -67 -30 -156q34 -88 128 -99q52 -6 95.5 19.5t63.5 73.5q20 46 8 95.5t-51 82.5q-7 7 -7 16v72zM273 279v-118
q0 -36 -34 -37q-18 0 -27 1q-32 3 -32 34v98v138q0 38 38 38h22q33 -2 33 -34v-120z" />
    <glyph glyph-name="uniE048" unicode="&#xe048;" horiz-adv-x="491" 
d="M491 190q0 -103 -72 -174t-176 -71q-100 0 -171.5 72t-71.5 173q0 103 72 174.5t175 71.5q100 0 172 -72.5t72 -173.5zM198 163v-27q0 -19 19 -20q17 -2 33 0q12 1 15.5 5t2.5 15q-3 25 22 35q58 24 55 88q-3 62 -58 84q-34 13 -70 4q-32 -8 -58 -19q-14 -6 -8 -24
q1 -5 5 -13.5t5 -12.5q6 -18 24 -10q32 13 52 12q17 -1 25 -11.5t1 -26.5q-4 -11 -20 -19q-5 -3 -16 -6.5t-14 -4.5q-15 -6 -15 -22v-27zM283 40q0 20 -14 34.5t-33 14.5q-20 0 -34.5 -14t-14.5 -34t13.5 -34t33.5 -14t34.5 14t14.5 33z" />
    <glyph glyph-name="uniE049" unicode="&#xe049;" horiz-adv-x="499" 
d="M102 254q-10 4 -29 12t-29 12q24 55 69 90q81 62 181.5 42t150.5 -109q4 -8 13 -8q10 1 31 1q7 0 9 -4t-2 -10q-56 -82 -85 -123q-9 -12 -19 2l-60 87q-16 22 -23 33q-10 15 8 15h56q-48 55 -121 57q-42 1 -83 -21.5t-67 -75.5zM135 80q34 -37 85 -46.5t101.5 14.5
t76.5 80q8 -4 28 -11.5t31 -12.5q-12 -24 -16 -30q-42 -69 -115.5 -95t-147.5 -1t-117 93q-6 10 -17 9q-16 -2 -33 0q-9 0 -11 5q-2 3 3 10q13 18 40.5 54.5t40.5 54.5q11 14 22 0q13 -18 40.5 -54.5t40.5 -54.5q5 -7 3 -10q-2 -5 -10 -5h-45z" />
    <glyph glyph-name="uniE04A" unicode="&#xe04a;" horiz-adv-x="508" 
d="M4 443q131 1 246.5 -64.5t186 -182.5t71.5 -255h-88q-1 5 -3 29.5t-5 37.5q-54 260 -309 333q-7 2 -90 13q-9 2 -9 7v82zM5 180q0 2 -0.5 4.5t-0.5 3.5v82q123 -3 217 -85q58 -51 86 -118.5t26 -126.5h-89q-5 102 -71 168q-67 67 -168 72zM136 4q0 -28 -20 -48t-48 -20
t-48 20t-20 48t20 48t48 20t48 -20t20 -48z" />
    <glyph glyph-name="uniE04B" unicode="&#xe04b;" horiz-adv-x="495" 
d="M324 48q-50 -34 -109 -35q-86 -2 -148 55t-67 142q-5 94 62.5 159.5t161.5 58.5q54 -4 98.5 -33t67 -72t27 -95t-22.5 -101q-4 -8 3 -15q42 -41 83 -83q17 -17 15.5 -39t-20.5 -36q-14 -10 -32 -8.5t-32 15.5l-80 80zM64 220q1 -61 43.5 -102t103.5 -41q58 0 100.5 43.5
t40.5 105.5q-2 57 -45.5 98.5t-103.5 40.5q-56 -2 -98 -45t-41 -100z" />
    <glyph glyph-name="uniE04C" unicode="&#xe04c;" horiz-adv-x="465" 
d="M46 -45l-46 46q15 15 45.5 45t46.5 46q-9 9 -27 26.5t-28 27.5h153v-147q-8 8 -25 24.5t-26 25.5q-17 -17 -47.5 -48t-45.5 -46zM326 327l94 94q7 -7 22 -21.5t23 -22.5l-91 -91l51 -51l-1 -1v-2h-149v146z" />
    <glyph glyph-name="uniE04D" unicode="&#xe04d;" horiz-adv-x="416" 
d="M416 189v-179q0 -26 -17 -43.5t-43 -17.5h-296q-26 0 -43 17.5t-17 42.5v360q0 26 17 43t42 17h298q25 0 42 -17t17 -42v-181zM356 368h-296v-329h296v329zM179 8v-28h58v28h-58z" />
    <glyph glyph-name="uniE04E" unicode="&#xe04e;" horiz-adv-x="460" 
d="M201 -39l-201 201q1 1 3 3.5t3 3.5q41 41 123 122.5t123 122.5q7 7 15 7q49 1 98 0q7 0 15 -6q26 -24 74 -75q6 -6 6 -13v-100q0 -8 -4 -12q-37 -38 -79.5 -80t-94 -93.5l-79.5 -79.5q-1 -1 -2 -1zM346 262q19 0 32.5 13t13.5 32t-13.5 32t-32.5 13t-32.5 -13t-13.5 -32
t13.5 -32t32.5 -13z" />
    <glyph glyph-name="uniE04F" unicode="&#xe04f;" horiz-adv-x="479" 
d="M30 171h-30v32h30q27 166 193 193v30h33v-30q166 -27 193 -193h30v-32h-30q-27 -166 -193 -193v-30h-32v30q-167 27 -194 193zM414 203q-4 63 -51.5 109.5t-106.5 48.5v-93h-33v94q-70 -6 -113.5 -56.5t-43.5 -102.5h93v-32h-93q2 -57 47.5 -105.5t110.5 -53.5v94h32v-93
q58 1 111.5 55t45.5 103h-93v32h94z" />
    <glyph glyph-name="uniE050" unicode="&#xe050;" horiz-adv-x="465" 
d="M114 -62v30q45 2 52 6q8 5 11 14q4 13 4 94v217q0 92 -1 99h-52q-49 0 -69 -2q-13 -2 -14 -3q-2 -1 -4 -13q-5 -28 -5 -57h-31q-1 50 -1 84q-2 22 -4 34l3 4q33 -3 36 -3q21 -1 120 -1h147q101 0 122 1q5 0 10.5 0.5t12 1.5t10.5 1l4 -4q-4 -30 -4 -39l-1 -9
q0 -9 -0.5 -28.5t-0.5 -41.5h-30q0 31 -4 54q-1 12 -5 16q-2 2 -12 2q-30 3 -71 3h-52q-1 -8 -1 -99v-217q0 -79 4 -94q3 -10 11 -14q9 -5 52 -6v-30q-71 3 -119 3q-50 0 -118 -3z" />
    <glyph glyph-name="uniE051" unicode="&#xe051;" horiz-adv-x="288" 
d="M222 448h66v-512h-66q-5 27 -27 45.5t-51 18.5t-51 -18.5t-27 -45.5h-66v512h66q-2 -10 -2 -16q0 -33 23.5 -56.5t56.5 -23.5t56.5 23.5t23.5 56.5q0 6 -2 16zM64 224v32h-32v-32h32zM128 224v32h-32v-32h32zM192 224v32h-32v-32h32zM256 224v32h-32v-32h32z" />
    <glyph glyph-name="uniE052" unicode="&#xe052;" horiz-adv-x="412" 
d="M150 446h118q6 -2 8 -2q30 -3 38 -32q2 -12 2 -18v-44h14h65q17 0 17 -15v-34q0 -12 -13 -15t-16 -6.5t-3 -16.5v-303q0 -14 -4 -18.5t-18 -4.5h-303q-14 0 -18.5 4.5t-4.5 18.5v304q0 11 -3.5 15.5t-14.5 6.5q-14 3 -14 17v15q0 24 4 28t28 4h64v50q1 36 37 43
q3 1 8.5 2t8.5 1zM222 134v109v8q-2 16 -16 16t-16 -16v-5v-224v-6q2 -15 16 -15t16 15v8v110zM96 135v-115q0 -19 15 -19t15 19v228q0 19 -15 19t-15 -19v-113zM316 134v114q0 19 -15 19t-15 -19v-228q0 -19 15 -19t15 19v114zM159 351h94v30h-94v-30z" />
    <glyph glyph-name="uniE053" unicode="&#xe053;" 
d="M0 232h221q1 0 3 1v47q0 49 29 87t76 52q68 20 125.5 -23.5t57.5 -114.5v-49h-64v52q-1 27 -19.5 48t-45.5 26q-35 6 -63 -15t-31 -56v-17v-20.5v-17.5h62v-289h-12h-326q-2 0 -6.5 -0.5t-6.5 -0.5v290zM201 8q-8 42 -12 62q-3 12 5 19q7 7 7 17t-8 18q-18 18 -37 1
q-8 -7 -8.5 -17.5t6.5 -17.5q9 -8 5 -22q-2 -10 -5.5 -30t-5.5 -30h53z" />
    <glyph glyph-name="uniE054" unicode="&#xe054;" horiz-adv-x="317" 
d="M0 173q78 84 153 165q28 -28 82.5 -83t81.5 -82h-61v-128h-192v128h-64z" />
    <glyph glyph-name="uniE055" unicode="&#xe055;" 
d="M0 38v302q9 25 34 25h283q35 0 35 -35v-67q0 -33 28 -16q90 54 104 62q13 7 20.5 2.5t7.5 -18.5v-207q0 -14 -8 -18.5t-20 2.5q-31 18 -34 20q-64 38 -74 44q-20 12 -23 -11q-1 -3 -1 -10v-61q0 -39 -39 -39h-274q-29 0 -39 25z" />
    <glyph glyph-name="uniE056" unicode="&#xe056;" horiz-adv-x="469" 
d="M308 323l65 -65q-46 -45 -97 -96.5t-114 -114.5l-97 -97l-65 65zM262 192q11 11 33 33.5t33 33.5l-20 20l-66 -66l10 -10t10 -11zM406 238v30h63v-30h-63zM306 353h-31v63h31v-63zM399 329l-6.5 6.5l-7.5 7.5l-6 6q7 8 22 22.5t23 21.5q3 -3 9 -10t9 -10q-7 -7 -21 -21.5
t-22 -22.5zM174 371l43 -43q-14 -14 -20 -21l-44 44q3 3 10 9.5t11 10.5zM399 105q-28 28 -43 42q4 4 11 10.5t10 9.5l44 -44q-3 -3 -10.5 -9t-11.5 -9z" />
    <glyph glyph-name="uniE057" unicode="&#xe057;" horiz-adv-x="478" 
d="M223 448h64v-32h191v-319h-191v-13v-47l126 -99h-31l-95 65v-1h-64v1l-95 -65h-31l126 99v47v13h-223v319h223v32zM32 344v-215h188h76h150v215h-414zM359 304h2q17 0 29.5 -12t12.5 -29t-12.5 -29.5t-29.5 -12.5t-29.5 12.5t-12.5 29.5q0 16 11.5 28t28.5 13zM267 296h3
q8 -2 6 -10l-44 -136l-48 78l-47 -73l-45 70l-21 -58q-2 -9 -10 -5q-7 2 -5 10l31 89l50 -77l47 74l43 -70l33 103q2 5 7 5zM319 193h32v-32h-32v32zM383 193h31v-32h-31v32z" />
    <glyph glyph-name="uniE058" unicode="&#xe058;" horiz-adv-x="469" 
d="M465 339q14 -58 -23 -101q-43 -51 -111 -40q-5 2 -11 -4q-21 -20 -62.5 -61t-62.5 -62q-5 -5 -5 -15q2 -49 -36 -79t-84 -17q28 28 42 41q9 8 6 21q-2 6 -4.5 18t-3.5 18q-2 7 -9 9q-8 2 -23 5.5t-17 3.5q-7 2 -14 -5l-36 -36q-4 -4 -7 -6q-10 31 5.5 63.5t47.5 46.5
q27 11 51 7q7 0 10 3l120 120q5 5 3 11q-16 61 22.5 106.5t100.5 40.5q3 0 6 -0.5t6.5 -1.5t6.5 -1q-2 -2 -4 -4.5t-3 -3.5q-8 -9 -24.5 -25t-24.5 -24q-4 -7 -3 -11q3 -18 11 -54q2 -6 8 -8q27 -8 54 -12q5 -2 11 4q9 9 27 27.5t27 27.5q0 -1 1 -1t2 -1z" />
  </font>
</defs>
</svg>
