<?xml version="1.0" encoding="utf-8"?> <!-- Generator: IcoMoon.io --> <!DOCTYPE svg PUBLIC "-//W3C//DTD SVG 1.1//EN" "http://www.w3.org/Graphics/SVG/1.1/DTD/svg11.dtd"> <svg version="1.1" id="Layer_1" xmlns="http://www.w3.org/2000/svg" xmlns:xlink="http://www.w3.org/1999/xlink" x="0px" y="0px" width="96px" height="96px" viewBox="0 0 96 96" enable-background="new 0 0 16 16" xml:space="preserve"> <path d="M 12,0C 18.252,0, 12,0, 12,0l0,96 c0,0, 6.378,0, 0.192,0C 6,96,0,90,0,83.496C0,78.69,0,32.538,0,12C0,4.794, 5.748,0, 12,0z M 96,42l-12,0 L 84,24 c0,0,0,0, 6,0s 6,6.564, 6,6.564L 96,42 zM 96,72l-12,0 l0,18 c0,0,0,0, 6,0s 6-5.814, 6-5.814L 96,72 zM 84,48L 96,48L 96,66L 84,66zM 65.808,0C 59.616,0, 18,0, 18,0l0,96 c0,0, 41.754,0, 48,0s 12-4.794, 12-12c0-20.538,0-66.69,0-71.502C 78,6, 72,0, 65.808,0z M 65.958,60L 47.982,60 L 30,60 c0,0-0.294-3.714, 0.678-5.238c 1.080-1.68, 4.716-2.802, 8.31-4.29c 3.6-1.5, 4.452-2.058, 4.452-2.058l 0.030-3.468 c0,0-1.35-1.056-1.764-4.296c-0.846,0.246-1.734-1.26-1.776-2.052C 39.882,37.836, 40.050,35.736, 41.076,35.94 C 40.866,34.344, 40.716,32.916, 40.794,32.148C 41.058,29.376, 43.782,26.46, 47.982,26.46s 6.93,2.916, 7.188,5.688 c 0.084,0.768-0.078,2.19-0.282,3.786c 1.020-0.204, 1.188,1.902, 1.134,2.658C 55.986,39.378, 55.098,40.884, 54.258,40.644 c-0.414,3.24-1.764,4.284-1.764,4.284l 0.030,3.438c0,0, 0.852,0.522, 4.458,2.028c 3.594,1.494, 7.224,2.688, 8.31,4.368 C 66.258,56.286, 65.958,60, 65.958,60z"></path></svg>