<?xml version="1.0" encoding="utf-8"?> <!-- Generator: IcoMoon.io --> <!DOCTYPE svg PUBLIC "-//W3C//DTD SVG 1.1//EN" "http://www.w3.org/Graphics/SVG/1.1/DTD/svg11.dtd"> <svg version="1.1" id="Layer_1" xmlns="http://www.w3.org/2000/svg" xmlns:xlink="http://www.w3.org/1999/xlink" x="0px" y="0px" width="96px" height="96px" viewBox="0 0 96 96" enable-background="new 0 0 16 16" xml:space="preserve"> <path d="M 83.196,12.798l0,70.398 L 12.798,83.196 L 12.798,12.798 L 83.196,12.798 M 96,0L0,0 l0,96 l 96,0 L 96,0 L 96,0zM 25.602,25.602L 32.004,25.602L 32.004,70.404L 25.602,70.404zM 44.802,25.602L 51.198,25.602L 51.198,70.404L 44.802,70.404zM 64.002,25.602L 70.398,25.602L 70.398,70.404L 64.002,70.404zM 38.4,35.202C 38.4,36.966, 36.96,38.4, 35.202,38.4L 22.398,38.4 C 20.64,38.4, 19.2,36.966, 19.2,35.202l0,0 c0-1.758, 1.44-3.198, 3.198-3.198l 12.798,0 C 36.96,31.998, 38.4,33.438, 38.4,35.202L 38.4,35.202zM 57.6,54.396C 57.6,56.16, 56.16,57.6, 54.396,57.6L 41.598,57.6 C 39.84,57.6, 38.4,56.16, 38.4,54.396l0,0 c0-1.758, 1.44-3.198, 3.198-3.198l 12.798,0 C 56.16,51.198, 57.6,52.638, 57.6,54.396L 57.6,54.396zM 76.8,41.598c0,1.764-1.434,3.204-3.198,3.204l-12.798,0 C 59.040,44.802, 57.6,43.362, 57.6,41.598l0,0 C 57.6,39.84, 59.040,38.4, 60.804,38.4l 12.798,0 C 75.366,38.4, 76.8,39.84, 76.8,41.598L 76.8,41.598z"></path></svg>