<?xml version="1.0" encoding="utf-8"?> <!-- Generator: IcoMoon.io --> <!DOCTYPE svg PUBLIC "-//W3C//DTD SVG 1.1//EN" "http://www.w3.org/Graphics/SVG/1.1/DTD/svg11.dtd"> <svg version="1.1" id="Layer_1" xmlns="http://www.w3.org/2000/svg" xmlns:xlink="http://www.w3.org/1999/xlink" x="0px" y="0px" width="96px" height="96px" viewBox="0 0 96 96" enable-background="new 0 0 16 16" xml:space="preserve"> <path d="M 65.478,0c-0.114,0.678,0,1.488-0.348,2.022c-1.332,2.064-2.82,4.044-4.332,6.186 c 7.542,3.846, 12.798,9.36, 13.968,18.234c-17.94,0-35.628,0-53.526,0c 1.122-8.826, 6.336-14.304, 13.932-18.21 C 33.732,6.174, 32.268,4.224, 30.972,2.178C 30.594,1.59, 30.642,0.732, 30.498,0C 30.876,0, 31.26,0, 31.638,0c 1.536,2.178, 3,4.386, 4.602,6.492 c 0.324,0.432, 1.278,0.792, 1.788,0.642c 6.66-2.058, 13.278-2.058, 19.944,0c 0.48,0.15, 1.44-0.21, 1.782-0.642 C 61.362,4.386, 62.826,2.178, 64.338,0C 64.722,0, 65.1,0, 65.478,0z M 62.496,16.35c-0.018-1.578-1.356-2.784-2.994-2.724 c-1.53,0.060-2.784,1.32-2.76,2.796c 0.012,1.512, 1.44,2.814, 3.012,2.748C 61.272,19.104, 62.52,17.838, 62.496,16.35z M 36.708,19.176 C 38.28,19.182, 39.672,17.82, 39.618,16.326C 39.582,14.862, 38.28,13.644, 36.762,13.626C 35.124,13.62, 33.84,14.874, 33.876,16.458 C 33.912,17.946, 35.178,19.164, 36.708,19.176zM 5.796,34.218c 2.040-3.456, 4.314-4.734, 7.272-4.134 c 2.778,0.582, 4.782,2.94, 4.8,6.030C 17.94,43.698, 17.94,51.288, 17.886,58.878c-0.036,3.042-1.878,5.31-4.608,6.006 c-2.778,0.696-5.502-0.6-6.984-3.3c-0.144-0.276-0.342-0.51-0.504-0.762C 5.796,51.954, 5.796,43.086, 5.796,34.218zM 52.734,77.232c-3.12,0-6.060,0-9.24,0c0,3.786, 0.018,7.506-0.018,11.226 c0,1.008, 0.018,2.046-0.216,3.012c-0.69,2.754-3.162,4.416-6.156,4.338c-2.73-0.096-5.016-1.902-5.502-4.626 c-0.27-1.542-0.252-3.15-0.27-4.728c-0.036-3.024,0-6.060,0-9.348c-1.572,0-3.012,0.012-4.44-0.006 c-3.738-0.036-5.502-1.776-5.502-5.436c0-13.176,0-26.358,0-39.534c0-0.612, 0.048-1.23, 0.090-1.932c 17.814,0, 35.514,0, 53.436,0 c0,0.786,0,1.458,0,2.136c0,12.93, 0.018,25.848,0,38.766c0,4.284-1.71,5.982-5.97,5.994c-1.32,0.006-2.634,0.006-4.146,0.006 c0,4.374, 0.018,8.532-0.018,12.702c-0.036,3.912-3.252,6.576-7.116,5.946c-2.856-0.462-4.86-2.892-4.908-6.102 c-0.054-3.42,0-6.852-0.018-10.272C 52.734,78.714, 52.734,78.024, 52.734,77.232zM 90.18,47.55c0,3.804, 0.018,7.584,0,11.394c-0.018,3.24-2.256,5.784-5.346,6.054 c-3.372,0.294-6.060-1.764-6.636-5.118c-0.054-0.312-0.114-0.624-0.114-0.936c0-7.59-0.054-15.192, 0.018-22.782 c 0.042-3.87, 2.922-6.42, 6.642-6.132c 3.084,0.222, 5.394,2.64, 5.43,5.754C 90.216,39.702, 90.18,43.626, 90.18,47.55z"></path></svg>