<?xml version="1.0" encoding="utf-8"?> <!-- Generator: IcoMoon.io --> <!DOCTYPE svg PUBLIC "-//W3C//DTD SVG 1.1//EN" "http://www.w3.org/Graphics/SVG/1.1/DTD/svg11.dtd"> <svg version="1.1" id="Layer_1" xmlns="http://www.w3.org/2000/svg" xmlns:xlink="http://www.w3.org/1999/xlink" x="0px" y="0px" width="256px" height="256px" viewBox="0 0 256 256" enable-background="new 0 0 256 256" xml:space="preserve"> <path d="M236.457,87.387c-12.23-14.236-26.926-23.708-45.953-25.354c-12.979-1.122-25.017,2.722-36.856,7.362 c-9.468,3.711-19.06,4.449-28.822,1.43c-4.604-1.423-9.144-3.056-13.708-4.609c-11.868-4.039-23.87-5.842-36.294-2.659 c-30.109,7.713-51.858,36.017-52.783,69.188c-1.186,42.528,14.494,78.71,42.723,109.675c14.179,15.552,28.076,17.758,47.41,9.477 c2.291-0.98,4.573-2.012,6.932-2.801c15.449-5.163,30.478-4.013,45.071,3.157c13.72,6.74,26.866,6.029,38.714-3.904 c19.056-15.979,30.927-37.029,41.267-59.203C199.796,171.463,193.585,110.595,236.457,87.387z M129.421,63.442 c34.677,1.047,57.74-37.533,51.886-60.641C149.407,4.672,124.2,37.89,129.421,63.442z" ></path> </svg>