<?xml version="1.0" encoding="utf-8"?> <!-- Generator: IcoMoon.io --> <!DOCTYPE svg PUBLIC "-//W3C//DTD SVG 1.1//EN" "http://www.w3.org/Graphics/SVG/1.1/DTD/svg11.dtd"> <svg version="1.1" id="Layer_1" xmlns="http://www.w3.org/2000/svg" xmlns:xlink="http://www.w3.org/1999/xlink" x="0px" y="0px" width="96px" height="96px" viewBox="0 0 96 96" enable-background="new 0 0 16 16" xml:space="preserve"> <path d="M 0.444,88.272c0-27.474,0-54.792,0-82.272c 31.704,0, 63.342,0, 95.118,0 c0,27.39,0,54.756,0,82.272C 63.918,88.272, 32.274,88.272, 0.444,88.272z M 82.806,75.66c0-19.128,0-38.058,0-56.982 c-23.28,0-46.404,0-69.546,0c0,19.056,0,37.992,0,56.982C 36.498,75.66, 59.574,75.66, 82.806,75.66zM 63.846,69.252c-2.1,0-4.116,0-6.204,0c0-12.666,0-25.218,0-37.884 c 2.094,0, 4.11,0, 6.204,0C 63.846,44.034, 63.846,56.586, 63.846,69.252zM 32.232,69.252c0-8.43,0-16.746,0-25.17c 2.088,0, 4.104,0, 6.198,0 c0,8.418,0,16.74,0,25.17C 36.342,69.252, 34.326,69.252, 32.232,69.252zM 25.728,69.252c-2.094,0-4.116,0-6.204,0c0-6.318,0-12.516,0-18.822 c 2.094,0, 4.11,0, 6.204,0C 25.728,56.736, 25.728,62.934, 25.728,69.252zM 51.114,69.264c-2.13,0-4.098,0-6.156,0c0-6.288,0-12.48,0-18.816 c 2.028,0, 4.044,0, 6.156,0C 51.114,56.706, 51.114,62.892, 51.114,69.264zM 70.344,50.43c 2.094,0, 4.116,0, 6.204,0c0,6.306,0,12.504,0,18.822 c-2.094,0-4.116,0-6.204,0C 70.344,62.934, 70.344,56.736, 70.344,50.43z"></path></svg>