<?xml version="1.0" encoding="utf-8"?> <!-- Generator: IcoMoon.io --> <!DOCTYPE svg PUBLIC "-//W3C//DTD SVG 1.1//EN" "http://www.w3.org/Graphics/SVG/1.1/DTD/svg11.dtd"> <svg version="1.1" id="Layer_1" xmlns="http://www.w3.org/2000/svg" xmlns:xlink="http://www.w3.org/1999/xlink" x="0px" y="0px" width="96px" height="96px" viewBox="0 0 96 96" enable-background="new 0 0 16 16" xml:space="preserve"> <path d="M 96.552,38.424c0,8.124,0,16.248,0,24.372c-1.956,0-3.906,0-6.030,0c0,3.948,0,7.788,0,11.814c-0.966,0-1.764,0-2.568,0 c-28.332,0-56.664,0-85.002,0.012c-0.804,0-1.602,0.12-2.406,0.174c0-18.126,0-36.252,0-54.372c 0.804,0.060, 1.602,0.174, 2.406,0.174 c 28.398,0.012, 56.796,0.006, 85.194,0.006c 0.774,0, 1.548,0, 2.478,0c0,6.18,0,12.024,0,17.814C 92.712,38.424, 94.626,38.424, 96.552,38.424z M 78.396,62.556c0-10.062,0-19.944,0-29.82c-21.996,0-43.836,0-65.694,0c0,10.002,0,19.884,0,29.82 C 34.656,62.556, 56.448,62.556, 78.396,62.556zM 19.242,56.1c 7.722-5.79, 15.444-11.586, 23.568-17.676 c 1.578,1.716, 3.156,3.372, 4.662,5.1C 48.222,44.382, 48.984,44.538, 50.1,44.25c 7.176-1.848, 14.37-3.618, 21.75-5.118 c-7.716,5.79-15.426,11.574-23.46,17.604C 46.812,55.050, 45.24,53.454, 43.776,51.768C 42.972,50.844, 42.174,50.67, 40.992,50.976 C 33.822,52.83, 26.628,54.594, 19.44,56.388C 19.374,56.292, 19.308,56.196, 19.242,56.1z"></path></svg>