<?xml version="1.0" encoding="utf-8"?> <!-- Generator: IcoMoon.io --> <!DOCTYPE svg PUBLIC "-//W3C//DTD SVG 1.1//EN" "http://www.w3.org/Graphics/SVG/1.1/DTD/svg11.dtd"> <svg version="1.1" id="Layer_1" xmlns="http://www.w3.org/2000/svg" xmlns:xlink="http://www.w3.org/1999/xlink" x="0px" y="0px" width="96px" height="96px" viewBox="0 0 96 96" enable-background="new 0 0 16 16" xml:space="preserve"> <path d="M 78,27.66c-6.006,6.024-11.772,11.808-17.472,17.532 C 57.696,42.36, 54.972,39.624, 52.176,36.822c 5.7-5.67, 11.472-11.418, 17.376-17.298c-3.438-3.372-6.63-6.504-10.206-10.008 c 9.864,0, 19.158,0, 28.488,0c0,9.348,0,18.624,0,28.086C 84.516,34.248, 81.342,31.038, 78,27.66zM 37.206,51.48c 2.934,2.94, 5.664,5.664, 8.46,8.466 c-5.67,5.658-11.436,11.412-17.388,17.364c 3.396,3.312, 6.594,6.426, 10.128,9.876c-9.762,0-19.008,0-28.368,0c0-9.264,0-18.522,0-28.17 c 3.318,3.504, 6.414,6.78, 9.576,10.122C 25.746,62.982, 31.464,57.24, 37.206,51.48z"></path></svg>