<?xml version="1.0" encoding="utf-8"?> <!-- Generator: IcoMoon.io --> <!DOCTYPE svg PUBLIC "-//W3C//DTD SVG 1.1//EN" "http://www.w3.org/Graphics/SVG/1.1/DTD/svg11.dtd"> <svg version="1.1" id="Layer_1" xmlns="http://www.w3.org/2000/svg" xmlns:xlink="http://www.w3.org/1999/xlink" x="0px" y="0px" width="96px" height="96px" viewBox="0 0 96 96" enable-background="new 0 0 16 16" xml:space="preserve"> <path d="M 12.834,71.886c0-23.94,0-47.694,0-71.874c 3.21,0.276, 6.384,0.444, 9.534,0.846 c 6.924,0.888, 13.71,2.508, 20.16,5.958c 1.686,0.9, 2.34,2.028, 2.328,4.44C 44.76,33.216, 44.802,55.17, 44.802,77.124 c0,0.882,0,1.77,0,2.94C 34.59,73.788, 23.784,72.564, 12.834,71.886zM 83.184,0c0,24.114,0,47.856,0,71.874c-10.866,0.69-21.66,1.878-31.854,8.118 c-0.048-1.008-0.12-1.788-0.12-2.562c-0.006-22.2, 0.030-44.394-0.054-66.594c-0.012-2.16, 0.66-3.096, 2.076-3.876 c 6.486-3.57, 13.344-5.19, 20.328-6.102C 76.722,0.456, 79.902,0.288, 83.184,0zM0,87.846c0-26.538,0-52.956,0-79.572c 2.040,0, 4.062,0, 6.258,0 c0,24.204,0,48.36,0,72.774c 3.864,0.714, 7.596,1.428, 11.328,2.088c 7.992,1.41, 16.002,2.676, 23.97,4.23 c 5.634,1.104, 11.16,0.366, 16.722-0.654c 10.158-1.872, 20.334-3.648, 30.498-5.466c 0.252-0.048, 0.498-0.132, 0.882-0.24 c0-24.228,0-48.402,0-72.75c 2.184,0, 4.212,0, 6.342,0c0,26.574,0,53.052,0,79.698c-5.874,1.068-11.664,2.13-17.466,3.162 c-8.58,1.53-17.16,3.072-25.752,4.548c-5.292,0.906-10.512-0.138-15.732-1.074c-12.084-2.154-24.162-4.314-36.246-6.468 C 0.612,88.080, 0.42,87.984,0,87.846z"></path></svg>