<?xml version="1.0" encoding="utf-8"?> <!-- Generator: IcoMoon.io --> <!DOCTYPE svg PUBLIC "-//W3C//DTD SVG 1.1//EN" "http://www.w3.org/Graphics/SVG/1.1/DTD/svg11.dtd"> <svg version="1.1" id="Layer_1" xmlns="http://www.w3.org/2000/svg" xmlns:xlink="http://www.w3.org/1999/xlink" x="0px" y="0px" width="256" height="256" viewBox="0 0 256 256" enable-background="new 0 0 256.059 256.059" xml:space="preserve"> <path d="M3.674,244.614c1.3-0.588,2.134-1.078,3.034-1.354 c10.708-3.289,18.42-10.228,22.617-20.385c4.688-11.345,8.43-23.08,12.614-34.636c2.601-7.186,5.199-14.373,7.903-21.521 c5.853-15.467,17.592-24.637,32.68-30.014c1.301-0.464,3.675,0.083,4.67,1.059c12.722,12.482,25.344,25.069,37.786,37.829 c1.217,1.248,1.711,3.905,1.467,5.767c-4.396,33.579-25.73,56.435-59.234,63.689C48.204,249.166,26.317,249.054,3.674,244.614zM139.737,163.807c-13.735-13.817-27.185-27.348-40.697-40.941 c7.183-3.431,14.817-7.018,22.399-10.711c11.756-5.727,22.27-13.03,31.51-22.486c22.238-22.762,44.869-45.143,67.489-67.529 c2.895-2.865,6.419-5.351,10.083-7.122c5.204-2.515,10.388-1.717,14.763,2.411c4.236,3.997,5.686,9.522,3.13,15.069 c-1.563,3.394-3.827,6.673-6.455,9.333c-20.269,20.496-40.226,41.336-61.235,61.051c-17.025,15.977-29.122,34.892-38.613,55.84 C141.357,160.381,140.569,162.024,139.737,163.807z" ></path> </svg>