<?xml version="1.0" encoding="utf-8"?> <!-- Generator: IcoMoon.io --> <!DOCTYPE svg PUBLIC "-//W3C//DTD SVG 1.1//EN" "http://www.w3.org/Graphics/SVG/1.1/DTD/svg11.dtd"> <svg version="1.1" id="Layer_1" xmlns="http://www.w3.org/2000/svg" xmlns:xlink="http://www.w3.org/1999/xlink" x="0px" y="0px" width="256" height="256" viewBox="0 0 256 256" enable-background="new 0 0 256.059 256.059" xml:space="preserve"> <path d="M228.882,24.878c31.739,45.488,32.449,128.293,0.23,175.048 c-7.197-5.8-14.18-11.87-21.612-17.326c-18.667-13.701-38.547-24.929-61.797-28.979c-1.249-0.218-2.8-1.821-3.238-3.11 c-8.604-25.281-8.587-50.624-0.034-75.913c0.439-1.299,1.96-2.933,3.204-3.159c28.838-5.229,52.311-20.665,74.371-38.821 C222.95,30.193,225.762,27.606,228.882,24.878zM116.8,72.87c0,26.452,0,52.715,0,79.552c-3.646,0-7.235,0-11.445,0 c-0.495,10.552,0.808,20.334,3.161,30.003c1.834,7.536,5.137,14.232,10.422,20.146c7.893,8.832,6.046,19.55-3.925,25.955 c-9.766,6.273-19.754,5.574-27.588-2.807c-10.748-11.497-16.611-25.2-18.719-40.992c-1.346-10.086-4.961-19.887-7.879-29.722 c-0.336-1.132-2.694-2.273-4.167-2.349c-5.482-0.278-10.998-0.345-16.48-0.071c-14.698,0.733-24.253-6.682-30.541-19.124 c-8.877-17.565-5.263-40.436,8.227-53.137c5.151-4.849,11.18-7.791,18.376-7.8c25.648-0.028,51.297-0.016,76.945,0.002 C114.323,72.528,115.459,72.737,116.8,72.87z M36.824,97.148C27.5,97.42,20.828,106.268,21.176,117.4 c0.327,10.5,7.173,18.636,15.648,18.372C36.824,123.021,36.824,110.264,36.824,97.148z" ></path> </svg>