<?xml version="1.0" encoding="utf-8"?> <!-- Generator: IcoMoon.io --> <!DOCTYPE svg PUBLIC "-//W3C//DTD SVG 1.1//EN" "http://www.w3.org/Graphics/SVG/1.1/DTD/svg11.dtd"> <svg version="1.1" id="Layer_1" xmlns="http://www.w3.org/2000/svg" xmlns:xlink="http://www.w3.org/1999/xlink" x="0px" y="0px" width="256" height="256" viewBox="0 0 256 256" enable-background="new 0 0 256.059 256.059" xml:space="preserve"> <path d="M42.01,1c16.003,0,32.007,0,48.011,0c0,10.738,0,21.475,0,32.183c27.057,0,53.307,0,80.019,0c0-10.936,0-21.559,0-32.183 c16.004,0,32.007,0,48.011,0c0,10.738,0,21.475,0,32.646c11.085,0,21.369,0,31.682,0c0,74.666,0,148.878,0,223.073 c-80.027,0-159.73,0-239.545,0c0-74.432,0-148.526,0-223.237c10.57,0,20.972,0,31.824,0C42.01,22.247,42.01,11.624,42.01,1z M233.888,81.942c-69.479,0-138.515,0-207.578,0c0,53.341,0,106.261,0,159.188c69.341,0,138.378,0,207.578,0 C233.888,187.931,233.888,135.148,233.888,81.942z M58.36,17.786c0,10.648,0,21.018,0,31.443c5.28,0,10.208,0,15.309,0 c0-10.646,0-21.016,0-31.443C68.39,17.786,63.461,17.786,58.36,17.786z M201.646,49.349c0-10.839,0-21.188,0-31.518 c-5.319,0-10.233,0-15.204,0c0,10.674,0,21.022,0,31.518C191.644,49.349,196.445,49.349,201.646,49.349zM220.045,105.959c0,7.337,0.074,14.325-0.062,21.31 c-0.028,1.401-0.651,2.903-1.352,4.165c-15.362,27.625-30.752,55.237-46.244,82.791c-0.775,1.381-2.492,3.134-3.811,3.167 c-10.438,0.26-20.886,0.145-32.504,0.145c16.549-28.906,32.578-56.905,48.99-85.57c-17.473,0-34.069,0-51.101,0 c0-8.766,0-17.163,0-26.007C162.378,105.959,190.912,105.959,220.045,105.959zM76.85,217.106c0-27.721,0-55.168,0-83.115 c-6.414,1.41-12.366,2.718-18.935,4.161c-2.008-7.982-3.973-15.788-6.034-23.982c18.162-5.55,35.796-12.166,55.371-8.642 c0,36.933,0,74.031,0,111.578C97.36,217.106,87.483,217.106,76.85,217.106z" ></path> </svg>