<?xml version="1.0" encoding="utf-8"?> <!-- Generator: IcoMoon.io --> <!DOCTYPE svg PUBLIC "-//W3C//DTD SVG 1.1//EN" "http://www.w3.org/Graphics/SVG/1.1/DTD/svg11.dtd"> <svg version="1.1" id="Layer_1" xmlns="http://www.w3.org/2000/svg" xmlns:xlink="http://www.w3.org/1999/xlink" x="0px" y="0px" width="256px" height="256px" viewBox="0 0 256 256" enable-background="new 0 0 256 256" xml:space="preserve"><g></g> <path d="M150.893,93.304c-25.32,0-45.918,20.598-45.918,45.909c0,25.319,20.598,45.918,45.918,45.918 c25.319,0,45.917-20.599,45.917-45.918C196.81,113.902,176.212,93.304,150.893,93.304z M138.767,163.953 c-5.577-4.98-9.158-12.116-9.158-20.179c0-14.967,12.134-27.102,27.119-27.102c8.33,0,15.689,3.822,20.66,9.738 C157.324,128.566,141.458,144.068,138.767,163.953zM237.561,46.46h-18.246V28.214h-18.246V46.46h-91.229c0-8.784-8.214-18.246-18.246-18.246H55.102 c-10.032,0-18.246,9.461-18.246,18.246H18.61c-10.032,0-18.246,8.223-18.246,18.246v145.967c0,10.031,8.214,18.246,18.246,18.246 h218.951c10.031,0,18.245-8.215,18.245-18.246V64.706C255.806,54.683,247.592,46.46,237.561,46.46z M44.054,107.995 c-7.332,0-13.284-5.934-13.284-13.274c0-7.333,5.952-13.292,13.284-13.292c7.333,0,13.284,5.96,13.284,13.292 C57.338,102.062,51.387,107.995,44.054,107.995z M150.893,208.855c-38.398,0-69.634-31.253-69.634-69.643 s31.235-69.616,69.634-69.616c38.397,0,69.634,31.226,69.634,69.616S189.29,208.855,150.893,208.855z" ></path> </svg>
