<?xml version="1.0" encoding="utf-8"?> <!-- Generator: IcoMoon.io --> <!DOCTYPE svg PUBLIC "-//W3C//DTD SVG 1.1//EN" "http://www.w3.org/Graphics/SVG/1.1/DTD/svg11.dtd"> <svg version="1.1" id="Layer_1" xmlns="http://www.w3.org/2000/svg" xmlns:xlink="http://www.w3.org/1999/xlink" x="0px" y="0px" width="256" height="256" viewBox="0 0 256 256" enable-background="new 0 0 256.059 256.059" xml:space="preserve"> <path d="M80,248.083c0-19.87,0-38.809,0-58.232c-2.062-0.111-3.816-0.285-5.571-0.288 c-12.829-0.024-25.66,0.031-38.489-0.025c-16.804-0.074-28.929-12.271-28.934-29.069c-0.013-40.989-0.014-81.979,0-122.968 C7.012,20.74,19.176,8.521,36.018,8.511C98.001,8.474,159.984,8.475,221.969,8.51c17.085,0.01,29.083,12.213,29.086,29.417 c0.008,40.823,0.011,81.646-0.001,122.468c-0.005,16.84-12.088,29.076-28.861,29.14c-17.662,0.065-35.325-0.108-52.984,0.138 c-2.929,0.041-6.276,1.055-8.683,2.706c-25.529,17.527-50.907,35.277-76.33,52.959C83.123,246.084,82.009,246.771,80,248.083z M109.953,187.58c2.254-1.289,3.682-2.041,5.044-2.896c11.845-7.435,23.619-14.986,35.568-22.25 c2.264-1.375,5.201-2.263,7.841-2.294c16.997-0.203,33.999-0.081,50.999-0.114c8.763-0.018,11.63-2.909,11.637-11.751 c0.022-32.501,0.022-65,0-97.501c-0.007-8.844-2.874-11.752-11.634-11.756c-53.499-0.02-107-0.018-160.5-0.002 c-9.124,0.003-11.888,2.799-11.893,12c-0.018,32.333-0.018,64.667,0,97.001c0.005,9.208,2.767,11.998,11.882,12.011 c18.5,0.026,37,0.008,55.5,0.008c1.767,0,3.533,0,5.556,0C109.953,169.306,109.953,177.941,109.953,187.58z" ></path> </svg>