<?xml version="1.0" encoding="utf-8"?> <!-- Generator: IcoMoon.io --> <!DOCTYPE svg PUBLIC "-//W3C//DTD SVG 1.1//EN" "http://www.w3.org/Graphics/SVG/1.1/DTD/svg11.dtd"> <svg version="1.1" id="Layer_1" xmlns="http://www.w3.org/2000/svg" xmlns:xlink="http://www.w3.org/1999/xlink" x="0px" y="0px" width="256px" height="256px" viewBox="0 0 256 256" enable-background="new 0 0 256 256" xml:space="preserve"><g></g> <path d="M6.001,128.062C5.316,61.062,61.342,4.637,130.374,5.892 c66.497,1.209,121.233,56.854,119.798,124.858c-1.389,65.771-56.459,120.635-125.239,119.52 C60.201,249.219,6.001,194.416,6.001,128.062z M98.559,157.012c-1.288-1.414-2.407-2.585-3.465-3.81 c-7.298-8.447-14.552-16.933-21.882-25.353c-5.057-5.809-8.423-6.004-14.352-0.948c-3.423,2.918-6.853,5.833-10.174,8.866 c-4.361,3.98-4.737,7.69-0.878,12.179c17.156,19.953,34.413,39.82,52.016,60.161c4.037-5.174,7.908-10.138,11.779-15.101 c28.381-36.395,56.764-72.788,85.139-109.188c4.881-6.261,4.433-9.597-1.896-14.659c-3.124-2.498-6.236-5.01-9.385-7.476 c-5.85-4.582-9.354-4.222-13.909,1.574c-7.413,9.431-14.754,18.918-22.122,28.384C132.55,113.33,115.673,135.02,98.559,157.012z" ></path> </svg>
