<?xml version="1.0" encoding="utf-8"?> <!-- Generator: IcoMoon.io --> <!DOCTYPE svg PUBLIC "-//W3C//DTD SVG 1.1//EN" "http://www.w3.org/Graphics/SVG/1.1/DTD/svg11.dtd"> <svg version="1.1" id="Layer_1" xmlns="http://www.w3.org/2000/svg" xmlns:xlink="http://www.w3.org/1999/xlink" x="0px" y="0px" width="256px" height="256px" viewBox="0 0 256 256" enable-background="new 0 0 256 256" xml:space="preserve"> <path d="M93.137,244.282c0.789-1.102,1.152-1.652,1.557-2.171c49.25-63.011,98.519-126.007,147.73-189.048 c4.807-6.158,3.836-13.067-2.271-18.097c-5.272-4.344-10.662-8.545-15.999-12.811c-10.048-8.034-15.446-7.434-23.33,2.666 c-35.472,45.443-70.932,90.896-106.403,136.34c-1.088,1.395-2.253,2.73-3.501,4.238c-1.048-1.143-1.737-1.856-2.386-2.606 c-12.096-13.987-24.158-28.003-36.29-41.959c-6.688-7.694-12.86-8.094-20.669-1.448c-5.33,4.534-10.618,9.119-15.912,13.695 c-7.382,6.384-7.839,12.804-1.362,20.309c9.144,10.594,18.343,21.141,27.514,31.712C58.725,204.598,75.631,224.096,93.137,244.282z " ></path> </svg>