<?xml version="1.0" encoding="utf-8"?> <!-- Generator: IcoMoon.io --> <!DOCTYPE svg PUBLIC "-//W3C//DTD SVG 1.1//EN" "http://www.w3.org/Graphics/SVG/1.1/DTD/svg11.dtd"> <svg version="1.1" id="Layer_1" xmlns="http://www.w3.org/2000/svg" xmlns:xlink="http://www.w3.org/1999/xlink" x="0px" y="0px" width="256px" height="256px" viewBox="0 0 256 256" enable-background="new 0 0 256 256" xml:space="preserve"> <path d="M128.796,18.499c60.987,0.005,109.785,49.182,109.765,110.619 c-0.02,60.759-49.393,109.468-110.935,109.443c-60.149-0.023-109.549-49.72-109.457-110.113 C18.262,67.521,67.592,18.493,128.796,18.499z M50.548,127.877c-1.161,40.2,33.437,76.637,73.375,78.444 c45.877,2.078,81.025-33.983,82.245-74.391c1.308-43.243-32.031-79.913-73.436-81.073C87.14,49.58,51.854,82.648,50.548,127.877zM122.03,102.462c0-4.998-0.069-9.999,0.019-14.995 c0.094-5.389,3.374-8.931,8.049-8.888c4.671,0.042,7.869,3.597,7.916,9.013c0.066,7.664,0.149,15.333-0.049,22.992 c-0.077,2.958,0.832,4.833,3.199,6.676c10.646,8.285,21.159,16.744,31.612,25.272c1.877,1.532,3.774,3.451,4.729,5.605 c1.511,3.411,0.229,6.623-2.8,8.765c-3.402,2.404-6.891,2.073-10.131-0.509c-9.119-7.266-17.731-15.306-27.456-21.637 C124.981,126.854,118.241,117.362,122.03,102.462z" ></path> </svg>