<?xml version="1.0" encoding="utf-8"?> <!-- Generator: IcoMoon.io --> <!DOCTYPE svg PUBLIC "-//W3C//DTD SVG 1.1//EN" "http://www.w3.org/Graphics/SVG/1.1/DTD/svg11.dtd"> <svg version="1.1" id="Layer_1" xmlns="http://www.w3.org/2000/svg" xmlns:xlink="http://www.w3.org/1999/xlink" x="0px" y="0px" width="256px" height="256px" viewBox="0 0 256 256" enable-background="new 0 0 256 256" xml:space="preserve"> <path d="M0.947,129.216c2.849-9.286,5.768-18.5,11.898-26.345c12.967-16.588,29.879-25.094,50.934-25.377 c0.992-0.016,1.977,0,3.471,0c4.227-19.373,14.716-34.347,32.248-43.948c11.157-6.105,23.243-8.679,35.881-7.451 c17.172,1.668,31.744,8.86,43.027,22.088c11.268,13.212,15.801,28.729,14.541,46.002c30.344-4.021,57.758,15.384,62.354,45.033 c5.164,33.475-19.107,57.868-45.576,61.582c-4.738,0.676-9.57,0.85-14.352,0.865c-43.754,0.064-87.527,0.047-131.287,0.031 c-29.336,0-54.294-19.215-61.691-47.417c-0.449-1.731-0.959-3.447-1.448-5.163C-0.502,141.874,0,136.123,0.947,129.216z M164.164,123.81c0.188-2.259,0.314-4.21,0.518-6.146c0.992-10.033,2.818-20.065,2.881-30.106 c0.141-18.877-14.242-33.938-33.449-36.26c-18.572-2.235-36.057,9.395-40.651,27.454c-1.779,7.012-2.818,14.235-3.903,21.403 c-0.386,2.612-1.039,3.873-3.959,3.589c-5.924-0.582-11.889-0.787-17.822-1.307c-21.757-1.927-40.69,13.952-41.604,35.992 c-0.858,20.538,15.4,37.85,36.339,38.038c46.26,0.394,92.521,0.252,138.791,0.048c17.059-0.063,29.996-13.739,29.209-29.935 c-0.865-17.909-15.721-29.633-33.678-27.445C186.072,120.441,175.354,122.188,164.164,123.81z" ></path> </svg>