<?xml version="1.0" encoding="utf-8"?> <!-- Generator: IcoMoon.io --> <!DOCTYPE svg PUBLIC "-//W3C//DTD SVG 1.1//EN" "http://www.w3.org/Graphics/SVG/1.1/DTD/svg11.dtd"> <svg version="1.1" id="Layer_1" xmlns="http://www.w3.org/2000/svg" xmlns:xlink="http://www.w3.org/1999/xlink" x="0px" y="0px" width="256" height="256" viewBox="0 0 256 256" enable-background="new 0 0 256.059 256.059" xml:space="preserve"> <path d="M43.009,131.387c17.608,15.187,34.757,29.971,51.896,44.764 c7.957,6.868,9.19,16.072,3.145,23.292c-5.953,7.107-15.704,7.63-23.52,0.938c-22.258-19.06-44.474-38.168-66.59-57.392 c-8.332-7.241-8.127-18.193,0.564-25.014c22.397-17.576,44.927-34.985,67.492-52.347c7.323-5.634,16.921-4.426,22.315,2.438 c5.644,7.182,4.576,16.655-2.966,22.593c-15.962,12.562-32.085,24.921-48.138,37.368C45.902,129.038,44.627,130.089,43.009,131.387 zM215.128,131.324c-16.34-12.663-32.255-24.996-48.171-37.328 c-1.447-1.122-2.934-2.2-4.339-3.371c-7.346-6.122-8.501-15.484-2.819-22.627c5.438-6.835,14.974-7.952,22.335-2.319 c14.809,11.334,29.502,22.821,44.242,34.245c7.634,5.916,15.344,11.736,22.883,17.769c8.863,7.09,9.266,17.998,0.783,25.366 c-22.25,19.326-44.562,38.583-66.983,57.709c-10.07,8.592-24.381,3.667-26.585-9.021c-1.097-6.313,1.568-11.259,6.344-15.353 C180.134,161.549,197.383,146.624,215.128,131.324z" ></path> </svg>