<?xml version="1.0" encoding="utf-8"?>
<!-- Generator: Adobe Illustrator 15.1.0, SVG Export Plug-In . SVG Version: 6.00 Build 0)  -->
<!DOCTYPE svg PUBLIC "-//W3C//DTD SVG 1.1//EN" "http://www.w3.org/Graphics/SVG/1.1/DTD/svg11.dtd">
<svg version="1.1" id="Layer_1" xmlns="http://www.w3.org/2000/svg" xmlns:xlink="http://www.w3.org/1999/xlink" x="0px" y="0px"
	 width="256px" height="256px" viewBox="0 0 256 256" enable-background="new 0 0 256 256" xml:space="preserve">
<path fill="#020202" d="m 161.02922,67.777507 -33.91228,34.513603
    -0.95422,0.99009 -14.42507,14.67346 -4.65436,20.48934 -0.32383,1.36531
    -10.956338,48.17785 33.912288,-34.5136 0.95421,-0.9901 14.42508,-14.67344
    4.65435,-20.48935 0.32384,-1.36531 10.95633,-48.177853 z m -45.34209,55.514333
    23.00849,13.69551 -14.02405,14.3186 -0.0339,-0.002 -19.94565,20.36485
    6.44523,-28.4008 4.54985,-19.97655 z M 141.4375,18.78125 c -1.79081,2.899598
    -3.80658,6.427711 -5.375,8.8125 -2.00735,3.052176 -3.76566,5.603411
    -5.15625,7.375 -0.69529,0.885795 -1.32455,1.557665 -1.8125,2.03125
    -0.48795,0.473585 -0.84858,0.71875 -1.09375,0.71875 -0.24517,0
    -0.6058,-0.245165 -1.09375,-0.71875 -0.48795,-0.473585 -1.11721,-1.145456
    -1.8125,-2.03125 -1.39059,-1.771589 -3.1489,-4.322824 -5.15625,-7.375
    -1.54726,-2.352615 -3.54792,-5.832337 -5.3125,-8.6875 -50.171113,6.174433
    -89.762708,45.461554 -95.96875,95.40625 10.760717,6.61219 19.0625,12.28468
    19.0625,13.6875 0,1.40282 -8.301783,7.0753 -19.0625,13.6875 6.221901,49.74273
    46.054274,89.61409 95.6875,95.59375 6.59631,-10.73126 12.25605,-19 13.65625,-19
    1.39334,0 7.00782,8.18964 13.5625,18.84375 50.35158,-6.2993 89.85562,-45.53533
    95.84375,-95.375 -10.79715,-6.63183 -19.125,-12.34394 -19.125,-13.75 0,-1.4002
    8.26874,-7.05994 19,-13.65625 -6.31324,-50.3228 -45.72367,-89.684639
    -95.84375,-95.5625 z m -13.3125,31.4375 c 1.4039,-0.0265 2.82525,-0.0087
    4.25,0.03125 41.405,1.16 74.7455,37.819505 73.4375,81.0625 -1.22,40.408
    -36.373,76.48425 -82.25,74.40625 C 83.62449,203.91175 49.0265,167.45
    50.1875,127.25 51.452688,83.434411 84.604134,51.040152 128.125,50.21875 z" />
</svg>
