<?xml version="1.0" encoding="utf-8"?> <!-- Generator: IcoMoon.io --> <!DOCTYPE svg PUBLIC "-//W3C//DTD SVG 1.1//EN" "http://www.w3.org/Graphics/SVG/1.1/DTD/svg11.dtd"> <svg version="1.1" id="Layer_1" xmlns="http://www.w3.org/2000/svg" xmlns:xlink="http://www.w3.org/1999/xlink" x="0px" y="0px" width="256px" height="256px" viewBox="0 0 256 256" enable-background="new 0 0 256 256" xml:space="preserve"> <path d="M161.207,208.705c10.832,0,21.217,0,32.02,0c0,10.877,0,21.14,0,31.353c10.814,0,21.177,0,32,0c0-10.662,0-20.9,0-31.779 c10.826,0,21.193,0,31.509,0c0-10.895,0-21.124,0-32.008c-10.677,0-21.047,0-31.858,0c0-10.89,0-21.128,0-31.382 c-10.845,0-21.212,0-32.016,0c0,10.679,0,20.941,0,31.81c-10.818,0-21.204,0-31.654,0 C161.207,187.438,161.207,197.559,161.207,208.705zM139.032,1c3.516,0.923,7.074,1.711,10.543,2.79 c22.817,7.092,34.818,25.643,32.224,49.716c-0.429,3.971-0.904,7.936-1.367,11.981c8.319,4.426,8.022,12.433,7.4,19.924 c-0.521,6.277-3.434,11.737-10.294,14.007c-1.086,0.358-2.015,2.402-2.286,3.807c-1.725,8.935-4.346,17.434-10.434,24.509 c-0.591,0.685-1.021,1.758-1.028,2.655c-0.046,6.665-0.133,13.34,0.214,19.989c0.07,1.357,1.664,3.047,2.997,3.843 c3.119,1.863,6.507,3.275,9.728,5.968c-10.428,0-20.855,0-31.471,0c0,21.793,0,42.721,0,64.279c10.607,0,21.008,0,31.538,0 c0,10.898,0,21.165,0,31.728c-56.157,0-112.071,0-168.153,0c-0.232-1.113-0.633-2.07-0.597-3.013 c0.595-15.794,1.146-31.593,1.922-47.379c0.402-8.178,4.68-14.305,11.791-17.946c9.014-4.617,18.275-8.779,27.568-12.818 c15.868-6.896,31.823-13.592,47.793-20.249c3.046-1.27,4.405-3.029,3.97-6.397c-0.274-2.123,0.031-4.323,0.121-6.487 c0.294-7.147-0.144-13.65-4.835-20.103c-3.627-4.989-4.547-11.988-6.46-18.159c-0.695-2.244-0.868-4.154-3.927-4.843 c-1.979-0.445-3.875-2.54-5.209-4.339c-5.832-7.864-4.708-16.322-1.266-24.652c0.719-1.738,3-2.829,4.897-4.517 c-0.471-4.979-1.188-10.429-1.468-15.902c-1.083-21.086,10.161-37.8,30.178-44.826c4.203-1.476,8.602-2.392,12.91-3.566 C130.363,1,134.698,1,139.032,1z" ></path> </svg>