<?xml version="1.0" encoding="utf-8"?> <!-- Generator: IcoMoon.io --> <!DOCTYPE svg PUBLIC "-//W3C//DTD SVG 1.1//EN" "http://www.w3.org/Graphics/SVG/1.1/DTD/svg11.dtd"> <svg version="1.1" id="Layer_1" xmlns="http://www.w3.org/2000/svg" xmlns:xlink="http://www.w3.org/1999/xlink" x="0px" y="0px" width="256" height="256" viewBox="0 0 256 256" enable-background="new 0 0 256.059 256.059" xml:space="preserve"> <path d="M1,257.059C1,171.706,1,86.353,1,1c85.353,0,170.706,0,256.059,0c0,85.353,0,170.706,0,256.059 C171.706,257.059,86.353,257.059,1,257.059z M33.367,65.231c0,53.462,0,106.514,0,159.417c64.079,0,127.797,0,191.412,0 c0-53.335,0-106.269,0-159.417C160.909,65.231,97.309,65.231,33.367,65.231z M48.744,48.788c0-5.506,0-10.429,0-15.468 c-5.311,0-10.35,0-15.38,0c0,5.358,0,10.4,0,15.468C38.644,48.788,43.565,48.788,48.744,48.788z M80.825,33.245 c-5.473,0-10.396,0-15.529,0c0,5.278,0,10.317,0,15.441c5.326,0,10.366,0,15.529,0C80.825,43.438,80.825,38.516,80.825,33.245z M112.789,33.288c-5.519,0-10.443,0-15.442,0c0,5.324,0,10.364,0,15.354c5.375,0,10.416,0,15.442,0 C112.789,43.348,112.789,38.425,112.789,33.288zM97.253,208.703c0-26.639,0-52.9,0-79.417c37.156,0,74.083,0,111.402,0 c0,26.309,0,52.688,0,79.417C171.72,208.703,134.676,208.703,97.253,208.703zM49.357,81.249c10.621,0,20.885,0,31.404,0c0,42.483,0,84.738,0,127.396 c-10.284,0-20.669,0-31.404,0C49.357,166.394,49.357,124.021,49.357,81.249zM97.252,112.68c0-10.623,0-20.887,0-31.405c37.15,0,74.071,0,111.394,0 c0,10.288,0,20.672,0,31.405C171.727,112.68,134.688,112.68,97.252,112.68z" ></path> </svg>