<?xml version="1.0" encoding="utf-8"?> <!-- Generator: IcoMoon.io --> <!DOCTYPE svg PUBLIC "-//W3C//DTD SVG 1.1//EN" "http://www.w3.org/Graphics/SVG/1.1/DTD/svg11.dtd"> <svg version="1.1" id="Layer_1" xmlns="http://www.w3.org/2000/svg" xmlns:xlink="http://www.w3.org/1999/xlink" x="0px" y="0px" width="256px" height="256px" viewBox="0 0 256 256" enable-background="new 0 0 256 256" xml:space="preserve"> <path d="M133.14,1.942c-25.791,0.076-47.846,1.602-69.605,6.1c-13.377,2.766-26.671,5.997-38.221,13.789 c-11.055,7.46-11.415,16.661-0.12,23.527c7.562,4.597,16.01,8.398,24.565,10.59c49.708,12.737,99.771,12.572,149.875,2.353 c12.24-2.497,24.282-6.02,34.54-13.652c9.164-6.82,9.432-14.974,0.107-21.526c-5.489-3.857-11.785-6.929-18.141-9.134 C188.106,4.264,158.893,2.466,133.14,1.942z M241.042,59.95c-35.72,18.065-73.767,21.097-112.182,21.1 C90.481,81.052,52.49,77.89,17.004,60.013c0,11.409,0.337,22.409-0.119,33.376c-0.301,7.235,2.459,12.637,8.473,15.697 c8.098,4.12,16.394,8.456,25.12,10.633c50.103,12.506,100.503,12.417,150.912,1.707c11.075-2.353,21.908-5.749,31.42-12.256 c4.198-2.874,8.106-6.246,8.182-11.839C241.157,85.014,241.042,72.693,241.042,59.95z M17.026,188.214 c0.354-0.619,0.078-0.36,0.076-0.101c-0.048,10.661,0.325,21.342-0.231,31.975c-0.402,7.698,2.69,13.236,9.032,16.413 c8.122,4.069,16.489,8.198,25.229,10.391c48.426,12.141,97.206,12.03,146.045,2.516c12.271-2.39,24.258-5.895,34.968-12.713 c6.018-3.83,9.671-8.819,9.001-16.512c-0.475-5.457-0.092-10.987-0.092-16.484c0-5.543,0-11.084,0-16.943 c-4.916,2.354-9.009,4.55-13.278,6.318c-19.903,8.247-40.946,11.444-62.187,13.445c-37.522,3.536-74.893,2.421-111.688-6.197 C41.429,197.399,29.452,192.36,17.026,188.214z M241.041,123.802c-8.084,3.286-15.464,6.743-23.141,9.315 c-18.741,6.283-38.234,8.763-57.838,10.391c-37.082,3.078-73.901,1.312-110.095-7.622c-11.164-2.756-21.83-7.527-32.963-11.461 c0,10.509,0.305,21.626-0.111,32.717c-0.263,7.021,2.407,12.316,8.245,15.312c7.936,4.072,16.069,8.334,24.627,10.526 c49.726,12.737,99.803,12.569,149.926,2.339c11.919-2.432,23.585-5.944,33.743-13.081c3.901-2.74,7.463-6.021,7.543-11.158 C241.173,148.62,241.041,136.155,241.041,123.802z" ></path> </svg>