<?xml version="1.0" encoding="utf-8"?> <!-- Generator: IcoMoon.io --> <!DOCTYPE svg PUBLIC "-//W3C//DTD SVG 1.1//EN" "http://www.w3.org/Graphics/SVG/1.1/DTD/svg11.dtd"> <svg version="1.1" id="Layer_1" xmlns="http://www.w3.org/2000/svg" xmlns:xlink="http://www.w3.org/1999/xlink" x="0px" y="0px" width="256" height="256" viewBox="0 0 256 256" enable-background="new 0 0 256.059 256.059" xml:space="preserve"> <path d="M129.08,247.562c-64.998-0.005-117.92-52.984-117.914-118.04 c0.008-65.867,53.05-118.063,119.942-118.026c64.159,0.035,116.496,53.424,116.454,118.796 C247.521,195.146,194.558,247.568,129.08,247.562z M200.706,82.226c-39.593,39.593-79.019,79.02-118.396,118.398 c25.494,19.492,72.167,22.379,104.954-7.693C221.069,161.923,222.797,113.452,200.706,82.226z M57.898,176.143 c39.393-39.393,78.869-78.867,118.287-118.285C145.31,34.61,95.274,40.356,66.917,70.741 C36.267,103.583,38.464,150.177,57.898,176.143z" ></path> </svg>