<?xml version="1.0" encoding="utf-8"?> <!-- Generator: IcoMoon.io --> <!DOCTYPE svg PUBLIC "-//W3C//DTD SVG 1.1//EN" "http://www.w3.org/Graphics/SVG/1.1/DTD/svg11.dtd"> <svg version="1.1" id="Layer_1" xmlns="http://www.w3.org/2000/svg" xmlns:xlink="http://www.w3.org/1999/xlink" x="0px" y="0px" width="256" height="256" viewBox="0 0 256 256" enable-background="new 0 0 256.059 256.059" xml:space="preserve"> <path d="M1,209.048C1,144.7,1,80.352,1,16.004c2.308,0.165,4.616,0.473,6.923,0.473c80.834,0.025,161.669,0.021,242.504,0.021 c2.11,0,4.222,0,6.395,0c0,64.294,0,127.906,0,192.157c-26.617,0-53.007,0-79.496,0c0,5.564,0,10.487,0,16.031 c10.669,0,21.067,0,31.433,0c0,5.554,0,10.479,0,15.492c-53.351,0-106.409,0-159.458,0c0-5.312,0-10.237,0-15.82 c10.657,0,21.041,0,31.396,0c0-5.593,0-10.518,0-15.511c-1.3-0.114-2.286-0.276-3.272-0.276c-24.333-0.015-48.667-0.019-73,0.008 C3.282,208.58,2.141,208.885,1,209.048z M224.884,48.933c-64.141,0-127.842,0-191.572,0c0,42.669,0,84.921,0,127.185 c64.005,0,127.706,0,191.572,0C224.884,133.589,224.884,91.474,224.884,48.933z" ></path> </svg>