<?xml version="1.0" encoding="utf-8"?> <!-- Generator: IcoMoon.io --> <!DOCTYPE svg PUBLIC "-//W3C//DTD SVG 1.1//EN" "http://www.w3.org/Graphics/SVG/1.1/DTD/svg11.dtd"> <svg version="1.1" id="Layer_1" xmlns="http://www.w3.org/2000/svg" xmlns:xlink="http://www.w3.org/1999/xlink" x="0px" y="0px" width="256" height="256" viewBox="0 0 256 256" enable-background="new 0 0 256.059 256.059" xml:space="preserve"> <path d="M25.192,2.495c1.81,0,3.436,0,5.062,0c41.166,0,82.332-0.059,123.496,0.138 c2.619,0.013,5.884,1.343,7.74,3.181c22.385,22.157,44.589,44.498,66.72,66.909c1.45,1.467,2.72,3.903,2.725,5.893 c0.144,58.165,0.117,116.33,0.105,174.495c0,0.971-0.156,1.94-0.26,3.146c-68.584,0-137.004,0-205.589,0 C25.192,171.666,25.192,87.378,25.192,2.495z M57.155,34.401c0,63.51,0,126.725,0,190.205c47.35,0,94.414,0,142.055,0 c0-2.214,0-4.168,0-6.123c0-40.995,0-81.99,0-122.985c0-10.344-3.253-13.647-13.44-13.647c-11.117-0.001-22.235-0.001-33.902-0.001 c0-12.348,0.005-24.134-0.001-35.92c-0.004-7.087-4.583-11.755-11.551-11.756c-25.997-0.007-51.995-0.007-77.991,0.007 C60.697,34.182,59.07,34.316,57.155,34.401zM183.257,113.917c0,5.182,0,10.09,0,15.304c-36.874,0-73.456,0-110.392,0 c0-5.084,0-9.991,0-15.304C109.496,113.917,146.078,113.917,183.257,113.917zM183.249,177.23c0,5.275,0,10.358,0,15.623c-36.915,0-73.531,0-110.439,0 c0-5.274,0-10.357,0-15.623C109.724,177.23,146.34,177.23,183.249,177.23zM72.843,160.993c0-5.504,0-10.426,0-15.568c36.888,0,73.444,0,110.354,0 c0,5.23,0,10.294,0,15.568C146.351,160.993,109.773,160.993,72.843,160.993zM135.693,65.796c-21.152,0-41.889,0-62.877,0c0-5.294,0-10.368,0-15.612 c21.051,0,41.794,0,62.877,0C135.693,55.348,135.693,60.39,135.693,65.796zM72.862,97.437c0-5.041,0-10.104,0-15.378c21.033,0,41.793,0,62.861,0 c0,5.102,0,10.029,0,15.378C114.938,97.437,94.078,97.437,72.862,97.437z" ></path> </svg>