<?xml version="1.0" encoding="utf-8"?> <!-- Generator: IcoMoon.io --> <!DOCTYPE svg PUBLIC "-//W3C//DTD SVG 1.1//EN" "http://www.w3.org/Graphics/SVG/1.1/DTD/svg11.dtd"> <svg version="1.1" id="Layer_1" xmlns="http://www.w3.org/2000/svg" xmlns:xlink="http://www.w3.org/1999/xlink" x="0px" y="0px" width="256px" height="256px" viewBox="0 0 256 256" enable-background="new 0 0 256 256" xml:space="preserve"> <path d="M221.759,86.117c-1.156-0.318-1.749-0.622-2.344-0.624c-14-0.03-28.002-0.138-41.997,0.106 c-1.788,0.031-3.938,1.575-5.248,3.025c-8.703,9.646-17.221,19.461-25.803,29.217c-6.798,7.729-13.602,15.453-20.599,23.402 c-15.437-17.734-30.451-35.129-45.712-52.305c-1.616-1.819-4.654-3.269-7.072-3.33c-12.826-0.326-25.664-0.165-38.497-0.135 c-1.198,0.003-2.396,0.266-4.32,0.494c32.231,37.594,63.923,74.559,95.869,111.819C158.095,160.388,189.626,123.604,221.759,86.117 z" ></path> </svg>