<?xml version="1.0" encoding="UTF-8" ?>
<!-- Generator: IcoMoon.io -->

<svg
   xmlns:dc="http://purl.org/dc/elements/1.1/"
   xmlns:cc="http://creativecommons.org/ns#"
   xmlns:rdf="http://www.w3.org/1999/02/22-rdf-syntax-ns#"
   xmlns:svg="http://www.w3.org/2000/svg"
   xmlns="http://www.w3.org/2000/svg"
   xmlns:sodipodi="http://sodipodi.sourceforge.net/DTD/sodipodi-0.dtd"
   xmlns:inkscape="http://www.inkscape.org/namespaces/inkscape"
   version="1.1"
   id="Layer_1"
   x="0px"
   y="0px"
   width="256px"
   height="256px"
   viewBox="0 0 256 256"
   enable-background="new 0 0 256 256"
   xml:space="preserve"
   inkscape:version="0.48.4 r9939"
   sodipodi:docname="dropdown.svg"><metadata
     id="metadata3029"><rdf:RDF><cc:Work
         rdf:about=""><dc:format>image/svg+xml</dc:format><dc:type
           rdf:resource="http://purl.org/dc/dcmitype/StillImage" /><dc:title></dc:title></cc:Work></rdf:RDF></metadata><defs
     id="defs3027" /><sodipodi:namedview
     pagecolor="#ffffff"
     bordercolor="#666666"
     borderopacity="1"
     objecttolerance="10"
     gridtolerance="10"
     guidetolerance="10"
     inkscape:pageopacity="0"
     inkscape:pageshadow="2"
     inkscape:window-width="1579"
     inkscape:window-height="558"
     id="namedview3025"
     showgrid="false"
     inkscape:zoom="0.921875"
     inkscape:cx="-1.0847458"
     inkscape:cy="128"
     inkscape:window-x="7"
     inkscape:window-y="24"
     inkscape:window-maximized="0"
     inkscape:current-layer="Layer_1" /><path
     d="m 72.520586,32.204001 c -0.318,1.156 -0.622,1.749 -0.624,2.344 -0.03,14 -0.138,28.002 0.106,41.997 0.031,1.788 1.575,3.938 3.025,5.248 9.646,8.702997 19.461,17.220997 29.217004,25.802999 7.729,6.798 15.453,13.602 23.402,20.599 -17.734,15.437 -35.129004,30.451 -52.305004,45.712 -1.819,1.616 -3.269,4.654 -3.33,7.072 -0.326,12.826 -0.165,25.664 -0.135,38.497 0.003,1.198 0.266,2.396 0.494,4.32 37.594004,-32.231 74.559004,-63.923 111.819004,-95.869 -37.398,-32.059002 -74.182,-63.589999 -111.669004,-95.722999 z"
     id="path3023"
     inkscape:connector-curvature="0" /></svg>
