<?xml version="1.0" encoding="utf-8"?> <!-- Generator: IcoMoon.io --> <!DOCTYPE svg PUBLIC "-//W3C//DTD SVG 1.1//EN" "http://www.w3.org/Graphics/SVG/1.1/DTD/svg11.dtd"> <svg version="1.1" id="Layer_1" xmlns="http://www.w3.org/2000/svg" xmlns:xlink="http://www.w3.org/1999/xlink" x="0px" y="0px" width="256px" height="256px" viewBox="0 0 256 256" enable-background="new 0 0 256 256" xml:space="preserve"><g></g> <path d="M223.544,125.097L223.544,68.564L162.979,8L31.935,8L31.935,125.097L0,103.805L0,238.903L63.152,183.642L81.396,167.674L87.626,162.217L47.902,135.739L47.902,23.967L156.368,23.967L159.674,27.273L159.674,71.87L204.271,71.87L207.576,75.175L207.576,135.739L167.845,162.217L174.082,167.674L192.326,183.642L255.479,238.903L255.479,103.805 zM149.819,167.674L105.651,167.674L87.4,183.642L14.408,247.511L241.07,247.511L168.079,183.642 zM0,103.805L31.935,87.837L31.935,103.805 zM255.479,103.805L223.544,87.837L223.544,103.805 z" ></path></svg>
