<?xml version="1.0" encoding="utf-8"?> <!-- Generator: IcoMoon.io --> <!DOCTYPE svg PUBLIC "-//W3C//DTD SVG 1.1//EN" "http://www.w3.org/Graphics/SVG/1.1/DTD/svg11.dtd"> <svg version="1.1" id="Layer_1" xmlns="http://www.w3.org/2000/svg" xmlns:xlink="http://www.w3.org/1999/xlink" x="0px" y="0px" width="256" height="256" viewBox="0 0 256 256" enable-background="new 0 0 256.059 256.059" xml:space="preserve"> <path d="M6.82,128.71C6.82,60.827,61.612,6.028,129.652,6.223 c70.05,0.202,123.415,57.728,122.581,124.947c-0.825,66.54-55.892,120.498-124.526,120.451 C61.206,251.576,6.819,196.279,6.82,128.71z M133.854,48.956c0-0.039,0-0.078,0-0.118c-3.834,0-7.667-0.001-11.5,0.002 c-0.333,0-0.666,0.019-0.998,0.036c-6.893,0.357-8.862,2.406-8.513,9.306c1.09,21.451,2.241,42.898,3.406,64.345 c0.551,10.141,1.156,20.279,1.799,30.415c0.441,6.92,2.766,9.052,9.742,9.092c4.166,0.024,8.333,0.046,12.498-0.006 c6.136-0.075,8.416-2.101,8.9-8.285c0.623-7.966,1.06-15.945,1.521-23.922c1.394-24.101,2.794-48.202,4.108-72.307 c0.308-5.643-2.134-8.233-7.972-8.516C142.525,48.788,138.186,48.956,133.854,48.956z M157.471,203.781 c0.075-13.3-10.23-23.947-23.375-24.151c-13.383-0.207-24.208,10.428-24.25,23.828c-0.042,13.077,10.523,23.761,23.683,23.949 C146.505,227.593,157.396,216.846,157.471,203.781z" ></path> </svg>