<?xml version="1.0" encoding="utf-8"?> <!-- Generator: IcoMoon.io --> <!DOCTYPE svg PUBLIC "-//W3C//DTD SVG 1.1//EN" "http://www.w3.org/Graphics/SVG/1.1/DTD/svg11.dtd"> <svg version="1.1" id="Layer_1" xmlns="http://www.w3.org/2000/svg" xmlns:xlink="http://www.w3.org/1999/xlink" x="0px" y="0px" width="256" height="256" viewBox="0 0 256 256" enable-background="new 0 0 256.059 256.059" xml:space="preserve"> <path d="M252.239,129.291c-0.004,68.252-54.831,122.354-123.969,122.331 C61.47,251.599,6.801,196.159,6.946,128.588C7.092,60.283,61.962,6.131,130.973,6.183C197.8,6.234,252.243,61.503,252.239,129.291z M87.095,58.688c-9.383,9.405-18.658,18.7-28.221,28.287c13.925,13.903,28.145,28.102,43.035,42.968 c-14.585,14.49-28.834,28.645-42.406,42.129c9.43,9.463,18.764,18.829,28.607,28.706c13.688-13.704,27.782-27.814,42.234-42.283 c14.164,14.239,28.323,28.475,41.895,42.118c9.807-9.846,19.149-19.227,29.222-29.34c-13.781-13.728-27.996-27.887-42.615-42.45 c14.158-14.096,28.308-28.182,42.136-41.95c-9.45-9.468-18.81-18.844-28.892-28.943c-13.826,13.95-27.956,28.206-42.831,43.213" ></path> </svg>