<?xml version="1.0" encoding="utf-8"?> <!-- Generator: IcoMoon.io --> <!DOCTYPE svg PUBLIC "-//W3C//DTD SVG 1.1//EN" "http://www.w3.org/Graphics/SVG/1.1/DTD/svg11.dtd"> <svg version="1.1" id="Layer_1" xmlns="http://www.w3.org/2000/svg" xmlns:xlink="http://www.w3.org/1999/xlink" x="0px" y="0px" width="256" height="256" viewBox="0 0 256 256" enable-background="new 0 0 256.059 256.059" xml:space="preserve"> <path d="M62.147,241.603c-15.621-15.625-30.441-30.45-45.4-45.411 c21.982-21.966,44.436-44.401,66.997-66.945c-22.999-22.967-45.469-45.407-67.625-67.532C31.656,46.229,46.585,31.35,61.53,16.455 c22.023,22.034,44.384,44.403,66.677,66.706c22.883-22.889,45.333-45.345,67.455-67.474c15.632,15.683,30.527,30.625,45.491,45.638 c-21.764,21.754-44.14,44.12-66.422,66.393c22.878,22.866,45.331,45.31,67.449,67.417c-15.675,15.659-30.587,30.559-45.534,45.491 c-21.924-21.935-44.356-44.378-66.786-66.816C106.796,196.901,84.451,219.271,62.147,241.603z" ></path> </svg>