<?xml version="1.0" encoding="utf-8"?> <!-- Generator: IcoMoon.io --> <!DOCTYPE svg PUBLIC "-//W3C//DTD SVG 1.1//EN" "http://www.w3.org/Graphics/SVG/1.1/DTD/svg11.dtd"> <svg version="1.1" id="Layer_1" xmlns="http://www.w3.org/2000/svg" xmlns:xlink="http://www.w3.org/1999/xlink" x="0px" y="0px" width="256px" height="256px" viewBox="0 0 256 256" enable-background="new 0 0 256 256" xml:space="preserve"> <path d="M206.441,136.581c-2.895-0.316-4.309-0.339-5.659-0.639 c-19.042-4.239-35.17,1.171-48.793,14.758c-18.523,18.475-36.979,37.018-55.53,55.463c-2.824,2.809-5.827,5.509-9.059,7.822 c-11.228,8.038-20.529,7.692-30.617-1.688c-9.391-8.731-18.286-17.995-27.396-27.029c-2.13-2.111-4.164-4.326-6.379-6.344 c-6.399-5.831-12.043-11.976-12.036-21.466c0.01-12.752,1.525-25.103,10.549-34.971c7.077-7.739,15.07-14.659,21.934-22.569 c4.154-4.788,7.192-10.631,10.222-16.274c1.703-3.17,2.492-6.864,3.475-10.382c2.665-9.549,7.573-17.593,14.96-24.304 c5.913-5.373,11.326-11.292,17.031-16.897c4.787-4.704,9.035-4.714,13.822,0.066c33.25,33.204,66.471,66.438,99.678,99.684 C203.733,132.9,204.583,134.227,206.441,136.581z M51.935,157.666c1.049-0.596,3.223-1.3,4.67-2.736 c18.696-18.537,37.325-37.144,55.878-55.824c3.704-3.73,3.688-7.683,0.15-11.535c-3.378-3.679-6.94-7.203-10.583-10.622 c-4.201-3.941-8.088-3.94-12.269,0.214c-18.441,18.322-36.83,36.697-55.106,55.183c-1.509,1.526-2.665,3.971-2.876,6.098 C31.313,143.33,46.032,157.816,51.935,157.666zM208.048,233.343c0-2.146,0-3.897,0-5.648c0-33.637,0.057-67.273-0.111-100.91 c-0.013-2.574-1.025-5.568-2.556-7.644c-13.826-18.753-27.874-37.345-41.851-55.987c-0.981-1.31-1.904-2.663-3.214-4.5 c10.342-2.643,20.352-3.186,30.392-2.434c13.893,1.041,26.801,4.822,37.271,14.747c9.299,8.815,13.299,20.226,15.402,32.309 c7.964,45.743-1.193,87.555-29.468,124.787c-1.202,1.585-2.63,3.003-4.006,4.446C209.618,232.812,209.093,232.889,208.048,233.343z " ></path> </svg>