<?xml version="1.0" encoding="UTF-8"?>
<!-- Generator: IcoMoon.io -->
<!DOCTYPE svg PUBLIC "-//W3C//DTD SVG 1.1//EN" "http://www.w3.org/Graphics/SVG/1.1/DTD/svg11.dtd">
<svg
   xmlns:dc="http://purl.org/dc/elements/1.1/"
   xmlns:cc="http://creativecommons.org/ns#"
   xmlns:rdf="http://www.w3.org/1999/02/22-rdf-syntax-ns#"
   xmlns:svg="http://www.w3.org/2000/svg"
   xmlns="http://www.w3.org/2000/svg"
   xmlns:sodipodi="http://sodipodi.sourceforge.net/DTD/sodipodi-0.dtd"
   xmlns:inkscape="http://www.inkscape.org/namespaces/inkscape"
   version="1.1"
   id="Layer_1"
   x="0px"
   y="0px"
   width="256"
   height="256"
   viewBox="0 0 256 256"
   enable-background="new 0 0 256.059 256.059"
   xml:space="preserve"
   inkscape:version="0.48.4 r9939"
   sodipodi:docname="folder.svg"><path
     d="m 16.009,221.58262 c -2.04,-1.095 -4.392,-3.621 -5.734,-6.158 l -2.2750002,-4.302 0,-83.185 0,-83.186003 2.2750002,-4.302 c 4.264,-8.063001 4.542,-8.114001 42.225,-7.793001 l 33,0.281 6.026,3.151 c 3.378,1.767 8.432,5.696001 11.5,8.940001 9.477,10.022 11.228,11.508 16.921,14.368 9.574,4.811 12.606,5.041 66.368,5.041 56.987,0 55.034,-0.264 59.41,8.012 l 2.275,4.302 0,67.186003 0,67.185 -2.275,4.302 c -1.342,2.537 -3.694,5.063 -5.734,6.158 -3.309,1.774 -8.19,1.855 -111.991,1.855 -103.801,0 -108.682,-0.08 -111.991,-1.855 z"
     ></path></svg>
