<?xml version="1.0" encoding="utf-8"?> <!-- Generator: IcoMoon.io --> <!DOCTYPE svg PUBLIC "-//W3C//DTD SVG 1.1//EN" "http://www.w3.org/Graphics/SVG/1.1/DTD/svg11.dtd"> <svg version="1.1" id="Layer_1" xmlns="http://www.w3.org/2000/svg" xmlns:xlink="http://www.w3.org/1999/xlink" x="0px" y="0px" width="256" height="256" viewBox="0 0 256 256" enable-background="new 0 0 256.059 256.059" xml:space="preserve">
<path d="M1,241.055C1,171.372,1,101.69,1,32.007c2.308,0.165,4.614,0.473,6.921,0.473c80.809,0.025,161.618,0.021,242.426,0.021 c2.124,0,4.25,0,6.54,0c0,69.558,0,138.501,0,208.059c-2.29,0-4.416,0-6.54,0c-80.809,0-161.617-0.004-242.426,0.021 C5.614,240.582,3.308,240.89,1,241.055z M224.639,208.387c0-48.18,0-95.872,0-143.545c-63.999,0-127.584,0-191.218,0 c0,48.014,0,95.706,0,143.545C97.307,208.387,160.778,208.387,224.639,208.387z" >
</path>
</svg>

