<?xml version="1.0" encoding="utf-8"?> <!-- Generator: IcoMoon.io --> <!DOCTYPE svg PUBLIC "-//W3C//DTD SVG 1.1//EN" "http://www.w3.org/Graphics/SVG/1.1/DTD/svg11.dtd"> <svg version="1.1" id="Layer_1" xmlns="http://www.w3.org/2000/svg" xmlns:xlink="http://www.w3.org/1999/xlink" x="0px" y="0px" width="256px" height="256px" viewBox="0 0 256 256" enable-background="new 0 0 256 256" xml:space="preserve"> <path d="M1,224.051c0-26.006,0-52.012,0-78.018c0.291-0.745,0.743-1.469,0.85-2.239C10.418,81.693,57.922,36.726,120.186,31.805 c59.435-4.696,115.628,34.138,131.682,91.803c3.173,11.399,4.536,23.545,4.971,35.411c0.779,21.282,0.22,42.613,0.22,64.537 c-2.459,0-4.584,0-6.708,0c-80.81,0-161.62-0.004-242.429,0.021C5.614,223.578,3.308,223.887,1,224.051z M152.648,169.807 c0.622-0.979,0.985-1.361,1.133-1.812c8.017-24.457,16.102-48.894,23.918-73.416c1.133-3.554,1.449-7.541,1.297-11.292 c-0.235-5.792-3.951-7.537-8.228-3.737c-3.279,2.915-6.242,6.525-8.339,10.375c-11.841,21.737-23.381,43.638-35.003,65.493 c-0.58,1.092-0.958,2.289-1.685,4.06C136.515,158.934,145.274,162.274,152.648,169.807z M128.618,215.212 c13.387,0.107,24.061-10.13,24.248-23.257c0.188-13.198-10.296-23.975-23.426-24.08c-13.387-0.107-24.061,10.131-24.247,23.258 C105.006,204.331,115.489,215.106,128.618,215.212z M65.21,121.731c0.022-8.888-6.512-15.753-15.086-15.854 c-8.992-0.104-16.166,6.655-16.271,15.332c-0.108,8.884,6.745,16.081,15.46,16.236C57.984,137.599,65.189,130.478,65.21,121.731z M17.854,163.838c-0.292,8.915,6.32,16.046,15.166,16.355c8.983,0.315,16.015-6.248,16.275-15.188 c0.25-8.63-6.366-15.792-14.896-16.123C25.411,148.534,18.141,155.105,17.854,163.838z M83.438,75.048 c-8.367-0.012-15.499,7.154-15.579,15.652c-0.081,8.724,6.945,15.95,15.685,16.132c8.385,0.174,15.991-7.453,15.917-15.96 C99.386,82.228,92.127,75.06,83.438,75.048z M128.003,95.183c8.789,0.047,16.086-7.099,16.007-15.674 c-0.079-8.543-7.033-15.543-15.549-15.656c-8.975-0.118-16.373,7.15-16.257,15.974C112.314,88.337,119.31,95.136,128.003,95.183z M223.21,119.722c-0.087-8.444-7.135-15.293-15.786-15.338c-8.718-0.045-15.925,7.158-15.854,15.844 c0.07,8.606,7.435,15.758,16.1,15.633C216.328,135.735,223.3,128.496,223.21,119.722z M239.213,167.921 c-0.009-8.672-7.271-15.67-16.096-15.51c-8.575,0.155-15.494,7.116-15.544,15.639c-0.05,8.577,7.256,15.844,15.909,15.822 C232.156,183.851,239.223,176.686,239.213,167.921z" ></path> </svg>