<?xml version="1.0" encoding="utf-8"?> <!-- Generator: IcoMoon.io --> <!DOCTYPE svg PUBLIC "-//W3C//DTD SVG 1.1//EN" "http://www.w3.org/Graphics/SVG/1.1/DTD/svg11.dtd"> <svg version="1.1" id="Layer_1" xmlns="http://www.w3.org/2000/svg" xmlns:xlink="http://www.w3.org/1999/xlink" x="0px" y="0px" width="256px" height="256px" viewBox="0 0 256 256" enable-background="new 0 0 256 256" xml:space="preserve"> <path d="M113.193,208.089c-6.675-2.212-12.601-3.901-18.292-6.18 c-2.731-1.093-4.372-1.014-6.446,1.188c-5.369,5.697-10.983,11.166-16.559,16.666c-6.479,6.391-14.121,6.325-20.684-0.119 c-2.616-2.567-5.217-5.152-7.776-7.777c-6.211-6.372-6.35-13.953-0.216-20.387c5.513-5.784,11.19-11.41,16.787-17.114 c0.101-0.103,0.093-0.312,0,0.036c-3.182-6.992-6.062-13.679-9.332-20.168c-0.582-1.153-2.776-2.057-4.254-2.101 c-7.16-0.216-14.33-0.036-21.494-0.114c-9.899-0.107-14.91-5.282-14.923-15.262c-0.005-3.833-0.05-7.667,0.01-11.499 c0.124-7.882,5.265-13.21,13.093-13.365c6.997-0.139,14-0.135,20.996,0.013c2.875,0.061,4.278-0.583,5.203-3.745 c1.901-6.505,4.618-12.772,7.327-20.013c-5.401-5.37-11.412-11.303-17.373-17.284c-7.089-7.113-7.043-14.809,0.083-21.783 c2.381-2.331,4.786-4.637,7.167-6.967c6.733-6.591,14.268-6.59,21.077,0.085c5.709,5.598,11.355,11.261,17.042,16.882 c0.224,0.221,0.587,0.301,0.338,0.179c6.555-2.583,12.799-4.84,18.826-7.577c1.308-0.594,2.55-2.882,2.603-4.432 c0.264-7.824,0.067-15.662,0.139-23.494c0.095-10.333,5.078-15.21,15.455-15.258c3.5-0.017,6.999-0.035,10.499,0.004 c8.938,0.101,14.236,5.314,14.356,14.323c0.109,8.164,0.151,16.333-0.042,24.495c-0.068,2.885,0.983,4.011,3.651,4.849 c4.267,1.339,8.518,2.943,12.461,5.032c2.803,1.484,4.336,0.903,6.362-1.18c6.153-6.33,12.507-12.466,18.805-18.654 c6.527-6.415,14.154-6.424,20.684-0.029c2.619,2.564,5.216,5.153,7.78,7.774c6.304,6.445,6.55,13.812,0.334,20.371 c-6.074,6.408-12.361,12.621-18.729,18.738c-2.144,2.059-2.578,3.624-1.049,6.377c2.494,4.486,4.384,9.306,6.731,14.426 c10.087,0,20.572-0.026,31.056,0.008c9.948,0.032,15.146,5.199,15.167,14.994c0.007,3.5,0.011,6.999-0.001,10.499 c-0.031,9.623-5.082,14.637-14.844,14.669c-9.823,0.032-19.647,0.007-29.489,0.007c-2.159,5.758-4.399,11.267-6.196,16.914 c-0.351,1.1,0.673,3.073,1.643,4.087c6.451,6.74,13.056,13.333,19.618,19.967c7.166,7.245,7.121,14.363-0.158,21.698 c-2.466,2.483-4.913,4.986-7.43,7.417c-6.355,6.141-13.854,6.195-20.376-0.119c-6.818-6.6-13.417-13.428-20.137-20.181 c-6.003,2.869-11.875,5.5-17.526,8.545c-1.012,0.545-1.521,2.794-1.547,4.269c-0.144,8.497-0.016,16.997-0.089,25.496 c-0.088,10.299-5.116,15.22-15.456,15.267c-3.666,0.017-7.333,0.058-10.998-0.011c-8.334-0.154-13.711-5.413-13.846-13.81 C113.081,225.769,113.193,216.793,113.193,208.089z M159.996,128.426c-0.064-17.898-15.26-33.14-33.124-33.224 c-18.138-0.086-33.484,15.3-33.337,33.424c0.146,18.121,14.931,32.993,33.035,33.23 C144.477,162.091,160.062,146.503,159.996,128.426z" ></path> </svg>