<?xml version="1.0" encoding="utf-8"?> <!-- Generator: IcoMoon.io --> <!DOCTYPE svg PUBLIC "-//W3C//DTD SVG 1.1//EN" "http://www.w3.org/Graphics/SVG/1.1/DTD/svg11.dtd"> <svg version="1.1" id="Layer_1" xmlns="http://www.w3.org/2000/svg" xmlns:xlink="http://www.w3.org/1999/xlink" x="0px" y="0px" width="256px" height="256px" viewBox="0 0 256 256" enable-background="new 0 0 256 256" xml:space="preserve"> <path d="M1,162.037c3.581-4.823,8.353-6.443,14.279-5.915 c4.448,0.396,8.959,0.078,13.185,0.078c2.083-5.173,4.155-9.887,5.812-14.742c0.399-1.169-0.128-3.212-0.991-4.158 c-3.587-3.938-7.521-7.557-11.221-11.394c-4.612-4.783-4.588-10.218-0.075-15.019c11.724-12.469,14.514-12.53,26.481-0.552 c2.47,2.473,4.905,4.98,7.381,7.497c4.759-1.921,9.405-3.609,13.845-5.727c1.066-0.508,2.004-2.424,2.054-3.729 c0.221-5.824,0.019-11.662,0.122-17.492c0.116-6.53,3.717-10.152,10.213-10.346c3.33-0.1,6.674-0.159,9.995,0.038 c5.394,0.322,8.935,3.947,9.068,9.352c0.147,5.996,0.209,12.003-0.031,17.993c-0.116,2.893,0.89,4.327,3.619,4.854 c0.972,0.188,2.053,0.405,2.815,0.972c6.643,4.933,11.225,1.94,15.597-3.568c2.573-3.241,5.754-6.018,8.784-8.874 c4.436-4.179,9.95-4.358,14.292-0.17c9.866,9.518,16.057,13.33,0.781,27.089c-3.456,3.114-6.845,6.304-10.205,9.404 c1.205,2.373,2.428,3.897,2.766,5.599c1.492,7.511,6.381,8.803,13.074,8.069c4.609-0.505,9.323-0.211,13.984-0.063 c6.696,0.212,10.325,4.049,10.408,10.772c0.034,2.832,0.045,5.665-0.003,8.498c-0.109,6.476-3.746,10.247-10.225,10.346 c-7.478,0.113-14.958,0.026-22.29,0.026c-1.522,4.125-3.161,7.79-4.131,11.624c-0.335,1.323,0.598,3.441,1.637,4.555 c4.433,4.747,9.163,9.213,13.705,13.859c4.899,5.013,4.931,10.338,0.217,15.382c-11.569,12.378-14.445,12.449-26.45,0.334 c-3.153-3.184-6.033-6.637-8.919-9.833c-2.926,1.672-4.801,3.294-6.957,3.874c-6.438,1.731-8.396,5.649-7.545,12.068 c0.607,4.586,0.223,9.319,0.08,13.98c-0.183,5.966-3.754,9.555-9.715,9.804c-3.492,0.146-7.005,0.175-10.494-0.021 c-5.394-0.303-8.929-3.944-9.059-9.349c-0.136-5.661-0.124-11.332,0.005-16.994c0.058-2.527-0.446-4.054-3.357-4.36 c-2.116-0.224-4.423-0.729-6.182-1.843c-5.405-3.418-9.031-1.391-12.549,3.039c-2.368,2.982-5.334,5.493-8.079,8.168 c-0.947,0.923-1.934,1.883-3.073,2.521c-5.603,3.143-11.13,0.535-19.011-8.854c-3.559-4.239-3.719-9.336,0.235-13.565 c4.196-4.488,8.873-8.526,13.078-12.514c-2.553-5.438-4.58-10.138-6.995-14.628c-0.591-1.098-2.421-2.062-3.737-2.14 c-4.483-0.264-9-0.277-13.489-0.06c-5.721,0.275-10.057-1.68-12.729-6.882C1,173.373,1,167.705,1,162.037z M110.856,168.61 c0.032-13.165-10.836-24.238-23.954-24.405c-13.251-0.17-24.666,11.041-24.714,24.274c-0.049,13.036,10.983,24.209,24.085,24.394 C99.62,193.062,110.824,182.004,110.856,168.61zM204.047,1c5.847,2.914,5.424,8.322,4.907,13.406 c-0.518,5.094,0.876,8.419,6.244,9.019c1.643,0.184,3.795,0.019,4.994-0.913c2.74-2.132,4.974-4.905,7.526-7.295 c3.603-3.37,6.833-3.298,10.492,0.107c1.097,1.021,2.168,2.077,3.173,3.189c3.136,3.476,3.056,6.517-0.283,10.031 c-1.721,1.811-3.334,3.807-5.331,5.258c-3.84,2.789-4.435,5.996-1.521,9.548c1.153,1.405,3.061,2.792,4.773,3.012 c3.608,0.462,7.318,0.048,10.98,0.176c4.887,0.17,6.916,2.281,7.048,7.083c0.042,1.499-0.049,3.002,0.018,4.499 c0.212,4.826-2.381,7.073-6.896,7.303c-3.657,0.187-7.349-0.121-10.985,0.217c-1.296,0.12-3.243,1.272-3.555,2.343 c-0.706,2.424-1.646,5.744-0.562,7.519c2.026,3.319,5.499,5.728,8.233,8.645c4.022,4.289,3.513,7.077-2.088,12.568 c-4.614,4.522-7.23,4.669-11.457,0.607c-1.322-1.27-2.829-2.428-3.852-3.911c-3.144-4.556-6.832-5.285-11.013-1.677 c-1.271,1.095-2.53,2.844-2.718,4.422c-0.409,3.451-0.104,6.985-0.137,10.484c-0.043,4.461-2.357,6.74-6.787,6.873 c-1.664,0.05-3.333,0.001-4.999,0.017c-4.781,0.046-7.019-2.557-7.164-7.098c-0.122-3.818-0.024-7.645-0.024-11.761 c-2.151-0.653-4.36-0.925-6.135-1.949c-3.171-1.829-5.176-0.688-7.238,1.745c-1.718,2.027-3.661,3.885-5.646,5.658 c-3.216,2.869-6.479,2.899-9.79-0.03c-7.735-6.844-7.716-9.259-0.325-16.943c1.598-1.66,3.832-4.805,3.236-6.083 c-1.792-3.843-2.053-10.224-9.211-8.562c-0.633,0.146-1.329,0.02-1.995,0.019c-10.19-0.005-13.549-4.284-10.673-14.207 c0.5-1.727,2.583-3.301,4.313-4.267c1.323-0.737,3.244-0.499,4.901-0.525c8.715-0.139,9.612-0.772,11.568-9.097 c0.21-0.893-0.251-2.196-0.844-2.97c-1.105-1.443-2.475-2.705-3.841-3.922c-9.319-8.3-4.791-11.572,2.039-17.292 c1.45-1.213,5.021-0.679,7.264,0.085c1.865,0.635,3.5,2.583,4.734,4.31c2.907,4.065,5.914,4.287,10.467,2.268 c3.441-1.528,4.518-3.197,4.189-6.58c-0.193-1.981,0.172-4.022-0.077-5.991c-0.556-4.39,1.331-7.32,5.043-9.334 C198.045,1,201.046,1,204.047,1z M199.456,42.048c-8.143,0.007-15.321,7.11-15.406,15.242c-0.088,8.392,7.174,15.755,15.472,15.689 c8.453-0.066,15.477-7.273,15.356-15.753C214.761,49.025,207.664,42.04,199.456,42.048z" ></path> </svg>