<?xml version="1.0" encoding="utf-8"?> <!-- Generator: IcoMoon.io --> <!DOCTYPE svg PUBLIC "-//W3C//DTD SVG 1.1//EN" "http://www.w3.org/Graphics/SVG/1.1/DTD/svg11.dtd"> <svg xmlns:xlink="http://www.w3.org/1999/xlink" viewBox="0 0 240 240" xmlns:dc="http://purl.org/dc/elements/1.1/" xmlns:cc="http://creativecommons.org/ns#" xmlns:rdf="http://www.w3.org/1999/02/22-rdf-syntax-ns#" xmlns:svg="http://www.w3.org/2000/svg" xmlns="http://www.w3.org/2000/svg" xmlns:sodipodi="http://sodipodi.sourceforge.net/DTD/sodipodi-0.dtd" xmlns:inkscape="http://www.inkscape.org/namespaces/inkscape" id="svg2" version="1.1" inkscape:version="0.48.4 r9939" width="240" height="240" sodipodi:docname="globe.svg"><g></g> <path d="M 95,237.23128 C 72.112029,232.44584 51.272734,220.95358 34.378087,203.80007 18.287767,187.4632 7.3046175,167.0561 2.3870675,144.35955 c -2.56885005,-11.85634 -2.56885005,-37.14366 0,-49.000005 C 9.7277875,61.479051 30.493397,33.000002 60.5,15.660412 78.571873,5.2174154 97.462516,0.35954536 120,0.35954536 c 33.85604,0 62.18799,11.76649064 85.62191,35.55947864 16.09032,16.336867 27.07347,36.743973 31.99102,59.440521 2.56885,11.856345 2.56885,37.143665 0,49.000005 -4.91755,22.69655 -15.9007,43.10365 -31.99102,59.44052 -17.13008,17.39255 -37.92954,28.76293 -61.27899,33.49919 -13.7628,2.79168 -35.81089,2.76131 -49.34292,-0.068 z m 34.17394,-32.92455 c 1.27933,-1.67905 3.7462,-4.7242 5.48193,-6.76701 2.36415,-2.78241 3.02811,-4.3825 2.64661,-6.37818 -0.37481,-1.96067 0.11206,-3.20269 1.84413,-4.70442 C 149.47475,177.5025 150,176.79709 150,171.8811 c 0,-2.59255 -0.71052,-7.15784 -1.57894,-10.14509 -1.57039,-5.40198 -1.56422,-5.45689 1.14088,-10.15391 1.4959,-2.5974 5.64736,-8.68784 9.22547,-13.53431 C 165.37456,129.12566 170,118.92244 170,113.31406 c 0,-3.61082 -1.26583,-3.70441 -6.5,-0.4806 -5.78408,3.56252 -9.45538,5.93308 -13.49152,0.48033 -1.93067,-2.6083 -3.64372,-6.40191 -5.12511,-7.11193 -3.12756,-1.49899 -7.13895,-6.236973 -9.866,-12.401913 -1.06237,-2.40166 -3.15988,-6.313731 -4.88085,-8.473759 -3.77579,-4.73908 -4.51616,-9.966643 -3.306,-9.966643 2.59058,0 9.98709,7.285886 12.56101,12.373148 1.5669,3.096922 4.28022,6.887482 6.0296,8.423462 1.82251,1.60018 4.07011,5.068895 5.12979,8.170355 1.07199,3.13748 4.93584,7.50926 7.12816,4.82126 8.66464,-0.29769 9.77187,-6.42177 11.09718,-9.09542 0.70195,-1.416085 2.07641,-2.828655 3.05436,-3.139045 0.98856,-0.31376 2.56201,-2.74432 3.54351,-5.47379 1.60691,-4.468665 1.62761,-5.175928 0.23055,-7.877538 -0.84417,-1.632451 -2.66258,-3.251132 -4.0409,-3.597069 -1.37833,-0.345938 -1.07646,1.240202 -1.74613,0.0092 -4.99822,4.3338 -5.38498,0.462248 -9.42911,-1.044423 -0.87159,-0.30968 -1.11687,-1.57404 -1.74553,-1.578811 C 157.23941,77.340221 150,70.593916 150,69.296567 c 0,-1.493865 1.01553,-1.135548 6.18711,2.183046 3.75122,2.407152 5.55075,1.72395 7.87561,1.258979 2.08271,-0.416544 6.27412,0.952622 7.13997,1.500481 3.32388,2.10317 2.56867,2.413742 7.85193,1.194221 4.48006,-1.034123 2.99199,-0.220773 6.11811,2.278218 1.83,1.462885 4.35299,3.669646 5.60665,4.903912 1.75436,1.727218 2.4657,1.945298 3.08827,0.946787 1.12781,-1.808828 1.96393,-0.62176 7.60516,10.797334 5.1726,10.470475 5.29492,8.085735 0.29682,-5.787168 -9.31512,-25.855422 -32.88248,-46.790585 -60.58427,-53.81772 -15.73452,-3.99139 -39.33864,-2.902075 -46.814123,2.16044 -1.57918,1.069447 -4.191122,2.424457 -5.804316,3.011135 -2.947388,1.071892 -3.493604,1.736779 -5.374166,6.541764 -0.791105,2.021335 -1.940559,2.755511 -5.106822,3.261817 -2.247263,0.359352 -3.726831,-1.8504 -5.883662,0.232659 -3.609493,3.486033 -1.877601,3.537009 -3.513279,5.957273 -1.635678,2.420265 -0.731701,5.851019 -0.131073,6.577921 3.858382,4.669556 -3.970447,6.76544 -13.008911,15.716879 -11.892491,11.77799 -14.522901,15.87846 -16.971951,26.457055 -2.78981,12.05049 -1.72023,19.54485 3.95899,27.73996 2.44913,3.5341 3.16725,3.94339 6.84995,3.9041 C 51.6487,136.29156 55.3,135.57401 57.5,134.7212 c 7.078932,-2.74408 8.793608,-2.74247 11.380073,0.0107 1.792309,1.90783 3.039446,2.39376 5.090687,1.98351 2.508685,-0.50174 2.813102,-0.19947 3.973662,3.94564 0.691265,2.46896 0.963374,5.41366 0.604686,6.54378 -0.807302,2.54359 1.056815,6.15544 6.531254,12.65473 2.31636,2.75 5.096129,6.97849 6.177263,9.39664 1.685182,3.76922 1.796501,4.91087 0.780054,8 -1.668405,5.07054 -0.519745,7.43838 9.544411,19.67475 l 8.57729,10.4286 8.34425,0 c 8.12885,0 8.4043,-0.0788 10.67031,-3.05282 z M 95.727129,69.359545 c -1.398423,-1.1 -2.199142,-1.460681 -3.317431,-1.460681 -3.074581,-1.716829 -0.587746,-3.650251 -7.656166,-3.613654 -9.500788,3.039727 -7.678114,8.800281 -14.456746,0.704454 2.3231,-0.572066 9.344273,-0.951547 9.939702,-5.857117 0.52562,-4.330439 4.293076,-7.865405 6.980268,-9.28363 6.104212,-3.221633 7.396248,-3.13842 9.329918,0.600885 1.766669,3.416361 1.518081,2.494058 -1.015289,5.909743 1.646152,-0.448186 3.484925,2.153736 3.56975,-0.851239 0,-0.644192 1.433055,-3.148761 2.085955,-3.148761 0.6529,0 -0.0806,-1.323136 -1.629896,-2.940302 -1.759165,-1.836173 -2.585164,-3.544426 -2.199639,-4.549088 0.887856,-2.313715 5.846585,3.707755 7.608705,9.23939 0.74462,2.3375 1.73183,4.25 2.1938,4.25 0.86558,0 1.04552,-0.727405 1.23151,-4.978269 0.16786,-3.836538 3.47683,-3.929742 4.2389,-0.119398 0.92904,4.645228 2.57979,5.518839 8.2935,4.389098 4.59142,-0.907836 4.93045,-0.833326 5.31296,1.167648 0.22472,1.17555 0.20919,3.845273 -0.0345,5.932717 -0.40317,3.45338 -0.67376,3.751258 -3.00316,3.305965 -1.40804,-0.269163 -3.35115,0.0047 -4.31803,0.608478 -1.32642,0.828362 -3.11863,0.668951 -7.30088,-0.649387 -5.82486,-1.836125 -8.73419,-1.304323 -9.93133,1.815368 -0.79959,2.083709 -2.883854,1.917507 -5.921901,-0.47222 z m -2.798,-19.5 c 0,-0.55 -0.643108,0.125 -1.429129,1.5 -0.786021,1.375 -1.429129,2.95 -1.429129,3.5 0,0.55 0.643108,-0.125 1.429129,-1.5 0.786021,-1.375 1.429129,-2.95 1.429129,-3.5 z M 143.75,53.279446 C 142.7875,52.718841 142,51.403731 142,50.356978 c 0,-1.046753 -1.78289,-3.335953 -3.96197,-5.087112 -3.3345,-2.679681 -3.7989,-3.488628 -2.9323,-5.107889 1.17564,-2.196695 3.38368,-1.916913 3.39003,0.429552 0.002,0.86248 2.1505,3.459074 4.77371,5.770209 2.62321,2.311135 5.22655,5.056105 5.78519,6.099935 0.86099,1.60878 0.66762,1.89324 -1.26948,1.867463 -1.25685,-0.01672 -3.07268,-0.489085 -4.03518,-1.04969 z M 114.60451,48.52865 c -0.49347,-0.79846 0.67799,-4.886859 2.00315,-6.990952 0.25684,-0.407815 9.00945,2.546564 11.51151,3.885626 3.28568,1.758442 2.03739,3.003794 -2.86917,2.862419 -2.6125,-0.07527 -5.93475,0.177912 -7.38278,0.562639 -1.49766,0.397911 -2.90438,0.260059 -3.26271,-0.319732 z m 30.85437,-7.235636 c -1.07627,-1.741443 0.14952,-2.110241 1.52106,-0.457635 0.78875,0.950384 0.86462,1.524166 0.20152,1.524166 -0.58488,0 -1.36004,-0.479939 -1.72258,-1.066531 z m 11.69883,151.316536 c 1.39254,-1.5125 3.53332,-5.28655 4.75728,-8.38678 1.22397,-3.10023 3.12253,-6.59975 4.21904,-7.77671 1.23415,-1.32471 1.87337,-3.17741 1.67791,-4.86323 l -0.31575,-2.72328 -2.37892,3.5 c -1.30841,1.925 -4.12005,4.73322 -6.2481,6.2405 -2.12804,1.50727 -3.87606,3.53227 -3.88448,4.5 -0.0131,1.50171 -0.15734,1.53973 -0.98469,0.2595 -0.74533,-1.15331 -0.97546,-0.80663 -0.99569,1.5 -0.0145,1.65 -0.30525,4.6875 -0.64616,6.75 -0.76955,4.65575 1.07912,5.04093 4.79956,1 z m -3.67548,-15.08583 c 0.6351,-2.0982 0.50311,-2.22669 -1.2974,-1.26309 -1.37516,0.73597 -1.83374,1.72548 -1.46072,3.15192 0.61187,2.33977 1.70472,1.59137 2.75812,-1.88883 z"></path></svg>
