<?xml version="1.0" encoding="utf-8"?> <!-- Generator: IcoMoon.io --> <!DOCTYPE svg PUBLIC "-//W3C//DTD SVG 1.1//EN" "http://www.w3.org/Graphics/SVG/1.1/DTD/svg11.dtd"> <svg version="1.1" id="Layer_1" xmlns="http://www.w3.org/2000/svg" xmlns:xlink="http://www.w3.org/1999/xlink" x="0px" y="0px" width="256px" height="256px" viewBox="0 0 256 256" enable-background="new 0 0 256 256" xml:space="preserve"> <path d="M33.769,192.045c-5.159,0-10.318-0.074-15.475,0.017c-9.367,0.165-16.131,6.732-16.258,16 c-0.144,10.481-0.131,20.968-0.002,31.449c0.11,8.895,6.329,15.643,15.232,15.929c10.97,0.352,21.969,0.32,32.941-0.009 c8.578-0.258,14.865-6.389,15.155-14.911c0.378-11.134,0.41-22.303,0.01-33.436c-0.319-8.873-7.15-14.872-16.127-15.022 C44.087,191.975,38.927,192.046,33.769,192.045z M256.057,223.627c0-5.158,0.089-10.318-0.02-15.475 c-0.194-9.297-6.851-15.969-16.182-16.079c-10.315-0.122-20.635-0.104-30.95-0.006c-9.217,0.088-15.983,6.264-16.259,15.423 c-0.33,10.972-0.328,21.971,0.039,32.939c0.286,8.539,6.523,14.722,15.077,14.991c10.971,0.346,21.97,0.365,32.94,0.023 c9.123-0.284,15.209-7.092,15.341-16.342C256.118,233.945,256.058,228.786,256.057,223.627z M129.34,192.045 c-5.16,0-10.319-0.055-15.478,0.012c-9.656,0.125-16.432,6.566-16.624,16.194c-0.208,10.48-0.231,20.974,0.016,31.452 c0.21,8.918,6.598,15.484,15.491,15.742c10.808,0.313,21.638,0.302,32.448,0.011c8.916-0.239,15.381-6.746,15.604-15.632 c0.269-10.645,0.28-21.308,0.002-31.951c-0.244-9.352-7.074-15.677-16.481-15.815C139.326,191.984,134.332,192.045,129.34,192.045z M128.646,160.199c5.158,0,10.318,0.052,15.477-0.011c9.976-0.121,16.573-6.555,16.716-16.55 c0.146-10.149,0.168-20.304-0.007-30.452c-0.168-9.726-6.773-16.213-16.44-16.307c-10.317-0.102-20.636-0.111-30.952,0.005 c-9.172,0.104-15.902,6.384-16.167,15.535c-0.309,10.641-0.273,21.302-0.017,31.947c0.225,9.388,6.959,15.672,16.414,15.818 C118.66,160.262,123.653,160.198,128.646,160.199z M33.416,160.191c5.49,0,10.984,0.113,16.471-0.026 c8.3-0.213,14.964-5.862,15.332-14.098c0.519-11.618,0.514-23.291,0.036-34.912c-0.34-8.262-6.952-14.108-15.197-14.245 c-10.812-0.181-21.63-0.179-32.442-0.008c-8.799,0.14-15.419,6.753-15.566,15.567c-0.179,10.812-0.213,21.632,0.015,32.443 c0.179,8.513,6.857,14.987,15.38,15.247C22.763,160.322,28.091,160.19,33.416,160.191z M224.723,96.858 c-5.325,0-10.65-0.076-15.973,0.017c-9.067,0.159-15.75,6.068-16.061,15.022c-0.386,11.133-0.394,22.301,0.021,33.432 c0.323,8.734,6.965,14.718,15.712,14.834c10.479,0.138,20.964,0.123,31.444,0.01c9.417-0.103,16.043-6.648,16.16-16.007 c0.132-10.48,0.144-20.965-0.006-31.445c-0.129-9.09-6.744-15.627-15.825-15.84C235.04,96.76,229.88,96.859,224.723,96.858zM51.012,1C63.26,5.718,65.52,9.076,65.521,22.567 c0,8.157,0.034,16.314-0.009,24.47c-0.061,11.642-6.329,17.947-17.833,17.973c-9.489,0.021-18.978,0.04-28.466-0.005 C8.649,64.955,2.071,58.416,2.01,47.906c-0.048-8.323,0.445-16.678-0.122-24.962C1.13,11.849,5.146,4.36,16.003,1 C27.673,1,39.342,1,51.012,1zM242.056,0c10.857,3.36,14.865,10.848,14.116,21.944 c-0.57,8.451-0.049,16.973-0.131,25.462c-0.096,9.884-6.763,16.515-16.695,16.591c-10.154,0.077-20.311,0.096-30.464-0.007 c-9.206-0.093-15.96-6.296-16.239-15.458c-0.33-10.81-0.263-21.643-0.019-32.457C192.834,6.8,198.993,2.45,207.047,0 C218.717,0,230.386,0,242.056,0zM146.033,1c12.483,4.584,14.84,8.049,14.84,21.82 c0,8.316,0.061,16.633-0.016,24.95c-0.098,10.575-6.657,17.174-17.107,17.232c-9.813,0.056-19.628,0.056-29.441,0 c-10.451-0.059-17.01-6.658-17.106-17.232c-0.077-8.316-0.016-16.633-0.016-24.95c0-13.771,2.356-17.235,14.839-21.82 C123.362,1,134.698,1,146.033,1z" ></path> </svg>