<?xml version="1.0" encoding="utf-8"?> <!-- Generator: IcoMoon.io --> <!DOCTYPE svg PUBLIC "-//W3C//DTD SVG 1.1//EN" "http://www.w3.org/Graphics/SVG/1.1/DTD/svg11.dtd"> <svg version="1.1" id="Layer_1" xmlns="http://www.w3.org/2000/svg" xmlns:xlink="http://www.w3.org/1999/xlink" x="0px" y="0px" width="256px" height="256px" viewBox="0 0 256 256" enable-background="new 0 0 256 256" xml:space="preserve"> <path d="M129.056,2c70.338-0.583,128.493,58.488,127.127,129.562 c-1.319,68.649-58.938,126.214-130.181,124.594C56.933,254.586-0.019,196.382,1.905,125.507C3.754,57.383,60.444,1.439,129.056,2z M192.208,129.069c0.003-34.938-27.918-63.173-62.515-63.218c-35.66-0.047-63.826,27.698-63.842,62.888 c-0.017,35.271,27.842,63.444,62.763,63.469C164.153,192.233,192.205,164.383,192.208,129.069z M27.19,86.184 c-12.455,24.362-11.903,63.709,0.198,85.629c9.255-3.929,18.526-7.863,28.136-11.942c-8.038-20.738-7.899-41.176-0.033-61.71 C45.712,94.022,36.439,90.098,27.19,86.184z M202.47,98.219c8.172,20.913,7.887,41.203,0.099,61.703 c9.828,4.139,19.197,8.086,28.543,12.021c12.654-27.436,11.062-64.359-0.393-85.715C221.464,90.157,212.189,94.094,202.47,98.219z M172.1,231.357c-4.24-9.97-8.189-19.255-12.269-28.845c-20.651,7.98-40.981,7.959-61.625-0.001 c-4.12,9.739-8.1,19.144-12.213,28.866C114.916,242.916,143.181,242.916,172.1,231.357z M85.957,26.699 c4.251,9.993,8.202,19.277,12.277,28.854c20.665-7.986,40.994-7.93,61.625-0.014c4.121-9.746,8.098-19.147,12.209-28.865 C143.126,15.219,114.863,15.204,85.957,26.699z" ></path> </svg>