<?xml version="1.0" encoding="utf-8"?> <!-- Generator: IcoMoon.io --> <!DOCTYPE svg PUBLIC "-//W3C//DTD SVG 1.1//EN" "http://www.w3.org/Graphics/SVG/1.1/DTD/svg11.dtd"> <svg version="1.1" id="Layer_1" xmlns="http://www.w3.org/2000/svg" xmlns:xlink="http://www.w3.org/1999/xlink" x="0px" y="0px" width="256px" height="256px" viewBox="0 0 256 256" enable-background="new 0 0 256 256" xml:space="preserve"> <path d="M252.606,110.897c-6.687,8.748-13.022,17.036-19.641,25.695 c-4.227-3.175-8.156-6.127-12.948-9.728c0,39.185,0,77.494,0,116.077c-60.944,0-121.192,0-181.975,0c0-38.437,0-76.818,0-116.432 c-4.976,3.648-9.031,6.623-13.667,10.022c-6.465-8.442-12.877-16.814-19.603-25.597c10.241-7.849,20.233-15.528,30.248-23.177 c29.65-22.644,59.381-45.184,88.878-68.025c3.871-2.998,6.124-2.649,9.689,0.174c12.402,9.821,25.083,19.292,37.667,28.882 c1.013,0.771,2.102,1.445,3.923,2.687c0-10.89,0-20.925,0-31.208c10.982,0,21.396,0,32.375,0c0,3.125,0,6.088,0,9.051 c0,13.831,0.153,27.665-0.094,41.49c-0.072,4.081,1.127,6.698,4.442,9.157C225.406,89.978,238.692,100.283,252.606,110.897z M128.672,59.301c-23.908,18.274-47.476,36.232-70.907,54.366c-1.233,0.955-1.833,3.408-1.838,5.167 c-0.105,33.986-0.082,67.973-0.063,101.959c0.001,1.418,0.212,2.836,0.313,4.107c13.638,0,26.739,0,40.474,0 c0-22.524,0-44.739,0-67.005c21.717,0,42.792,0,64.434,0c0,22.585,0,44.811,0,66.991c13.818,0,27.064,0,40.328,0 c0.196-0.773,0.418-1.241,0.418-1.708c0.026-35.152,0.072-70.305-0.079-105.458c-0.007-1.585-1.476-3.588-2.839-4.674 c-7.294-5.808-14.771-11.384-22.183-17.043C160.86,83.883,144.989,71.763,128.672,59.301z" ></path> </svg>