<?xml version="1.0" encoding="utf-8"?> <!-- Generator: IcoMoon.io --> <!DOCTYPE svg PUBLIC "-//W3C//DTD SVG 1.1//EN" "http://www.w3.org/Graphics/SVG/1.1/DTD/svg11.dtd"> <svg version="1.1" id="Layer_1" xmlns="http://www.w3.org/2000/svg" xmlns:xlink="http://www.w3.org/1999/xlink" x="0px" y="0px" width="256px" height="256px" viewBox="0 0 256 256" enable-background="new 0 0 256 256" xml:space="preserve"> <path d="M1,48.011c2.307,0.166,4.614,0.473,6.921,0.473 c80.807,0.025,161.613,0.021,242.42,0.021c2.125,0,4.251,0,6.544,0c0,58.887,0,117.165,0,176.052c-2.293,0-4.419,0-6.544,0 c-80.807,0-161.613-0.004-242.42,0.021c-2.307,0-4.614,0.308-6.921,0.473C1,166.038,1,107.024,1,48.011z M240.882,64.948 c-74.821,0-149.19,0-223.566,0c0,48.016,0,95.604,0,143.166c74.682,0,149.052,0,223.566,0 C240.882,160.237,240.882,112.788,240.882,64.948zM218.912,174.931c0,5.197,0,10.008,0,15.216c-61.52,0-122.907,0-184.6,0 c0-4.973,0-9.894,0-15.216C95.665,174.931,157.052,174.931,218.912,174.931zM106.493,148.598c-24.566,0-48.794,0-72.983,0 c-1.273-8.768,0.092-11.469,7.601-14.778c5.166-2.276,10.323-4.63,15.65-6.466c3.937-1.358,4.911-4.215,3.928-7.379 c-1.187-3.821-3.5-7.281-5.15-10.975c-0.835-1.871-1.844-3.929-1.789-5.874c0.103-3.629,1.01-7.229,1.43-10.858 c0.822-7.096,8.05-12.393,16.084-11.689c8.323,0.728,13.928,6.86,13.463,14.359c-0.13,2.097,1.043,4.269,0.954,6.378 c-0.11,2.601-0.619,5.277-1.486,7.733c-1.447,4.103-3.575,7.973-4.919,12.103c-0.942,2.897,0.538,4.938,3.551,6.063 c5.132,1.918,10.184,4.062,15.222,6.223C106.033,136.863,107.411,139.313,106.493,148.598zM129.278,112.78c32.067,0,63.671,0,95.524,0c0,5.196,0,10.135,0,15.413 c-31.798,0-63.536,0-95.524,0C129.278,123.074,129.278,118.135,129.278,112.78zM129.259,144.799c26.79,0,53.061,0,79.559,0c0,5.214,0,10.158,0,15.422 c-26.503,0-52.915,0-79.559,0C129.259,155.052,129.259,150.106,129.259,144.799zM192.901,80.928c0,5.146,0,9.955,0,15.178c-21.151,0-42.191,0-63.553,0 c0-4.929,0-9.843,0-15.178C150.323,80.928,171.362,80.928,192.901,80.928z" ></path> </svg>