<?xml version="1.0" encoding="utf-8"?> <!-- Generator: IcoMoon.io --> <!DOCTYPE svg PUBLIC "-//W3C//DTD SVG 1.1//EN" "http://www.w3.org/Graphics/SVG/1.1/DTD/svg11.dtd"> <svg version="1.1" id="Layer_1" xmlns="http://www.w3.org/2000/svg" xmlns:xlink="http://www.w3.org/1999/xlink" x="0px" y="0px" width="256px" height="256px" viewBox="0 0 256 256" enable-background="new 0 0 256 256" xml:space="preserve"> <path d="M252.239,129.035c0,68.354-54.689,122.6-123.588,122.586 C61.454,251.608,6.807,196.37,6.946,128.598C7.086,60.323,61.919,6.144,130.838,6.183 C197.627,6.221,252.239,61.486,252.239,129.035z M147.487,177.613c-0.345-1.014-0.544-1.327-0.545-1.642 c-0.041-15.32-0.073-30.642-0.089-45.963c-0.013-12.99,0.061-25.98-0.033-38.969c-0.045-6.203-1.865-8.646-7.164-8.728 c-14.153-0.218-28.312-0.212-42.465-0.019c-5.055,0.069-7.026,2.478-7.145,7.679c-0.11,4.826-0.109,9.661,0.001,14.488 c0.125,5.468,2.039,7.4,7.623,7.649c3.585,0.162,7.185,0.031,10.812,0.031c0,22.208,0,43.583,0,65.496 c-3.982,0-7.617-0.044-11.25,0.011c-4.433,0.067-6.829,2.475-6.968,6.801c-0.171,5.323-0.146,10.661,0.002,15.985 c0.12,4.312,2.387,6.795,6.862,6.906c2.995,0.074,5.99,0.137,8.986,0.139c16.654,0.011,33.308,0.071,49.962-0.031 c7.459-0.047,9.09-1.836,9.138-9.199c0.026-4.163,0.059-8.327-0.011-12.489c-0.102-6.113-1.902-7.92-8.129-8.126 C153.938,177.528,150.794,177.613,147.487,177.613z M127.438,27.827c-13.185,0.036-23.579,10.448-23.405,23.445 c0.173,12.918,10.804,23.253,23.839,23.176c12.645-0.074,23.079-10.584,23.155-23.323 C151.103,38.255,140.508,27.791,127.438,27.827z" ></path> </svg>