<?xml version="1.0" encoding="utf-8"?> <!-- Generator: IcoMoon.io --> <!DOCTYPE svg PUBLIC "-//W3C//DTD SVG 1.1//EN" "http://www.w3.org/Graphics/SVG/1.1/DTD/svg11.dtd"> <svg version="1.1" xmlns="http://www.w3.org/2000/svg" xmlns:xlink="http://www.w3.org/1999/xlink" x="0px" y="0px" width="256px" height="256px" viewBox="0 0 256 256" enable-background="new 0 0 256 256" xml:space="preserve"><g></g> <path d="M0,52.646L0,240.292L255.955,240.292L256,206.165L34.127,206.165L34.127,52.591L256,52.591L256,18.463L0,18.463L256,18.463L0,18.463 zM83.125,182.621v-6.243c6.091-0.197,9.707-0.604,10.847-1.222c1.141-0.602,1.917-1.614,2.328-3.038 c0.551-2.18,0.83-8.752,0.83-19.713v-45.593c0-12.438-0.074-19.387-0.225-20.85H86.019c-5.478,0-10.304,0.167-14.467,0.52 c-1.672,0.155-2.638,0.357-2.883,0.605c-0.357,0.311-0.667,1.195-0.916,2.669c-0.659,3.554-1.04,7.534-1.141,11.949h-6.328 c-0.198-10.401-0.326-16.264-0.376-17.575c-0.147-2.243-0.403-4.64-0.76-7.24l0.69-0.756c2.382,0.248,4.912,0.435,7.604,0.524 c4.361,0.155,12.749,0.232,25.171,0.232h30.727c12.776,0,21.323-0.078,25.637-0.232c2.328-0.089,4.688-0.276,7.069-0.524 l0.761,0.756c-0.45,3.096-0.729,5.808-0.835,8.155c-0.05,0.396-0.151,5.951-0.311,16.659h-6.315 c-0.097-3.957-0.431-7.732-0.985-11.344c-0.307-1.819-0.633-2.917-0.993-3.274c-0.299-0.248-1.114-0.431-2.433-0.527 c-4.159-0.4-9.16-0.598-14.991-0.598h-10.886c-0.159,1.761-0.233,8.714-0.233,20.85v45.593c0,10.961,0.279,17.552,0.838,19.791 c0.357,1.314,1.117,2.293,2.281,2.929c1.172,0.637,4.804,1.056,10.887,1.253v6.243c-9.832-0.458-18.111-0.684-24.854-0.684 C100.785,181.938,92.498,182.163,83.125,182.621zM169,76.133L171,76.133L171,182.623L169,182.623z" ></path> </svg>
