<?xml version="1.0" encoding="utf-8"?> <!-- Generator: IcoMoon.io --> <!DOCTYPE svg PUBLIC "-//W3C//DTD SVG 1.1//EN" "http://www.w3.org/Graphics/SVG/1.1/DTD/svg11.dtd"> <svg version="1.1" id="Layer_1" xmlns="http://www.w3.org/2000/svg" xmlns:xlink="http://www.w3.org/1999/xlink" x="0px" y="0px" width="256px" height="256px" viewBox="0 0 256 256" enable-background="new 0 0 256 256" xml:space="preserve"> <path d="M197.674,126.667c0,26.743,20.665,49.048,48.079,49.048c3.444,0,6.775-0.354,9.968-1.022V78.702 c-3.194-0.667-6.523-1.025-9.968-1.025C218.339,77.677,197.674,99.92,197.674,126.667zM181.021,126.667c0-35.377,28.808-63.761,64.731-63.761c3.393,0,6.721,0.259,9.968,0.749V25.039 c0-14.101-11.429-25.529-25.529-25.529H26.029C11.926-0.49,0.5,10.938,0.5,25.039v204.162c0,14.103,11.426,25.529,25.529,25.529 h204.162c14.101,0,25.529-11.426,25.529-25.529v-39.664c-3.427,0.611-6.964,0.95-10.577,0.95 C210.438,190.487,181.021,162.04,181.021,126.667z M144.065,194.923c0,30.085-11.548,47.652-42.366,47.652h-9.054 c-3.953,0-7.052-2.796-7.052-6.687c0-3.891,3.099-7.232,7.052-7.232h7.9c21.214,0,26.563-11.123,26.563-32.577V73.482 c0-4.742,3.949-8.328,8.751-8.328c4.802,0,8.207,3.585,8.207,8.328V194.923z M135.859,37.804c-5.653,0-10.455-4.5-10.455-10.029 c0-5.591,4.802-10.031,10.455-10.031c5.654,0,10.213,4.439,10.213,10.031C146.072,33.304,141.513,37.804,135.859,37.804z" ></path></svg>