<?xml version="1.0" encoding="utf-8"?> <!-- Generator: IcoMoon.io --> <!DOCTYPE svg PUBLIC "-//W3C//DTD SVG 1.1//EN" "http://www.w3.org/Graphics/SVG/1.1/DTD/svg11.dtd"> <svg version="1.1" id="Layer_1" xmlns="http://www.w3.org/2000/svg" xmlns:xlink="http://www.w3.org/1999/xlink" x="0px" y="0px" width="256px" height="256px" viewBox="0 0 256 256" enable-background="new 0 0 256 256" xml:space="preserve"> <path d="M15.281,227.717c4.093-12.35,7.924-24.221,12.036-35.995 c0.667-1.909,2.433-3.529,3.938-5.036c28.138-28.197,56.277-56.393,84.542-84.463c2.562-2.544,3.21-4.641,2.246-8.205 c-9.534-35.26,12.763-70.356,48.6-76.811c35.099-6.321,68.467,18.796,72.257,54.39c4.62,43.391-35.945,77.644-78.053,65.758 c-3.235-0.913-5.138-0.402-7.354,1.957c-4.216,4.485-8.771,8.651-13.987,13.729c4.679,3.842,9.024,7.411,13.2,10.838 c-9.298,9.389-17.547,17.717-26.028,26.28c-4.236-3.939-8.473-7.879-12.937-12.031c-4.022,3.625-8.064,7.033-11.784,10.764 c-1.108,1.112-1.79,3.106-1.848,4.725c-0.214,5.993-0.248,12.004-0.015,17.996c0.11,2.84-0.857,4.134-3.521,4.988 c-7.126,2.287-14.037,5.358-21.271,7.172c-8.182,2.053-14.51,6.305-19.296,13.024c-2.042,2.868-4.148,3.408-7.561,2.174 C37.674,235.074,26.759,231.577,15.281,227.717z M189.914,54.872c-5.95-0.014-10.781,4.7-10.868,10.605 c-0.089,6.098,4.934,11.108,11.014,10.985c5.747-0.115,10.855-5.279,10.773-10.886C200.749,59.826,195.708,54.885,189.914,54.872z" ></path> </svg>