<?xml version="1.0" encoding="utf-8"?> <!-- Generator: IcoMoon.io --> <!DOCTYPE svg PUBLIC "-//W3C//DTD SVG 1.1//EN" "http://www.w3.org/Graphics/SVG/1.1/DTD/svg11.dtd"> <svg version="1.1" id="Layer_1" xmlns="http://www.w3.org/2000/svg" xmlns:xlink="http://www.w3.org/1999/xlink" x="0px" y="0px" width="256px" height="256px" viewBox="0 0 256 256" enable-background="new 0 0 256 256" xml:space="preserve"> <path d="M248.831,240.286c-80.14,0-159.759,0-239.604,0c0-69.232,0-138.19,0-207.467 c79.855,0,159.617,0,239.604,0C248.831,102.01,248.831,170.968,248.831,240.286z M216.882,64.944c-58.815,0-117.183,0-175.565,0 c0,48.011,0,95.598,0,143.174c58.676,0,117.043,0,175.565,0C216.882,160.246,216.882,112.798,216.882,64.944zM171.17,174.294c-11.219-11.682-21.908-22.815-32.617-33.966 c-10.686,10.366-21.286,20.649-32.142,31.18c-9.638-9.932-19.35-19.941-29.629-30.535c-4.334,7.951-8.035,14.775-11.771,21.581 c-3.039,5.533-7.29,7.303-11.749,4.948c-4.437-2.343-5.364-6.832-2.341-12.467c6.992-13.031,14.076-26.013,21.363-39.456 c11.26,11.654,22.195,22.972,32.988,34.143c11.642-11.355,22.211-21.665,32.589-31.789c9.903,9.158,19.728,18.244,29.625,27.398 c0.312-0.582,1.113-1.995,1.842-3.447c7.601-15.17,15.189-30.348,22.786-45.521c0.596-1.189,1.15-2.41,1.855-3.533 c2.527-4.028,6.83-5.328,10.759-3.312c3.857,1.98,5.455,6.33,3.354,10.668c-5.801,11.978-11.832,23.842-17.772,35.75 C184.075,148.434,177.84,160.928,171.17,174.294z" ></path> </svg>