<?xml version="1.0" encoding="utf-8"?> <!-- Generator: IcoMoon.io --> <!DOCTYPE svg PUBLIC "-//W3C//DTD SVG 1.1//EN" "http://www.w3.org/Graphics/SVG/1.1/DTD/svg11.dtd"> <svg version="1.1" id="Layer_1" xmlns="http://www.w3.org/2000/svg" xmlns:xlink="http://www.w3.org/1999/xlink" x="0px" y="0px" width="256px" height="256px" viewBox="0 0 256 256" enable-background="new 0 0 256 256" xml:space="preserve"> <path d="M1,119.027c2.953-8.899,6.702-17.274,14.31-23.363 c7.423-5.941,15.755-9.161,25.3-9.154c15.499,0.012,30.998,0,46.497,0.003c20.261,0.005,34.201,9.999,40.599,29.101 c0.26,0.774,0.503,1.555,1.236,3.824c0.999-2.776,1.579-4.324,2.115-5.887c5.581-16.264,20.353-26.947,37.578-27.021 c16.164-0.071,32.331-0.064,48.496-0.004c22.488,0.082,39.974,17.543,39.889,39.947c-0.03,8.14,0.461,16.451-0.968,24.381 c-3.387,18.789-19.625,31.606-38.805,31.681c-15.666,0.061-31.331,0.021-46.997,0.011c-19.255-0.011-33.434-10.17-39.611-28.354 c-0.317-0.936-0.668-1.861-1.349-3.751c-0.614,2.193-1.003,3.529-1.361,4.872c-4.715,17.655-20.255,29.777-38.515,29.878 c-15.665,0.085-31.331,0.026-46.997,0.016c-20.008-0.013-34.568-10.88-40.369-30.083c-0.222-0.734-0.692-1.395-1.048-2.089 C1,141.699,1,130.363,1,119.027z M103.965,150.527c-5.396,0-9.683,0.087-13.964-0.018c-10.035-0.244-16.913-6.726-16.98-15.891 c-0.069-9.318,7.023-15.938,17.289-16.087c3.755-0.056,7.511-0.01,12.322-0.01c-3.545-4.96-7.285-7.539-12.178-7.587 c-16.818-0.165-33.645-0.382-50.454,0.033c-8.495,0.209-14.236,6.265-14.767,14.739c-0.426,6.803-0.408,13.677,0.029,20.479 c0.543,8.459,7.098,14.708,15.386,14.795c16.332,0.171,32.668,0.192,48.999-0.025C95.947,160.872,100.468,157.463,103.965,150.527z M155.509,150.529c3.405,5.083,7.264,7.533,12.112,7.588c16.816,0.189,33.643,0.39,50.45-0.025 c8.476-0.209,14.171-6.299,14.755-14.753c0.4-5.804,0.395-11.675,0.026-17.481c-0.513-8.074-6.073-14.591-13.645-14.782 c-17.471-0.44-34.963-0.293-52.441-0.021c-4.524,0.07-8.219,2.621-11.043,7.468c4.567,0,8.217-0.038,11.865,0.008 c10.333,0.13,17.429,6.625,17.449,15.927c0.021,9.353-6.97,15.863-17.316,16.061C163.973,150.589,160.223,150.529,155.509,150.529z " ></path> </svg>