<?xml version="1.0" encoding="utf-8"?> <!-- Generator: IcoMoon.io --> <!DOCTYPE svg PUBLIC "-//W3C//DTD SVG 1.1//EN" "http://www.w3.org/Graphics/SVG/1.1/DTD/svg11.dtd"> <svg version="1.1" id="Layer_1" xmlns="http://www.w3.org/2000/svg" xmlns:xlink="http://www.w3.org/1999/xlink" x="0px" y="0px" width="256px" height="256px" viewBox="0 0 256 256" enable-background="new 0 0 256 256" xml:space="preserve"> <path d="M242.056,1c10.876,3.363,15.172,10.891,14.037,21.967 c-0.237,2.309,0.076,4.67-0.067,6.994c-0.496,8.024-6.775,14.383-14.77,15.008c-1.491,0.116-2.998,0.04-4.498,0.04 c-71.818,0.001-143.638,0.002-215.457,0c-13.536,0-19.298-5.838-19.3-19.545c0-0.833,0.077-1.675-0.012-2.499 C0.795,11.895,5.127,4.363,16.003,1C91.354,1,166.705,1,242.056,1zM128.978,185.541c-35.983-0.001-71.966,0.006-107.95-0.004 c-13.041-0.004-19.016-5.926-19.026-18.801c-0.002-2.666-0.032-5.331,0.006-7.997c0.139-9.938,6.72-16.643,16.625-16.685 c18.158-0.077,36.316-0.022,54.475-0.022c54.808,0,109.617-0.003,164.424,0.002c12.301,0.001,18.507,6.146,18.526,18.309 c0.005,2.665,0.019,5.331-0.002,7.995c-0.084,10.58-6.473,17.069-17.129,17.178c-10.327,0.105-20.657,0.024-30.985,0.024 C181.621,185.541,155.299,185.541,128.978,185.541zM128.937,255.557c-35.983,0-71.966,0.007-107.95-0.003 C7.965,255.55,2.01,249.62,2.001,236.711c-0.002-3.165-0.132-6.338,0.037-9.494c0.44-8.25,6.888-14.65,15.136-15.146 c1.329-0.08,2.665-0.021,3.998-0.021c71.967,0,143.935-0.001,215.901,0.001c12.979,0,18.978,5.962,18.985,18.85 c0.001,2.499,0.018,4.997-0.003,7.496c-0.09,10.749-6.569,17.13-17.669,17.144C201.903,255.584,165.42,255.556,128.937,255.557zM128.998,71.85c36.149,0,72.297-0.005,108.446,0.002 c12.68,0.002,18.603,5.946,18.614,18.638c0.002,2.499,0.016,4.999-0.003,7.497c-0.078,10.709-6.408,17.168-17.05,17.188 c-24.987,0.048-49.975,0.016-74.963,0.016c-47.809,0-95.619,0.003-143.428-0.002c-12.68-0.002-18.603-5.947-18.614-18.639 c-0.002-2.332-0.008-4.664,0.001-6.997c0.043-11.37,6.257-17.687,17.55-17.694C56.034,71.834,92.516,71.85,128.998,71.85z" ></path> </svg>