<?xml version="1.0" encoding="utf-8"?> <!-- Generator: IcoMoon.io --> <!DOCTYPE svg PUBLIC "-//W3C//DTD SVG 1.1//EN" "http://www.w3.org/Graphics/SVG/1.1/DTD/svg11.dtd"> <svg version="1.1" id="Layer_1" xmlns="http://www.w3.org/2000/svg" xmlns:xlink="http://www.w3.org/1999/xlink" x="0px" y="0px" width="256px" height="256px" viewBox="0 0 256 256" enable-background="new 0 0 256 256" xml:space="preserve"> <path d="M193.044,108.475c5.474,0,10.411,0,15.673,0c0,48.047,0,95.626,0,143.647 c-58.279,0-116.647,0-175.363,0c0-47.67,0-95.373,0-143.515c5.093,0,10.052,0,15.657,0c0-7.372,0-14.323,0-21.272 c0-42.147,34.043-74.417,76.164-72.197c38.259,2.017,67.867,33.209,67.869,71.499C193.044,93.763,193.044,100.889,193.044,108.475z M160.897,108.285c0-8.072,0.236-15.559-0.048-23.024c-0.62-16.231-11.27-30.234-26.818-35.705 c-15.185-5.341-32.407-0.488-43.197,11.556c-12.476,13.924-9.532,30.636-9.705,47.173 C107.874,108.285,134.147,108.285,160.897,108.285z M105.921,220.186c8.883,0,17.254,0,26.04,0 c-1.915-10.359-3.712-20.307-5.612-30.235c-0.662-3.457-0.924-6.227,2.263-9.189c5.196-4.829,4.428-12.913-0.835-17.794 c-5.046-4.679-13.184-4.53-18.101,0.329c-4.85,4.794-5.384,12.838-0.413,17.493c2.966,2.778,2.996,5.337,2.314,8.776 C109.586,199.623,107.834,209.727,105.921,220.186z" ></path> </svg>