<?xml version="1.0" encoding="utf-8"?> <!-- Generator: IcoMoon.io --> <!DOCTYPE svg PUBLIC "-//W3C//DTD SVG 1.1//EN" "http://www.w3.org/Graphics/SVG/1.1/DTD/svg11.dtd"> <svg version="1.1" id="Layer_1" xmlns="http://www.w3.org/2000/svg" xmlns:xlink="http://www.w3.org/1999/xlink" x="0px" y="0px" width="256px" height="256px" viewBox="0 0 256 256" enable-background="new 0 0 256 256" xml:space="preserve"><g></g> <path d="M98.883,128.658c1.253-0.851,2.125-1.578,3.108-2.091c24.2-12.61,48.387-25.246,72.683-37.67 c1.469-0.751,4.194-0.415,5.693,0.486c9.563,5.743,19.676,7.768,30.674,5.712c20.802-3.889,35.983-24.174,33.813-45.336 c-2.247-21.926-21.312-38.986-42.726-38.233c-22.525,0.792-39.589,17.089-41.212,39.589c-0.229,3.19-1.361,4.821-4.256,6.306 c-23.69,12.146-47.295,24.459-70.841,36.883c-2.962,1.564-5.062,1.848-8.062-0.141c-8.385-5.56-17.863-7.285-27.732-5.842 c-17.229,2.519-31.356,15.702-34.958,32.176c-3.801,17.39,3.098,34.857,17.603,44.573c14.712,9.854,33.137,9.646,47.755-0.882 c2.738-1.972,4.62-2.03,7.514-0.506c22.964,12.104,46.005,24.063,69.077,35.96c2.636,1.358,3.652,2.763,3.751,6.001 c0.57,18.779,12.997,34.471,30.64,39.345c17.634,4.873,36.489-2.107,46.475-17.203c10.147-15.341,9.37-35.088-1.948-49.476 c-11.208-14.249-30.791-21.02-46.916-13.151c-10.057,4.908-16.91,2.512-24.761-2.399c-1.124-0.703-2.353-1.238-3.532-1.853 C140.225,150.217,119.725,139.527,98.883,128.658z" ></path> </svg>
