<?xml version="1.0" encoding="UTF-8" ?>
<!-- Generator: IcoMoon.io -->

<svg
   xmlns:dc="http://purl.org/dc/elements/1.1/"
   xmlns:cc="http://creativecommons.org/ns#"
   xmlns:rdf="http://www.w3.org/1999/02/22-rdf-syntax-ns#"
   xmlns:svg="http://www.w3.org/2000/svg"
   xmlns="http://www.w3.org/2000/svg"
   xmlns:sodipodi="http://sodipodi.sourceforge.net/DTD/sodipodi-0.dtd"
   xmlns:inkscape="http://www.inkscape.org/namespaces/inkscape"
   version="1.1"
   id="Layer_1"
   x="0px"
   y="0px"
   width="256"
   height="256"
   viewBox="0 0 256 256"
   enable-background="new 0 0 256.059 256.059"
   xml:space="preserve"
   inkscape:version="0.48.4 r9939"
   sodipodi:docname="page.svg"><path
     d="m 24.000001,0.499998 0,127.500002 0,127.5 103.999999,0 104,0 0,-91.21875 0,-91.250002 -36.25,-36.25 -36.25,-36.28125 -67.749999,0 -67.75,0 z m 32,31 44.281249,0 44.3125,0 3.6875,3.8125 3.71875,3.78125 0,20.21875 0,20.1875 20.28125,0 20.3125,0 3.6875,3.8125 3.71875,3.781254 0,68.718748 0,68.6875 -72,0 -71.999999,0 0,-96.5 0,-96.500002 z"
     id="path3688"
     inkscape:connector-curvature="0" /></svg>
