<?xml version="1.0" encoding="UTF-8" ?>
<!-- Generator: IcoMoon.io -->

<svg
   xmlns:dc="http://purl.org/dc/elements/1.1/"
   xmlns:cc="http://creativecommons.org/ns#"
   xmlns:rdf="http://www.w3.org/1999/02/22-rdf-syntax-ns#"
   xmlns:svg="http://www.w3.org/2000/svg"
   xmlns="http://www.w3.org/2000/svg"
   xmlns:sodipodi="http://sodipodi.sourceforge.net/DTD/sodipodi-0.dtd"
   xmlns:inkscape="http://www.inkscape.org/namespaces/inkscape"
   version="1.1"
   id="Layer_1"
   x="0px"
   y="0px"
   width="256"
   height="256"
   viewBox="0 0 256 256"
   enable-background="new 0 0 256.059 256.059"
   xml:space="preserve"
   inkscape:version="0.48.4 r9939"
   sodipodi:docname="pages.svg"><path
     d="m 65,1.5 0,23.5 0,23.5 -24,0 -24,0 0,103 0,103 87,0 87,0 0,-23.5 0,-23.5 24,0 24,0 -0.0625,-70.75 L 238.9063,66 208.875,33.75 178.8437,1.5 121.9063,1.5 65,1.5 z m 31.5,31.5 31.5,0 31.5,0 0.25,23.75 0.2813,23.75 23.4687,0 23.5,0 0,47.5 0,47.5 -55.5313,0 -55.5,0 0.25,-71.25 L 96.5,33 z M 49,80.5 l 8,0 8,0 0,63.5 0,63.5 47.5,0 47.5,0 0,8 0,8 -55.5,0 -55.5,0 0,-71.5 0,-71.5 z"
     id="path3648"
     inkscape:connector-curvature="0" /></svg>
