<?xml version="1.0" encoding="UTF-8" standalone="no"?>
<!-- Created with Inkscape (http://www.inkscape.org/) -->

<svg
   xmlns:dc="http://purl.org/dc/elements/1.1/"
   xmlns:cc="http://creativecommons.org/ns#"
   xmlns:rdf="http://www.w3.org/1999/02/22-rdf-syntax-ns#"
   xmlns:svg="http://www.w3.org/2000/svg"
   xmlns="http://www.w3.org/2000/svg"
   version="1.1"
   width="256"
   height="256"
   viewBox="0 0 256 256"
   id="Layer_1"
   xml:space="preserve"><metadata
     id="metadata9"><rdf:RDF><cc:Work
         rdf:about=""><dc:format>image/svg+xml</dc:format><dc:type
           rdf:resource="http://purl.org/dc/dcmitype/StillImage" /><dc:title></dc:title></cc:Work></rdf:RDF></metadata><defs
     id="defs7" /><path
     d="m 221.82751,89.560929 -14.68654,0 c -5.95471,0 -11.41418,2.253453 -15.67228,5.800686 -0.15402,0.123217 -0.34122,0.123217 -0.46206,0.21563 -5.03058,3.331603 -8.82662,8.023335 -12.83591,13.020735 -8.97827,11.1085 -19.16028,23.78803 -47.63766,26.9348 -6.44757,0.73931 -11.07533,6.54236 -10.36683,12.98994 0.64689,6.01631 5.73908,10.45924 11.66061,10.45924 0.43363,0 0.86489,-0.0332 1.32932,-0.0616 24.12687,-2.68471 39.05985,-11.26252 49.33426,-20.36401 l 0,78.05962 63.98763,0 0,-102.40212 c 0,-13.57521 -11.1085,-24.652911 -24.65054,-24.652921 z M 113.00542,149.29282 c -0.61609,-5.76988 1.60419,-11.1085 5.36942,-14.99458 -22.956304,-4.38132 -32.36583,-15.57986 -40.540816,-25.70263 -3.980862,-4.9666 -7.77453,-9.686762 -12.805108,-13.020735 -0.154021,-0.09241 -0.338847,-0.09241 -0.462064,-0.21563 C 60.277947,91.809643 54.846913,89.55856 48.863771,89.55856 l -14.655735,0 C 20.630452,89.560929 9.52195,100.63863 9.52195,114.21384 l 0,102.40212 64.020799,0 0,-78.21364 c 9.347918,8.17736 22.555851,15.95189 42.855881,19.3451 -1.69661,-2.46672 -3.02356,-5.24384 -3.39321,-8.4546 z m 74.35682,-93.209048 c 0,14.994582 12.15822,27.119625 27.09119,27.119625 15.02539,0 27.18361,-12.125043 27.18361,-27.119625 -0.002,-14.963778 -12.16059,-27.119626 -27.18598,-27.119626 -14.9306,0 -27.08882,12.155848 -27.08882,27.119626 z m -118.724482,0 c 0,14.994582 -12.155848,27.119625 -27.088822,27.119625 -15.025386,0 -27.150429,-12.125043 -27.150429,-27.119625 -0.0024,-14.963778 12.122674,-27.119626 27.150429,-27.119626 14.932974,0 27.088822,12.155848 27.088822,27.119626 z"
     id="path3089" /></svg>