<?xml version="1.0" encoding="utf-8"?> <!-- Generator: IcoMoon.io --> <!DOCTYPE svg PUBLIC "-//W3C//DTD SVG 1.1//EN" "http://www.w3.org/Graphics/SVG/1.1/DTD/svg11.dtd"> <svg version="1.1" id="Layer_1" xmlns="http://www.w3.org/2000/svg" xmlns:xlink="http://www.w3.org/1999/xlink" x="0px" y="0px" width="256px" height="256px" viewBox="0 0 256 256" enable-background="new 0 0 256 256" xml:space="preserve"><g></g> <path d="M144.625,62.927c16.114,16.415,31.974,32.573,48.128,49.031 c-3.874,3.796-8.036,7.816-12.135,11.901c-28.67,28.572-57.359,57.124-85.954,85.772c-4.172,4.179-8.852,6.634-14.729,7.604 c-13.291,2.191-26.51,4.823-39.75,7.324c-8.087,1.526-10.218-0.581-8.703-8.619c2.833-15.034,5.484-30.104,8.539-45.092 c0.594-2.919,2.087-6.121,4.162-8.2c32.707-32.773,65.576-65.384,98.414-98.026C143.061,64.161,143.603,63.777,144.625,62.927z M71.109,194.48c-6.18-6.498-11.69-12.291-17.725-18.637c-1.544,8.693-2.947,16.211-4.191,23.755 c-0.716,4.342,5.201,10.243,9.495,9.565c6.078-0.959,12.194-1.774,18.188-3.123c2.577-0.579,5.401-1.821,7.242-3.644 c28.648-28.347,57.154-56.837,85.688-85.3c1.163-1.161,2.268-2.38,2.94-3.089c-3.441-3.797-6.721-7.417-10.662-11.766 C131.724,133.024,101.572,163.594,71.109,194.48zM204.679,100.343c-16.515-16.518-32.476-32.48-48.216-48.225 c5.203-5.526,10.455-11.723,16.387-17.181c3.784-3.48,9.882-2.85,13.703,0.854c11.104,10.765,22.146,21.602,32.95,32.666 c5.404,5.534,4.977,11.563-0.485,17.19C214.271,90.538,209.501,95.404,204.679,100.343z" ></path> </svg>
