<?xml version="1.0" encoding="utf-8"?> <!-- Generator: IcoMoon.io --> <!DOCTYPE svg PUBLIC "-//W3C//DTD SVG 1.1//EN" "http://www.w3.org/Graphics/SVG/1.1/DTD/svg11.dtd"> <svg version="1.1" id="Layer_1" xmlns="http://www.w3.org/2000/svg" xmlns:xlink="http://www.w3.org/1999/xlink" x="0px" y="0px" width="256px" height="256px" viewBox="0 0 256 256" enable-background="new 0 0 256 256" xml:space="preserve"><g></g> <path d="M1,188.043c0.574-3.396,1.371-6.771,1.669-10.188 c0.499-5.711,3.438-9.834,8.311-12.241c7.741-3.825,15.703-7.209,23.62-10.667c9.604-4.195,19.243-8.31,28.902-12.375 c2.431-1.023,3.408-2.446,3.453-5.248c0.108-6.795,0.973-13.558-4.16-19.292c-1.356-1.516-1.864-3.883-2.495-5.94 c-1.295-4.229-1.814-8.172-6.496-11.187c-5.925-3.813-5.334-15.789-0.31-20.614c0.783-0.751,1.233-2.063,1.399-3.182 c0.166-1.11-0.159-2.316-0.375-3.459c-5.706-30.104,22.169-43.395,42.379-39.027c19.19,4.146,29.159,17.926,26.881,37.412 c-0.42,3.597-1.214,6.57,2.221,10.082c5.318,5.436,2.214,17.138-4.314,20.942c-1.176,0.686-2.004,2.263-2.593,3.604 c-2.317,5.274-5.264,10.447-6.477,15.986c-1.271,5.803-0.994,11.986-0.926,17.998c0.009,0.849,2.597,1.835,4.11,2.476 c13.33,5.637,26.509,11.692,40.086,16.662c13.575,4.971,21.416,13.049,20.692,28.373c-0.562,11.909-0.112,23.865-0.112,36.393 c-1.933,0-3.727,0-5.519,0c-54.836,0-109.672,0.005-164.508-0.021c-1.813-0.001-3.626-0.312-5.44-0.479 C1,212.049,1,200.046,1,188.043zM256.215,224.329c-19.054,0-38.008,0-57.613,0c0-4.39,0.181-8.648-0.033-12.887 c-0.78-15.44-1.616-30.878-2.626-46.303c-0.17-2.605-1.22-5.173-2.008-7.712c-1.518-4.899-4.727-7.866-9.94-8.577 c-5.604-0.764-11.197-1.614-16.78-2.52c-1.778-0.288-3.51-0.875-6.202-1.567c4.647-3.767,8.677-7.032,11.932-9.67 c-2.113-5.935-3.965-11.385-6.037-16.75c-0.47-1.216-1.516-2.433-2.622-3.141c-6.161-3.947-7.629-14.347-2.875-19.874 c0.994-1.156,1.633-3.011,1.641-4.546c0.021-4.312-1.052-8.715-0.484-12.92c2.087-15.47,17.919-26.505,34.71-24.558 c10.668,1.237,19.273,5.833,25.072,15.24c4.294,6.965,2.985,14.412,2.645,21.877c-0.079,1.73,0.735,3.888,1.874,5.218 c4.198,4.901,2.729,15.678-2.629,19.382c-1.498,1.033-2.536,2.972-3.354,4.7c-1.979,4.178-4.394,8.327-5.351,12.764 c-1.152,5.35-1.097,10.982-1.229,16.499c-0.017,0.69,1.938,1.592,3.104,2.119c5.911,2.676,11.826,5.352,17.811,7.859 c13.12,5.5,20.452,15.228,20.917,29.481C256.521,200.228,256.215,212.033,256.215,224.329z" ></path> </svg>
