<?xml version="1.0" encoding="utf-8"?> <!-- Generator: IcoMoon.io --> <!DOCTYPE svg PUBLIC "-//W3C//DTD SVG 1.1//EN" "http://www.w3.org/Graphics/SVG/1.1/DTD/svg11.dtd"> <svg version="1.1" id="Layer_1" xmlns="http://www.w3.org/2000/svg" xmlns:xlink="http://www.w3.org/1999/xlink" x="0px" y="0px" width="256px" height="256px" viewBox="0 0 256 256" enable-background="new 0 0 256 256" xml:space="preserve"><g></g> <path d="M121.028,1c4.667,0,9.335,0,14.003,0c1.041,0.352,2.058,0.844,3.128,1.035c21.47,3.814,43.146,22.108,39.026,49.971 c-0.678,4.584-0.931,9.231-1.362,13.668c8.389,4.459,7.65,12.252,7.411,19.386c-0.252,7.517-5.136,12.912-11.996,14.769 c-1.874,10.124-4.213,20.143-11.322,28.272c-0.661,0.756-0.826,2.139-0.841,3.236c-0.072,5.831,0.064,11.665-0.056,17.496 c-0.059,2.835,0.94,4.549,3.632,5.689c12.861,5.451,25.69,10.983,38.477,16.61c12.615,5.552,25.277,11.021,37.692,16.996 c5.535,2.665,9.491,7.268,10.776,13.651c3.615,17.958,2.51,36.094,2.505,54.43c-83,0-165.549,0-248.278,0 c0-12.118-0.448-23.913,0.091-35.662c1.21-26.388,4.06-30.251,28.378-40.503c18.389-7.752,36.769-15.537,55.335-22.845 c6.802-2.678,10.267-6.313,8.994-13.958c-0.621-3.729-0.007-7.651-0.166-11.478c-0.059-1.414-0.333-3.135-1.184-4.149 c-6.112-7.294-8.653-15.979-10.375-25.069c-0.229-1.209-1.249-2.946-2.241-3.222c-6.207-1.728-8.47-6.721-10.033-12.026 c-2.488-8.444,1.034-18.422,7.269-21.39c-0.456-4.225-0.85-8.524-1.395-12.804c-2.628-20.621,5.976-37.149,24.732-46.17 C108.821,4.247,115.077,2.94,121.028,1z" ></path> </svg>
