<?xml version="1.0" encoding="utf-8"?> <!-- Generator: IcoMoon.io --> <!DOCTYPE svg PUBLIC "-//W3C//DTD SVG 1.1//EN" "http://www.w3.org/Graphics/SVG/1.1/DTD/svg11.dtd"> <svg version="1.1" id="Layer_1" xmlns="http://www.w3.org/2000/svg" xmlns:xlink="http://www.w3.org/1999/xlink" x="0px" y="0px" width="256px" height="256px" viewBox="0 0 256 256" enable-background="new 0 0 256 256" xml:space="preserve"><g></g> <path d="M63.015,129.156c0-23.319-0.014-46.64,0.006-69.96 c0.01-12.553,9.143-22.466,21.782-22.591c28.147-0.28,56.302-0.28,84.45-0.001c12.64,0.126,21.781,10.039,21.785,22.589 c0.015,46.807,0.012,93.613,0.002,140.42c-0.003,12.659-8.955,22.675-21.534,22.819c-28.314,0.327-56.636,0.326-84.949,0.001 c-12.58-0.145-21.531-10.159-21.538-22.817C63.005,176.13,63.015,152.644,63.015,129.156z M87.01,69.769 c0,40.132,0,79.793,0,119.322c27.036,0,53.586,0,80.125,0c0-39.991,0-79.535,0-119.322C140.311,69.769,113.879,69.769,87.01,69.769 z M127.017,58.418c5.495,0,10.992,0.105,16.484-0.038c3.42-0.089,6.452-1.238,6.46-5.356c0.008-4.115-3.011-5.34-6.436-5.375 c-10.989-0.11-21.979-0.112-32.968-0.004c-3.418,0.034-6.452,1.237-6.46,5.355c-0.008,4.115,3.008,5.287,6.437,5.377 C116.024,58.52,121.522,58.416,127.017,58.418z M136.005,206.181c0.093-4.39-3.951-8.286-8.717-8.399 c-4.78-0.114-8.973,3.466-9.235,7.884c-0.269,4.531,3.994,8.643,8.967,8.647C131.795,214.317,135.913,210.591,136.005,206.181z" ></path> </svg>
