<?xml version="1.0" encoding="utf-8"?> <!-- Generator: IcoMoon.io --> <!DOCTYPE svg PUBLIC "-//W3C//DTD SVG 1.1//EN" "http://www.w3.org/Graphics/SVG/1.1/DTD/svg11.dtd"> <svg version="1.1" id="Layer_1" xmlns="http://www.w3.org/2000/svg" xmlns:xlink="http://www.w3.org/1999/xlink" x="0px" y="0px" width="256px" height="256px" viewBox="0 0 256 256" enable-background="new 0 0 256 256" xml:space="preserve"><g></g> <path d="M252.238,129.561c-0.062,69.779-57.863,124.312-125.814,122.591 c-66.31-1.681-120.687-56.805-119.48-124.896C8.138,59.891,64.334,5.069,132.983,6.922 C197.601,8.666,252.16,61.579,252.238,129.561z M52.082,151.866c18.642,0,36.759,0,55.603,0c0,18.604,0,36.811,0,54.918 c15.112,0,29.486,0,44.4,0c0-18.505,0-36.571,0-55.087c18.646,0,36.746,0,54.972,0c0-15.003,0-29.539,0-44.559 c-18.508,0-36.595,0-55.206,0c0-18.556,0-36.631,0-55.004c-14.925,0-29.315,0-44.265,0c0,18.361,0,36.444,0,55.105 c-18.787,0-37.025,0-55.503,0C52.082,122.264,52.082,136.703,52.082,151.866z" ></path> </svg>
