<?xml version="1.0" encoding="utf-8"?> <!-- Generator: IcoMoon.io --> <!DOCTYPE svg PUBLIC "-//W3C//DTD SVG 1.1//EN" "http://www.w3.org/Graphics/SVG/1.1/DTD/svg11.dtd"> <svg version="1.1" id="Layer_1" xmlns="http://www.w3.org/2000/svg" xmlns:xlink="http://www.w3.org/1999/xlink" x="0px" y="0px" width="256px" height="256px" viewBox="0 0 256 256" enable-background="new 0 0 256 256" xml:space="preserve"><g></g> <path d="M174.858,33.556c0,12.355,0.138,24.176-0.085,35.991c-0.065,3.508,1.032,5.688,3.729,7.96 c26.16,22.05,34.765,57.795,21.585,88.785c-13.543,31.844-45.54,51.004-79.852,46.886c-31.011-3.721-52.894-20.649-63.904-49.704 c-10.816-28.544-6.172-55.845,14.956-77.933c9.163-9.58,12.585-18.638,11.414-30.968c-0.653-6.864-0.117-13.841-0.117-21.035 C48.79,46.603,9.087,89.646,16.202,150.104c6.512,55.341,53.532,98.019,109.176,99.384c57.465,1.412,105.984-38.631,115.165-95.872 C249.61,97.072,214.511,49.512,174.858,33.556z M151.852,84.493c0-19.982,0.06-39.966-0.024-59.948 c-0.042-10.03-6.422-16.604-16.384-17.064c-3.656-0.169-7.326-0.052-10.99-0.039c-12.724,0.043-18.974,6.285-18.987,19.04 c-0.022,22.98-0.007,45.961-0.006,68.941c0,16.32-0.081,32.639,0.034,48.958c0.07,10.122,5.617,16.246,15.657,17.227 c4.456,0.435,8.991,0.416,13.469,0.182c11.268-0.591,17.209-6.996,17.226-18.346C151.874,123.793,151.854,104.143,151.852,84.493z" ></path> </svg>
