<?xml version="1.0" encoding="utf-8"?> <!-- Generator: IcoMoon.io --> <!DOCTYPE svg PUBLIC "-//W3C//DTD SVG 1.1//EN" "http://www.w3.org/Graphics/SVG/1.1/DTD/svg11.dtd"> <svg version="1.1" id="Layer_1" xmlns="http://www.w3.org/2000/svg" xmlns:xlink="http://www.w3.org/1999/xlink" x="0px" y="0px" width="256px" height="256px" viewBox="0 0 256 256" enable-background="new 0 0 256 256" xml:space="preserve"><g></g> <path d="M252.239,128.995c0.001,68.432-54.672,122.642-123.672,122.627 C61.605,251.606,6.988,196.485,6.953,128.885C6.917,60.591,61.808,6.153,130.677,6.183 C197.644,6.212,252.239,61.369,252.239,128.995z M106.033,142.684c0,4.497-0.092,8.997,0.021,13.492 c0.178,7.073,2.146,9.229,9.262,9.584c5.483,0.274,11,0.278,16.484,0.021c7.358-0.345,9.964-2.473,9.186-9.91 c-0.979-9.361,2.335-13.56,11.166-17.173c19.245-7.872,28.256-23.19,27.38-44.278c-0.798-19.213-11.421-34.866-28.95-41.717 c-11.547-4.514-23.536-5.018-35.366-2.25c-9.784,2.289-19.459,5.496-28.72,9.394c-5.81,2.444-6.368,6.133-4.149,12.045 c1.636,4.358,3.347,8.689,5.007,13.039c2.662,6.978,5.149,8.068,12.174,5.176c8.353-3.438,16.771-6.448,26.032-6.105 c11.747,0.436,17.75,8.546,13.028,19.22c-1.738,3.93-6.208,7.209-10.186,9.443c-4.56,2.56-10.003,3.506-14.977,5.38 c-5.05,1.902-7.65,5.551-7.434,11.149C106.164,133.684,106.025,138.186,106.033,142.684z M148.213,203.766 c0.097-13.179-10.406-23.977-23.475-24.136c-13.524-0.166-24.053,10.227-24.149,23.836c-0.093,13.197,10.319,23.746,23.6,23.91 C137.143,227.535,148.118,216.75,148.213,203.766z" ></path> </svg>
