<?xml version="1.0" encoding="utf-8"?> <!-- Generator: IcoMoon.io --> <!DOCTYPE svg PUBLIC "-//W3C//DTD SVG 1.1//EN" "http://www.w3.org/Graphics/SVG/1.1/DTD/svg11.dtd"> <svg version="1.1" id="Layer_1" xmlns="http://www.w3.org/2000/svg" xmlns:xlink="http://www.w3.org/1999/xlink" x="0px" y="0px" width="256px" height="256px" viewBox="0 0 256 256" enable-background="new 0 0 256 256" xml:space="preserve"><g></g> <path d="M54.948,97.247c18.795-38.724,51.372-49.238,75.257-48.707c23.723,0.527,43.554,9.833,60.18,28.662 c-10.122,0-18.918-0.079-27.71,0.028c-5.614,0.068-6.947,2.534-3.881,7.195c3.659,5.563,7.525,10.991,11.307,16.473 c10.021,14.53,20.009,29.083,30.086,43.573c3.182,4.573,6.84,5.091,9.623,1.101c14.287-20.486,28.452-41.059,42.523-61.694 c2.768-4.058,1.251-6.501-3.841-6.642c-5.161-0.143-10.34-0.236-15.491,0.036c-3.265,0.172-4.951-0.962-6.575-3.848 C193.047,14.15,114.569-1.757,60.7,39.778C45.265,51.679,33.694,66.589,25.9,84.932C35.712,89.091,45.166,93.1,54.948,97.247z M71.824,183.852c8.047,0,15.192,0.136,22.325-0.095c1.793-0.059,4.424-0.847,5.07-2.114c0.623-1.222-0.372-3.83-1.427-5.261 c-13.457-18.212-27.019-36.346-40.635-54.44c-3.539-4.702-7.354-4.687-10.916,0.053c-13.606,18.104-27.156,36.25-40.598,54.474 c-1.039,1.409-1.987,4.066-1.338,5.221c0.719,1.276,3.303,1.986,5.115,2.072c5.485,0.259,11.014,0.408,16.479-0.002 c4.224-0.316,6.447,1.261,8.688,4.779c44.583,69.993,146.756,69.02,190.08-1.761c2.807-4.588,5.071-9.508,7.746-14.573 c-10.329-4.352-19.893-8.381-29.426-12.396C175.51,218.404,105.287,220.581,71.824,183.852z" ></path> </svg>
