<?xml version="1.0" encoding="utf-8"?> <!-- Generator: IcoMoon.io --> <!DOCTYPE svg PUBLIC "-//W3C//DTD SVG 1.1//EN" "http://www.w3.org/Graphics/SVG/1.1/DTD/svg11.dtd"> <svg version="1.1" id="Layer_1" xmlns="http://www.w3.org/2000/svg" xmlns:xlink="http://www.w3.org/1999/xlink" x="0px" y="0px" width="256px" height="256px" viewBox="0 0 256 256" enable-background="new 0 0 256 256" xml:space="preserve"><g></g> <path d="M4.174,2.37c0,14.009,0.054,27.648-0.039,41.285c-0.023,3.34,2.065,2.948,4.29,3.239 c14.982,1.962,30.45,2.308,44.833,6.419c84.955,24.287,136.587,80.199,154.73,166.686c2.304,10.982,2.732,22.359,4.043,33.661 c14.466,0,29.162,0,43.856,0C254.957,111.604,135.967,1.417,4.174,2.37z M4.444,133.804c33.038,1.277,61.122,13.112,84.091,36.238 c22.934,23.088,34.405,51.327,35.68,83.719c15.029,0,29.612,0,44.183,0c1.012-35.865-14.623-86.046-55.695-122.304 C81.862,104.231,45.775,90.312,4.167,89.204c0,14.077-0.006,27.387,0.01,40.696C4.178,131.04,4.329,132.178,4.444,133.804z M70.016,222.226c0.035-18.9-15.022-34.133-33.792-34.183c-18.804-0.05-34.147,15.113-34.222,33.818 c-0.076,18.768,15.136,34.133,33.857,34.196C54.708,256.121,69.98,240.994,70.016,222.226z" ></path> </svg>
