<?xml version="1.0" encoding="utf-8"?> <!-- Generator: IcoMoon.io --> <!DOCTYPE svg PUBLIC "-//W3C//DTD SVG 1.1//EN" "http://www.w3.org/Graphics/SVG/1.1/DTD/svg11.dtd"> <svg version="1.1" id="Layer_1" xmlns="http://www.w3.org/2000/svg" xmlns:xlink="http://www.w3.org/1999/xlink" x="0px" y="0px" width="256px" height="256px" viewBox="0 0 256 256" enable-background="new 0 0 256 256" xml:space="preserve"><g></g> <path d="M167.38,200.181c-16.726,10.854-34.8,16.862-54.617,17.385 C55.78,219.067,8.758,175.93,5.505,119.134C1.914,56.462,54.694,4.954,117.525,9.812c73.911,5.714,118.29,84.33,84.87,150.549 c-1.697,3.365-1.204,5.132,1.311,7.604c13.901,13.672,27.749,27.402,41.379,41.344c11.368,11.628,10.23,28.496-2.192,37.487 c-9.701,7.022-22.801,5.79-31.887-3.206c-13.38-13.251-26.646-26.616-39.97-39.925C169.878,202.507,168.668,201.404,167.38,200.181 z M37.555,113.767c0.479,40.326,32.806,71.669,73.176,71.52c37.635-0.14,72.031-32.715,70.575-74.498 c-1.308-37.546-33.734-70.33-74.553-69.091C69.221,42.837,37.102,75.649,37.555,113.767z" ></path> </svg>
