<?xml version="1.0" encoding="utf-8"?> <!-- Generator: IcoMoon.io --> <!DOCTYPE svg PUBLIC "-//W3C//DTD SVG 1.1//EN" "http://www.w3.org/Graphics/SVG/1.1/DTD/svg11.dtd"> <svg version="1.1" id="Layer_1" xmlns="http://www.w3.org/2000/svg" xmlns:xlink="http://www.w3.org/1999/xlink" x="0px" y="0px" width="256px" height="256px" viewBox="0 0 256 256" enable-background="new 0 0 256 256" xml:space="preserve"><g></g> <path d="M35.644,246.392c15.165-15.209,30.525-30.611,46.967-47.101c8.558,8.582,17.041,17.089,25.123,25.194 c0-24.016,0-48.769,0-73.646c-25.018,0-49.744,0-76.22,0c9.623,9.536,18.19,18.026,27.218,26.972 c-15.556,15.549-30.841,30.829-45.839,45.82C20.188,230.93,27.465,238.21,35.644,246.392z M175.794,60.548 c-9.016-9.096-17.462-17.617-25.354-25.578c0,23.789,0,48.498,0,72.947c25.031,0,49.653,0,74.274,0 c0.271-0.455,0.542-0.908,0.812-1.362c-8.462-8.394-16.925-16.788-25.749-25.542c15.185-15.179,30.467-30.455,45.386-45.369 c-7.438-7.439-14.796-14.796-22.263-22.262C207.947,28.354,192.672,43.648,175.794,60.548z" ></path> </svg>
