<?xml version="1.0" encoding="utf-8"?> <!-- Generator: IcoMoon.io --> <!DOCTYPE svg PUBLIC "-//W3C//DTD SVG 1.1//EN" "http://www.w3.org/Graphics/SVG/1.1/DTD/svg11.dtd"> <svg version="1.1" id="Layer_1" xmlns="http://www.w3.org/2000/svg" xmlns:xlink="http://www.w3.org/1999/xlink" x="0px" y="0px" width="256px" height="256px" viewBox="0 0 256 256" enable-background="new 0 0 256 256" xml:space="preserve"><g></g> <path d="M232.053,129.629c0,29.828,0.01,59.655-0.004,89.483 c-0.007,17.487-12.741,30.419-30.133,30.435c-49.323,0.044-98.648,0.052-147.973-0.004c-17.112-0.02-29.928-12.997-29.932-30.129 c-0.015-59.989-0.018-119.978,0.001-179.967c0.005-16.805,12.86-29.898,29.629-29.924c49.657-0.075,99.316-0.085,148.972,0.007 c16.486,0.031,29.407,13.171,29.428,29.615C232.08,69.307,232.053,99.468,232.053,129.629z M201.922,39.903 c-49.531,0-98.592,0-147.771,0c0,54.958,0,109.529,0,164.349c49.363,0,98.423,0,147.771,0 C201.922,149.394,201.922,94.823,201.922,39.903z M113.51,219.85c0,5.014,0,9.562,0,14.321c9.826,0,19.332,0,29.038,0 c0-4.93,0-9.479,0-14.321C132.846,219.85,123.458,219.85,113.51,219.85z" ></path> </svg>
