<?xml version="1.0" encoding="utf-8"?> <!-- Generator: IcoMoon.io --> <!DOCTYPE svg PUBLIC "-//W3C//DTD SVG 1.1//EN" "http://www.w3.org/Graphics/SVG/1.1/DTD/svg11.dtd"> <svg version="1.1" id="Layer_1" xmlns="http://www.w3.org/2000/svg" xmlns:xlink="http://www.w3.org/1999/xlink" x="0px" y="0px" width="256px" height="256px" viewBox="0 0 256 256" enable-background="new 0 0 256 256" xml:space="preserve"><g></g> <path d="M114.611,243.459C81.039,209.871,47.71,176.528,14.065,142.867 c0.91-0.997,1.947-2.229,3.081-3.362C58.029,98.605,98.893,57.686,139.907,16.919c1.859-1.848,5.078-3.226,7.691-3.273 c16.326-0.295,32.663-0.276,48.991-0.013c2.483,0.04,5.531,1.282,7.309,3.008c12.549,12.193,24.907,24.584,37.114,37.12 c1.626,1.67,2.878,4.491,2.912,6.799c0.244,16.662,0.194,33.33,0.045,49.994c-0.018,1.939-0.653,4.425-1.942,5.72 c-42.092,42.281-84.299,84.448-126.496,126.624C115.303,243.125,114.967,243.246,114.611,243.459z M186.918,93.183 c12.633,0.011,23.135-10.418,22.932-22.771c-0.203-12.295-10.46-22.455-22.763-22.548c-12.498-0.094-23.022,10.414-22.874,22.838 C164.361,83.076,174.558,93.172,186.918,93.183z" ></path> </svg>
