<?xml version="1.0" encoding="utf-8"?> <!-- Generator: IcoMoon.io --> <!DOCTYPE svg PUBLIC "-//W3C//DTD SVG 1.1//EN" "http://www.w3.org/Graphics/SVG/1.1/DTD/svg11.dtd"> <svg version="1.1" id="Layer_1" xmlns="http://www.w3.org/2000/svg" xmlns:xlink="http://www.w3.org/1999/xlink" x="0px" y="0px" width="256px" height="256px" viewBox="0 0 256 256" enable-background="new 0 0 256 256" xml:space="preserve"><g></g> <path d="M24.467,138.445c-5.072,0-10.025,0-15.216,0c0-5.369,0-10.309,0-15.838 c5.127,0,10.21,0,15.182,0c8.974-55.584,40.763-87.6,96.422-96.582c0-4.648,0-9.747,0-15.185c5.541,0,10.613,0,16.168,0 c0,5.261,0,10.353,0,15.113c55.566,8.975,87.535,40.811,96.546,96.496c4.829,0,9.915,0,15.237,0c0,5.529,0,10.467,0,15.997 c-5.124,0-10.206,0-15.187,0c-8.941,55.608-40.771,87.585-96.415,96.605c0,4.628,0,9.727,0,15.162c-5.543,0-10.616,0-16.172,0 c0-5.26,0-10.351,0-15.11C65.467,226.125,33.486,194.301,24.467,138.445z M216.138,122.496 c-2.878-43.018-40.77-77.399-79.115-78.958c0,15.468,0,30.926,0,46.681c-5.433,0-10.517,0-16.104,0c0-15.847,0-31.423,0-47.031 c-50.288,4.525-78.466,48.542-78.644,79.283c15.41,0,30.827,0,46.396,0c0,5.601,0,10.63,0,16.241c-15.751,0-31.161,0-46.579,0 c1.458,36.322,33.825,75.784,78.997,79.05c0-15.606,0-31.184,0-46.835c5.573,0,10.627,0,16.022,0c0,15.85,0,31.31,0,46.767 c38.293-0.295,83.786-46.114,78.399-79.253c-15.323,0-30.746,0-46.237,0c0-5.497,0-10.44,0-15.944 C184.92,122.496,200.339,122.496,216.138,122.496z" ></path> </svg>
