<?xml version="1.0" encoding="utf-8"?> <!-- Generator: IcoMoon.io --> <!DOCTYPE svg PUBLIC "-//W3C//DTD SVG 1.1//EN" "http://www.w3.org/Graphics/SVG/1.1/DTD/svg11.dtd"> <svg version="1.1" id="Layer_1" xmlns="http://www.w3.org/2000/svg" xmlns:xlink="http://www.w3.org/1999/xlink" x="0px" y="0px" width="256px" height="256px" viewBox="0 0 256 256" enable-background="new 0 0 256 256" xml:space="preserve"><g></g> <path d="M67.117,254.997V240.14c14.497-0.471,23.104-1.44,25.818-2.908c2.715-1.432,4.562-3.842,5.541-7.23 c1.312-5.189,1.977-20.832,1.977-46.918V74.565c0-29.604-0.176-46.142-0.536-49.624H74.005c-13.039,0-24.526,0.397-34.434,1.238 c-3.98,0.369-6.279,0.849-6.861,1.44c-0.85,0.738-1.588,2.844-2.179,6.353c-1.57,8.458-2.475,17.932-2.715,28.44H12.756 c-0.471-24.756-0.776-38.709-0.896-41.83c-0.351-5.337-0.96-11.043-1.81-17.23l1.644-1.801c5.669,0.591,11.69,1.034,18.099,1.247 c10.379,0.37,30.343,0.554,59.91,0.554h73.133c30.407,0,50.75-0.185,61.019-0.554c5.54-0.212,11.154-0.655,16.824-1.247l1.81,1.801 c-1.071,7.369-1.736,13.823-1.985,19.41c-0.12,0.942-0.36,14.165-0.738,39.651h-15.033c-0.23-9.418-1.025-18.403-2.346-27 c-0.729-4.331-1.505-6.944-2.363-7.793c-0.712-0.591-2.65-1.025-5.79-1.256c-9.898-0.951-21.802-1.422-35.68-1.422h-25.911 c-0.379,4.192-0.554,20.74-0.554,49.624v108.518c0,26.086,0.665,41.774,1.994,47.103c0.85,3.131,2.659,5.457,5.43,6.972 c2.789,1.515,11.432,2.512,25.911,2.982v14.857c-23.399-1.089-43.104-1.625-59.153-1.625 C109.15,253.372,89.426,253.908,67.117,254.997z" ></path> </svg>
