<?xml version="1.0" encoding="utf-8"?> <!-- Generator: IcoMoon.io --> <!DOCTYPE svg PUBLIC "-//W3C//DTD SVG 1.1//EN" "http://www.w3.org/Graphics/SVG/1.1/DTD/svg11.dtd"> <svg version="1.1" id="Layer_1" xmlns="http://www.w3.org/2000/svg" xmlns:xlink="http://www.w3.org/1999/xlink" x="0px" y="0px" width="256px" height="256px" viewBox="0 0 256 256" enable-background="new 0 0 256 256" xml:space="preserve"><g></g> <path d="M163.914,0c0.531,2.609,0.812,5.25,0.812,8c0,22.094-17.906,40-40,40c-22.094,0-40-17.906-40-40 c0-2.75,0.281-5.391,0.812-8H52.727v256H85.54c3.703-18.25,19.828-32,39.188-32c19.359,0,35.484,13.75,39.187,32h32.812V0H163.914z M84.727,112h-16V96h16V112z M116.727,112h-16V96h16V112z M148.727,112h-16V96h16V112z M180.727,112h-16V96h16V112z" ></path></svg>
