<?xml version="1.0" encoding="utf-8"?> <!-- Generator: IcoMoon.io --> <!DOCTYPE svg PUBLIC "-//W3C//DTD SVG 1.1//EN" "http://www.w3.org/Graphics/SVG/1.1/DTD/svg11.dtd"> <svg version="1.1" id="Layer_1" xmlns="http://www.w3.org/2000/svg" xmlns:xlink="http://www.w3.org/1999/xlink" x="0px" y="0px" width="256px" height="256px" viewBox="0 0 256 256" enable-background="new 0 0 256 256" xml:space="preserve"><g></g> <path d="M101.023,1c19.671,0,39.342,0,59.013,0c1.387,0.332,2.756,0.805,4.161,0.97c10.003,1.172,16.168,6.387,18.619,16.127 c0.727,2.887,1.237,5.897,1.314,8.865c0.187,7.236,0.061,14.479,0.061,22.049c2.971,0,4.78,0,6.59,0 c10.832,0.001,21.665-0.056,32.496,0.026c5.328,0.04,8.545,2.769,8.719,7.551c0.204,5.659,0.184,11.336-0.001,16.995 c-0.13,3.995-2.569,6.381-6.371,7.29c-8.29,1.98-9.404,3.324-9.405,11.823c-0.003,50.496,0,100.99-0.003,151.485 c0,9.406-1.979,11.381-11.417,11.382c-50.495,0.003-100.99,0.003-151.485,0c-9.478,0-11.47-1.969-11.47-11.328 c-0.002-50.828,0.005-101.657-0.008-152.485c-0.002-7.329-1.747-9.387-8.855-10.791c-4.544-0.896-6.959-3.612-6.972-8.32 c-0.006-2.5-0.002-5-0.002-7.5c0-15.828,0.303-16.128,16.222-16.128c10.286,0,20.571,0,31.657,0c0-8.728-0.297-16.875,0.069-24.993 c0.562-12.459,6.074-18.581,18.444-21.289C95.262,2.102,98.147,1.574,101.023,1z M136.863,157.098c0-18.157,0.001-36.315,0-54.473 c0-1.333,0.059-2.669-0.019-3.998c-0.279-4.773-3.483-8.184-7.7-8.258c-4.188-0.074-7.582,3.347-7.93,8.027 c-0.062,0.828-0.019,1.666-0.019,2.498c0,37.315,0,74.629,0,111.945c0,0.999-0.065,2.006,0.03,2.997 c0.436,4.528,3.547,7.606,7.688,7.666c4.142,0.06,7.409-2.973,7.897-7.437c0.144-1.318,0.051-2.663,0.051-3.995 C136.864,193.745,136.863,175.422,136.863,157.098z M73.854,156.521c0,19.153-0.013,38.307,0.007,57.459 c0.007,6.151,2.78,9.55,7.66,9.534c4.806-0.015,7.65-3.508,7.653-9.611c0.019-37.974,0.019-75.946,0-113.918 c-0.003-5.913-3.122-9.739-7.73-9.685c-4.733,0.055-7.578,3.664-7.584,9.762C73.841,118.881,73.854,137.7,73.854,156.521z M184.206,156.938c0-18.987,0.013-37.973-0.008-56.959c-0.007-6.046-2.94-9.698-7.666-9.692c-4.591,0.007-7.645,3.838-7.647,9.781 c-0.018,37.972-0.02,75.945,0.001,113.918c0.004,6.1,2.884,9.562,7.735,9.526c4.859-0.037,7.571-3.427,7.578-9.615 C184.218,194.91,184.206,175.924,184.206,156.938z M105.387,48.636c16.07,0,31.606,0,47.104,0c0-5.275,0-10.165,0-15.054 c-15.906,0-31.432,0-47.104,0C105.387,38.767,105.387,43.54,105.387,48.636z" ></path> </svg>
