<?xml version="1.0" encoding="utf-8"?> <!-- Generator: IcoMoon.io --> <!DOCTYPE svg PUBLIC "-//W3C//DTD SVG 1.1//EN" "http://www.w3.org/Graphics/SVG/1.1/DTD/svg11.dtd"> <svg version="1.1" id="Layer_1" xmlns="http://www.w3.org/2000/svg" xmlns:xlink="http://www.w3.org/1999/xlink" x="0px" y="0px" width="256px" height="256px" viewBox="0 0 256 256" enable-background="new 0 0 256 256" xml:space="preserve"><g></g> <path d="M1,108.025c36.822,0.03,73.645,0.061,110.466,0.079 c0.308,0,0.616-0.176,1.56-0.463c0-7.738,0-15.677,0-23.617c0.002-32.779,21.115-60.63,52.712-69.534 c45.592-12.848,91.312,21.652,91.32,68.912c0.001,8.153,0,16.307,0,24.793c-10.712,0-21.12,0-32.172,0 c0-8.813,0.285-17.447-0.059-26.055c-0.741-18.562-14.328-33.934-32.526-37.243c-23.191-4.218-45.048,12.128-46.935,35.61 c-0.717,8.918-0.116,17.942-0.116,27.533c10.429,0,20.812,0,31.483,0c0,48.364,0,96.112,0,144.524c-2.114,0-4.229,0-6.344,0 c-54.323,0-108.646-0.005-162.97,0.021c-2.14,0.001-4.281,0.309-6.421,0.473C1,204.714,1,156.369,1,108.025z M101.279,220.031 c-1.939-10.61-3.667-20.763-5.708-30.853c-0.765-3.782-0.868-6.575,2.483-9.641c4.958-4.535,4.299-12.708-0.495-17.518 c-5.121-5.137-13.151-5.271-18.475-0.31c-5.025,4.685-6.11,12.901-1.149,17.43c3.868,3.531,3.444,6.852,2.638,10.976 c-1.929,9.86-3.702,19.752-5.589,29.915C83.896,220.031,92.179,220.031,101.279,220.031z" ></path> </svg>
