<?xml version="1.0" encoding="utf-8"?> <!-- Generator: IcoMoon.io --> <!DOCTYPE svg PUBLIC "-//W3C//DTD SVG 1.1//EN" "http://www.w3.org/Graphics/SVG/1.1/DTD/svg11.dtd"> <svg version="1.1" id="Layer_1" xmlns="http://www.w3.org/2000/svg" xmlns:xlink="http://www.w3.org/1999/xlink" x="0px" y="0px" width="256px" height="256px" viewBox="0 0 256 256" enable-background="new 0 0 256 256" xml:space="preserve"><g></g> <path d="M1,205.047c0-50.345,0-100.69,0-151.035C4.076,46.169,9.326,41.47,18.23,41.48c47.146,0.053,94.293-0.007,141.44,0.049 c10.892,0.013,17.33,6.614,17.361,17.487c0.033,11.162-0.068,22.324,0.031,33.486c0.092,10.355,5.142,13.175,13.977,7.889 c17.278-10.336,34.486-20.792,51.818-31.037c8.338-4.928,14.155-1.636,14.174,7.934c0.064,34.652,0.068,69.305-0.004,103.956 c-0.02,9.267-5.918,12.583-13.94,7.962c-5.767-3.321-11.417-6.85-17.125-10.274c-12.274-7.362-24.506-14.798-36.851-22.042 c-6.111-3.587-10.638-1.326-11.835,5.677c-0.278,1.627-0.225,3.32-0.229,4.982c-0.018,10.163-0.008,20.325-0.009,30.487 c-0.002,13.66-5.796,19.51-19.363,19.511c-45.648,0.006-91.296-0.135-136.942,0.112C11.001,217.711,4.426,214.189,1,205.047z" ></path> </svg>
