<?xml version="1.0" encoding="utf-8"?> <!-- Generator: IcoMoon.io --> <!DOCTYPE svg PUBLIC "-//W3C//DTD SVG 1.1//EN" "http://www.w3.org/Graphics/SVG/1.1/DTD/svg11.dtd"> <svg version="1.1" id="Layer_1" xmlns="http://www.w3.org/2000/svg" xmlns:xlink="http://www.w3.org/1999/xlink" x="0px" y="0px" width="256px" height="256px" viewBox="0 0 256 256" enable-background="new 0 0 256 256" xml:space="preserve"><g></g> <path d="M166.03,62.294c10.47,10.528,21.597,21.716,32.388,32.568 C147.157,146.105,95.565,197.679,44.272,248.953C33.68,238.362,22.516,227.2,11.818,216.504 C62.981,165.342,114.555,113.769,166.03,62.294z M142.704,127.815c11.2-11.227,22.09-22.143,32.994-33.075 c-3.229-3.266-6.763-6.841-9.938-10.052c-11.125,11.127-22.145,22.151-32.964,32.972 C136.011,120.955,139.464,124.493,142.704,127.815zM214.777,105.07c0-5.245,0-10.036,0-15.19c10.471,0,20.714,0,31.374,0 c0,4.907,0,9.819,0,15.19C235.918,105.07,225.557,105.07,214.777,105.07zM164.706,47.258c-5.132,0-10.069,0-15.34,0c0-10.403,0-20.642,0-31.323 c4.93,0,9.965,0,15.34,0C164.706,26.154,164.706,36.393,164.706,47.258zM211.318,59.352c-3.288-3.214-6.831-6.677-9.995-9.769 c7.422-7.354,14.781-14.647,22.366-22.164c2.722,3.03,6.128,6.822,9.25,10.297C226.158,44.501,218.802,51.863,211.318,59.352zM98.568,38.425c7.298,7.316,14.564,14.6,21.608,21.662 c-3.31,3.459-6.8,7.105-9.919,10.365c-7.282-7.287-14.625-14.635-22.064-22.079C91.412,45.287,94.979,41.866,98.568,38.425zM211.106,171.653c-6.518-6.492-13.903-13.85-21.16-21.079 c3.319-3.268,6.924-6.815,10.25-10.09c7.128,7.124,14.384,14.376,21.967,21.954C218.649,165.367,214.742,168.623,211.106,171.653z" ></path> </svg>
