<?xml version="1.0" encoding="UTF-8" standalone="no"?>
<!-- Generator: IcoMoon.io -->

<svg
   xmlns:dc="http://purl.org/dc/elements/1.1/"
   xmlns:cc="http://creativecommons.org/ns#"
   xmlns:rdf="http://www.w3.org/1999/02/22-rdf-syntax-ns#"
   xmlns:svg="http://www.w3.org/2000/svg"
   xmlns="http://www.w3.org/2000/svg"
   xmlns:sodipodi="http://sodipodi.sourceforge.net/DTD/sodipodi-0.dtd"
   xmlns:inkscape="http://www.inkscape.org/namespaces/inkscape"
   version="1.1"
   id="Layer_1"
   x="0px"
   y="0px"
   width="256px"
   height="256px"
   viewBox="0 0 256 256"
   enable-background="new 0 0 256 256"
   xml:space="preserve"
   inkscape:version="0.48.4 r9939"
   sodipodi:docname="webinar.svg"><metadata
     id="metadata11"><rdf:RDF><cc:Work
         rdf:about=""><dc:format>image/svg+xml</dc:format><dc:type
           rdf:resource="http://purl.org/dc/dcmitype/StillImage" /></cc:Work></rdf:RDF></metadata><defs
     id="defs9" /><sodipodi:namedview
     pagecolor="#ffffff"
     bordercolor="#666666"
     borderopacity="1"
     objecttolerance="10"
     gridtolerance="10"
     guidetolerance="10"
     inkscape:pageopacity="0"
     inkscape:pageshadow="2"
     inkscape:window-width="1920"
     inkscape:window-height="1056"
     id="namedview7"
     showgrid="false"
     inkscape:zoom="1.84375"
     inkscape:cx="132.20002"
     inkscape:cy="80.125341"
     inkscape:window-x="0"
     inkscape:window-y="24"
     inkscape:window-maximized="1"
     inkscape:current-layer="Layer_1" /><g
     id="g3" /><path
     d="M 119.59375 0 L 119.59375 15.9375 L 8 15.9375 C 8.02429 70.079089 7.99868 126.85731 8 175.34375 L 119.59375 175.34375 L 119.59375 181.96875 L 119.59375 205.59375 L 56.53125 255.0625 L 72.25 255.0625 L 119.59375 222.5 L 119.59375 223.1875 L 151.46875 223.1875 L 151.46875 222.5 L 198.8125 255.0625 L 214.53125 255.0625 L 151.46875 205.59375 L 151.46875 181.96875 L 151.46875 175.34375 L 247.125 175.34375 C 247.13 123.15369 247.0885 65.699605 247.125 15.9375 L 151.46875 15.9375 L 151.46875 0 L 119.59375 0 z M 23.9375 51.78125 L 231.1875 51.78125 L 231.1875 159.40625 L 155.9375 159.40625 L 155.9375 159.375 L 118.09375 159.375 L 118.09375 159.40625 L 23.9375 159.40625 L 23.9375 51.78125 z M 187.5 71.75 C 176.43413 72.311551 167.625 81.497719 167.625 92.71875 C 167.625 104.27775 176.9965 113.65625 188.5625 113.65625 C 200.1285 113.65625 209.53125 104.27775 209.53125 92.71875 C 209.53125 81.13575 200.1285 71.75 188.5625 71.75 C 188.20106 71.75 187.85696 71.73189 187.5 71.75 z M 141.6875 75.75 C 140.14283 75.891281 138.7325 76.9415 138.21875 78.5 L 121.6875 129.90625 L 100.15625 95.03125 L 76.625 131.96875 L 51.625 93.5625 L 36.125 138.03125 C 35.393 140.11025 36.4925 142.36975 38.5625 143.09375 C 40.6485 143.86375 42.909 142.73525 43.625 140.65625 L 53.8125 111.53125 L 76.71875 146.71875 L 100.0625 110.0625 L 123.96875 148.78125 L 145.8125 80.9375 C 146.4975 78.8435 145.336 76.5995 143.25 75.9375 C 142.7325 75.774 142.20239 75.702906 141.6875 75.75 z M 167.40625 127.53125 L 167.40625 143.46875 L 183.34375 143.46875 L 183.34375 127.53125 L 167.40625 127.53125 z M 199.28125 127.53125 L 199.28125 143.46875 L 215.25 143.46875 L 215.25 127.53125 L 199.28125 127.53125 z "
     id="path5" /></svg>