<?xml version="1.0" encoding="utf-8"?> <!-- Generator: IcoMoon.io --> <!DOCTYPE svg PUBLIC "-//W3C//DTD SVG 1.1//EN" "http://www.w3.org/Graphics/SVG/1.1/DTD/svg11.dtd"> <svg version="1.1" id="Layer_1" xmlns="http://www.w3.org/2000/svg" xmlns:xlink="http://www.w3.org/1999/xlink" x="0px" y="0px" width="256px" height="256px" viewBox="0 0 256 256" enable-background="new 0 0 256 256" xml:space="preserve"><g></g> <path d="M248.495,54.513c4.309,18.576,0.812,35.676-11.491,50.372 c-14.401,17.201-33.092,23.832-55.374,20.312c-1.729-0.273-4.251,0.464-5.483,1.671c-20.939,20.523-41.69,41.239-62.615,61.778 c-2.316,2.273-2.678,4.527-2.578,7.523c1.077,32.49-29.129,56.878-60.039,47.673c7.08-7.046,13.708-14.004,20.759-20.503 c3.326-3.066,4.382-5.998,3.185-10.375c-1.621-5.927-2.383-12.091-4.054-18c-0.492-1.74-2.583-3.8-4.333-4.276 c-6.569-1.788-13.357-2.768-19.946-4.496c-3.07-0.806-4.87,0.026-6.92,2.168c-5.875,6.138-11.965,12.068-17.993,18.06 c-1.115,1.108-2.334,2.112-3.655,3.301c-7.179-20.522,5.088-45.996,26.221-55.166c8.256-3.582,16.845-4.953,25.859-3.642 c1.496,0.218,3.652-0.474,4.727-1.533c20.173-19.881,40.264-39.845,60.217-59.947c1.181-1.19,1.837-3.889,1.411-5.543 C125.963,43.373,156.231,7,197.725,10.419c2.938,0.242,5.833,0.977,9.538,1.62c-1.424,1.665-2.255,2.775-3.225,3.749 c-8.231,8.263-16.57,16.422-24.647,24.833c-1.209,1.259-1.971,3.798-1.666,5.519c1.596,9.009,3.453,17.981,5.604,26.873 c0.39,1.609,2.363,3.621,3.962,4.021c9.031,2.263,18.143,4.25,27.301,5.921c1.666,0.304,4.16-0.8,5.45-2.082 c9.081-9.023,17.946-18.262,26.881-27.433C247.447,53.798,247.971,54.155,248.495,54.513z" ></path> </svg>
